<svg xmlns="http://www.w3.org/2000/svg" xmlns:xlink="http://www.w3.org/1999/xlink" fill="none" stroke="none" stroke-linecap="square" stroke-miterlimit="10" version="1.1" viewBox="0 0 640 200"><clipPath id="p.0"><path d="m0 0l640.0 0l0 200.0l-640.0 0l0 -200.0z" clip-rule="nonzero"/></clipPath><g clip-path="url(#p.0)"><path fill="#000" fill-opacity="0" fill-rule="evenodd" d="m0 0l640.0 0l0 200.0l-640.0 0z"/><path fill="#000" fill-opacity="0" fill-rule="evenodd" d="m229.88977 170.06874l0 -164.28346"/><path fill-rule="evenodd" stroke="#434343" stroke-linecap="butt" stroke-linejoin="round" stroke-width="2" d="m229.88977 170.06874l0 -152.28346"/><path fill="#434343" fill-rule="evenodd" stroke="#434343" stroke-linecap="butt" stroke-width="2" d="m233.19322 17.785276l-3.3034515 -9.076196l-3.3034668 9.076196z"/><path fill="#000" fill-opacity="0" fill-rule="evenodd" d="m229.0105 169.24721l251.43307 0"/><path fill-rule="evenodd" stroke="#434343" stroke-linecap="butt" stroke-linejoin="round" stroke-width="2" d="m229.0105 169.24721l239.43307 0"/><path fill="#434343" fill-rule="evenodd" stroke="#434343" stroke-linecap="butt" stroke-width="2" d="m468.44357 172.55067l9.076202 -3.3034668l-9.076202 -3.3034668z"/><path fill="#000" fill-opacity="0" fill-rule="evenodd" d="m257.14172 45.21556c14.212616 15.469082 56.850403 93.225235 85.275604 92.81448c28.425201 -0.41073608 71.06299 -79.39914 85.27557 -95.27898"/><path fill-rule="evenodd" stroke="#bf9000" stroke-linecap="butt" stroke-linejoin="round" stroke-width="2" d="m257.14172 45.21556c14.212616 15.469082 56.850403 93.225235 85.275604 92.81448c28.425201 -0.41073608 71.06299 -79.39914 85.27557 -95.27898"/><path fill="#000" fill-opacity="0" fill-rule="evenodd" d="m342.41733 141.33723l0 25.448822"/><path fill-rule="evenodd" stroke="#000" stroke-dasharray="1 3" stroke-linecap="butt" stroke-linejoin="round" stroke-width="1" d="m342.41733 141.33723l0 25.448822"/><path fill="#000" fill-opacity="0" fill-rule="evenodd" d="m342.41733 138.03394l-109.88977 0"/><path fill-rule="evenodd" stroke="#000" stroke-dasharray="1 3" stroke-linecap="butt" stroke-linejoin="round" stroke-width="1" d="m342.41733 138.03394l-109.88977 0"/><path fill="#000" fill-opacity="0" fill-rule="evenodd" d="m432.08923 48.501785l-20.220459 26.267715"/><path fill-rule="evenodd" stroke="#666" stroke-linecap="butt" stroke-linejoin="round" stroke-width="1" d="m432.08923 48.501785l-16.560577 21.513245"/><path fill="#666" fill-rule="evenodd" stroke="#666" stroke-linecap="butt" stroke-width="1" d="m414.21982 69.00749l-1.4593201 4.6035767l4.0770264 -2.5885086z"/><path fill="#000" fill-opacity="0" fill-rule="evenodd" d="m410.11023 77.24801l-12.314941 16.409447"/><path fill-rule="evenodd" stroke="#666" stroke-linecap="butt" stroke-linejoin="round" stroke-width="1" d="m410.11023 77.24801l-8.713501 11.610558"/><path fill="#666" fill-rule="evenodd" stroke="#666" stroke-linecap="butt" stroke-width="1" d="m400.07565 87.86712l-1.4028625 4.621086l4.045044 -2.6381912z"/><path fill="#000" fill-opacity="0" fill-rule="evenodd" d="m396.04462 96.9623l-13.196838 16.409447"/><path fill-rule="evenodd" stroke="#666" stroke-linecap="butt" stroke-linejoin="round" stroke-width="1" d="m396.04462 96.9623l-9.4366455 11.733879"/><path fill="#666" fill-rule="evenodd" stroke="#666" stroke-linecap="butt" stroke-width="1" d="m385.32083 107.66104l-1.5568848 4.5715027l4.1311646 -2.5012207z"/><path fill="#000" fill-opacity="0" fill-rule="evenodd" d="m380.22046 118.31965l-15.811005 12.314964"/><path fill-rule="evenodd" stroke="#666" stroke-linecap="butt" stroke-linejoin="round" stroke-width="1" d="m380.22046 118.31965l-11.077454 8.628052"/><path fill="#666" fill-rule="evenodd" stroke="#666" stroke-linecap="butt" stroke-width="1" d="m368.12805 125.6446l-2.565277 4.0916977l4.595215 -1.4855042z"/><path fill="#000" fill-opacity="0" fill-rule="evenodd" d="m360.0 135.56935l-10.551178 2.4566956"/><path fill-rule="evenodd" stroke="#666" stroke-linecap="butt" stroke-linejoin="round" stroke-width="1" d="m360.0 135.56935l-4.7074585 1.0960693"/><path fill="#666" fill-rule="evenodd" stroke="#666" stroke-linecap="butt" stroke-width="1" d="m354.91794 135.05672l-4.045288 2.6378021l4.7944336 0.5796051z"/><path fill="#000" fill-opacity="0" fill-rule="evenodd" d="m253.6273 47.680256l12.629929 19.874012"/><path fill-rule="evenodd" stroke="#666" stroke-linecap="butt" stroke-linejoin="round" stroke-width="1" d="m253.6273 47.680256l9.411789 14.810066"/><path fill="#666" fill-rule="evenodd" stroke="#666" stroke-linecap="butt" stroke-width="1" d="m261.64502 63.37624l3.8280945 2.9442024l-1.039978 -4.7160378z"/><path fill="#000" fill-opacity="0" fill-rule="evenodd" d="m268.84515 69.98911l12.031494 17.102364"/><path fill-rule="evenodd" stroke="#666" stroke-linecap="butt" stroke-linejoin="round" stroke-width="1" d="m268.84515 69.98911l8.579193 12.195053"/><path fill="#666" fill-rule="evenodd" stroke="#666" stroke-linecap="butt" stroke-width="1" d="m276.07343 83.13454l3.9620667 2.7612686l-1.2602234 -4.662018z"/><path fill="#000" fill-opacity="0" fill-rule="evenodd" d="m284.39633 92.03557l13.196838 17.228348"/><path fill-rule="evenodd" stroke="#666" stroke-linecap="butt" stroke-linejoin="round" stroke-width="1" d="m284.39633 92.03557l9.548248 12.465172"/><path fill="#666" fill-rule="evenodd" stroke="#666" stroke-linecap="butt" stroke-width="1" d="m292.63336 105.50514l4.0708313 2.5982208l-1.4483337 -4.6070404z"/><path fill="#000" fill-opacity="0" fill-rule="evenodd" d="m301.979 115.85506l13.196838 13.133865"/><path fill-rule="evenodd" stroke="#666" stroke-linecap="butt" stroke-linejoin="round" stroke-width="1" d="m301.979 115.85506l8.944092 8.901382"/><path fill="#666" fill-rule="evenodd" stroke="#666" stroke-linecap="butt" stroke-width="1" d="m309.75793 125.92718l4.381714 2.0304947l-2.051422 -4.3719788z"/><path fill="#000" fill-opacity="0" fill-rule="evenodd" d="m319.56168 133.10475l10.551178 2.4566956"/><path fill-rule="evenodd" stroke="#666" stroke-linecap="butt" stroke-linejoin="round" stroke-width="1" d="m319.56168 133.10475l4.707489 1.0960693"/><path fill="#666" fill-rule="evenodd" stroke="#666" stroke-linecap="butt" stroke-width="1" d="m323.89462 135.80952l4.7944336 -0.57958984l-4.0453186 -2.6378174z"/><path fill="#000" fill-opacity="0" fill-rule="evenodd" d="m159.55643 11.535347l74.74016 0l0 28.755905l-74.74016 0z"/><path fill="#434343" fill-rule="nonzero" d="m171.88455 33.910973q0 0.46875 0.046875 0.75q0.046875 0.265625 0.15625 0.421875q0.109375 0.15625 0.28125 0.25q0.1875 0.09375 0.5625 0.171875l0 0.390625l-3.421875 0l0 -0.390625q0.484375 -0.125 0.640625 -0.265625q0.171875 -0.15625 0.21875 -0.4375q0.046875 -0.28125 0.046875 -0.859375l0 -6.765625q0 -0.53125 -0.046875 -0.78125q-0.03125 -0.25 -0.125 -0.375q-0.078125 -0.140625 -0.234375 -0.21875q-0.140625 -0.09375 -0.5 -0.1875l0 -0.390625l3.875 0q1.828125 0 2.71875 0.703125q0.890625 0.703125 0.890625 2.125q0 0.8125 -0.28125 1.46875q-0.28125 0.640625 -0.796875 1.0625q-0.515625 0.40625 -1.21875 0.59375q-0.703125 0.171875 -1.46875 0.171875q-0.875 0 -1.34375 -0.03125l0 2.59375zm0 -3.234375l0.90625 0q0.875 0 1.453125 -0.234375q0.578125 -0.234375 0.875 -0.765625q0.3125 -0.53125 0.3125 -1.421875q0 -0.671875 -0.1875 -1.109375q-0.171875 -0.453125 -0.5 -0.71875q-0.3125 -0.28125 -0.75 -0.390625q-0.4375 -0.125 -0.953125 -0.125q-0.765625 0 -1.15625 0.03125l0 4.734375zm8.5234375 1.265625q0 2.734375 0.875 4.5q0.875 1.78125 2.6875 2.390625l-0.1875 0.59375q-2.296875 -0.59375 -3.515625 -2.59375q-1.21875 -1.984375 -1.21875 -4.8125q0 -2.828125 1.21875 -4.8125q1.234375 -2.0 3.515625 -2.609375l0.203125 0.609375q-1.828125 0.59375 -2.703125 2.34375q-0.875 1.75 -0.875 4.390625zm7.9375 -0.5625l1.015625 -1.28125q0.171875 -0.21875 0.265625 -0.40625q0.109375 -0.203125 0.109375 -0.421875q0 -0.171875 -0.140625 -0.28125q-0.125 -0.125 -0.40625 -0.1875l0 -0.375l2.546875 0l0 0.375q-0.296875 0.09375 -0.609375 0.34375q-0.296875 0.25 -0.75 0.796875l-1.609375 1.984375l1.78125 2.40625q0.375 0.515625 0.671875 0.796875q0.3125 0.265625 0.625 0.375l0 0.390625l-3.140625 0l0 -0.390625q0.640625 -0.078125 0.640625 -0.484375q0 -0.15625 -0.0625 -0.296875q-0.046875 -0.15625 -0.1875 -0.359375l-1.140625 -1.578125l-1.203125 1.5625q-0.125 0.171875 -0.203125 0.328125q-0.078125 0.140625 -0.078125 0.3125q0 0.21875 0.140625 0.359375q0.15625 0.125 0.46875 0.15625l0 0.390625l-2.609375 0l0 -0.390625q0.25 -0.09375 0.453125 -0.234375q0.21875 -0.140625 0.421875 -0.359375q0.21875 -0.21875 0.578125 -0.65625l1.625 -2.015625l-1.671875 -2.28125q-0.34375 -0.46875 -0.546875 -0.671875q-0.203125 -0.21875 -0.375 -0.328125q-0.171875 -0.109375 -0.34375 -0.15625l0 -0.375l3.0625 0l0 0.375q-0.609375 0.09375 -0.609375 0.484375q0 0.1875 0.078125 0.375q0.078125 0.171875 0.25 0.390625l0.953125 1.328125zm6.09375 2.703125q0.109375 0.546875 0.109375 1.078125q0 0.546875 -0.1875 1.0q-0.1875 0.453125 -0.609375 0.90625q-0.40625 0.453125 -1.125 0.984375l-0.421875 -0.46875q0.40625 -0.375 0.578125 -0.6875q0.1875 -0.296875 0.265625 -0.6875q0.078125 -0.375 0.078125 -0.953125q0 -0.59375 -0.0625 -1.171875l1.375 0zm7.09375 -4.03125l-2.046875 5.890625l-1.078125 0l-1.875 -5.8125q-0.1875 -0.5625 -0.3125 -0.78125q-0.109375 -0.234375 -0.25 -0.34375q-0.140625 -0.125 -0.4375 -0.203125l0 -0.375l3.078125 0l0 0.375q-0.453125 0.09375 -0.609375 0.25q-0.15625 0.15625 -0.15625 0.453125q0 0.21875 0.046875 0.453125q0.046875 0.21875 0.140625 0.53125l1.21875 3.984375l2.015625 -6.046875l1.09375 0l1.703125 6.046875l1.375 -3.828125q0.109375 -0.296875 0.171875 -0.5625q0.078125 -0.265625 0.078125 -0.5q0 -0.328125 -0.171875 -0.5q-0.171875 -0.1875 -0.59375 -0.28125l0 -0.375l2.71875 0l0 0.375q-0.21875 0.0625 -0.328125 0.125q-0.109375 0.046875 -0.21875 0.171875q-0.09375 0.109375 -0.234375 0.34375q-0.125 0.234375 -0.3125 0.734375l-2.265625 5.765625l-1.046875 0l-1.703125 -5.890625zm10.046875 1.890625q0 -2.640625 -0.875 -4.390625q-0.875 -1.75 -2.71875 -2.34375l0.21875 -0.609375q2.28125 0.609375 3.5 2.609375q1.21875 1.984375 1.21875 4.8125q0 2.828125 -1.21875 4.8125q-1.21875 2.0 -3.5 2.59375l-0.1875 -0.59375q1.796875 -0.609375 2.671875 -2.390625q0.890625 -1.765625 0.890625 -4.5z"/><path fill="#000" fill-opacity="0" fill-rule="evenodd" d="m444.0525 165.96844l30.236237 0l0 31.40158l-30.236237 0z"/><path fill="#434343" fill-rule="nonzero" d="m459.28687 184.4847l-2.046875 5.890625l-1.078125 0l-1.875 -5.8125q-0.1875 -0.5625 -0.3125 -0.78125q-0.109375 -0.234375 -0.25 -0.34375q-0.140625 -0.125 -0.4375 -0.203125l0 -0.375l3.078125 0l0 0.375q-0.453125 0.09375 -0.609375 0.25q-0.15625 0.15625 -0.15625 0.453125q0 0.21875 0.046875 0.453125q0.046875 0.21875 0.140625 0.53125l1.21875 3.984375l2.015625 -6.046875l1.09375 0l1.703125 6.046875l1.375 -3.828125q0.109375 -0.296875 0.171875 -0.5625q0.078125 -0.265625 0.078125 -0.5q0 -0.328125 -0.171875 -0.5q-0.171875 -0.1875 -0.59375 -0.28125l0 -0.375l2.71875 0l0 0.375q-0.21875 0.0625 -0.328125 0.125q-0.109375 0.046875 -0.21875 0.171875q-0.09375 0.109375 -0.234375 0.34375q-0.125 0.234375 -0.3125 0.734375l-2.265625 5.765625l-1.046875 0l-1.703125 -5.890625z"/><path fill="#000" fill-opacity="0" fill-rule="evenodd" d="m258.021 50.966377l0 117.448814"/><path fill-rule="evenodd" stroke="#000" stroke-dasharray="1 3" stroke-linecap="butt" stroke-linejoin="round" stroke-width="1" d="m258.021 50.966377l0 117.448814"/><path fill="#000" fill-opacity="0" fill-rule="evenodd" d="m408.81104 70.678215l-0.18899536 95.2441"/><path fill-rule="evenodd" stroke="#000" stroke-dasharray="1 3" stroke-linecap="butt" stroke-linejoin="round" stroke-width="1" d="m408.81104 70.678215l-0.18899536 95.2441"/><path fill="#000" fill-opacity="0" fill-rule="evenodd" d="m236.85564 162.68968l47.622055 0l0 31.401566l-47.622055 0z"/><path fill="#434343" fill-rule="nonzero" d="m252.09001 181.20593l-2.046875 5.890625l-1.078125 0l-1.875 -5.8125q-0.1875 -0.5625 -0.3125 -0.78125q-0.109375 -0.234375 -0.25 -0.34375q-0.140625 -0.125 -0.4375 -0.203125l0 -0.375l3.078125 0l0 0.375q-0.453125 0.09375 -0.609375 0.25q-0.15625 0.15625 -0.15625 0.453125q0 0.21875 0.046875 0.453125q0.046875 0.21875 0.140625 0.53125l1.21875 3.984375l2.015625 -6.046875l1.09375 0l1.703125 6.046875l1.375 -3.828125q0.10939026 -0.296875 0.17189026 -0.5625q0.078125 -0.265625 0.078125 -0.5q0 -0.328125 -0.171875 -0.5q-0.17189026 -0.1875 -0.59376526 -0.28125l0 -0.375l2.7187653 0l0 0.375q-0.21875 0.0625 -0.328125 0.125q-0.109375 0.046875 -0.21875 0.171875q-0.09375 0.109375 -0.234375 0.34375q-0.125 0.234375 -0.3125 0.734375l-2.2656403 5.765625l-1.046875 0l-1.703125 -5.890625z"/><path fill="#434343" fill-rule="nonzero" d="m260.8869 186.48718l-0.0625 -0.015625q-0.34375 0.34375 -0.640625 0.5q-0.296875 0.140625 -0.625 0.140625q-0.296875 0 -0.53125 -0.109375q-0.21875 -0.125 -0.34375 -0.328125q-0.125 -0.21875 -0.125 -0.484375q0 -0.578125 0.5625 -0.875q0.5625 -0.3125 1.703125 -0.375l0 -0.25q0 -0.40625 -0.078125 -0.640625q-0.078125 -0.234375 -0.25 -0.34375q-0.171875 -0.109375 -0.453125 -0.109375q-0.296875 0 -0.484375 0.171875q-0.1875 0.15625 -0.28125 0.46875l-0.515625 0l0 -0.5q0.375 -0.203125 0.625 -0.296875q0.25 -0.09375 0.5 -0.140625q0.25 -0.046875 0.515625 -0.046875q0.375 0 0.609375 0.125q0.234375 0.109375 0.34375 0.375q0.125 0.25 0.125 0.765625l0 1.359375q0 0.28125 0 0.40625q0.015625 0.109375 0.03125 0.21875q0.015625 0.09375 0.046875 0.15625q0.046875 0.0625 0.125 0.109375q0.078125 0.046875 0.25 0.09375l0 0.1875l-1.0625 0l0.015625 -0.5625zm-0.0625 -1.21875q-0.796875 0 -1.203125 0.203125q-0.390625 0.203125 -0.390625 0.625q0 0.21875 0.09375 0.34375q0.09375 0.125 0.21875 0.1875q0.140625 0.046875 0.328125 0.046875q0.265625 0 0.484375 -0.125q0.21875 -0.140625 0.34375 -0.328125q0.125 -0.203125 0.125 -0.40625l0 -0.546875z"/><path fill="#000" fill-opacity="0" fill-rule="evenodd" d="m318.6063 162.68968l47.62204 0l0 31.401566l-47.62204 0z"/><path fill="#434343" fill-rule="nonzero" d="m333.84067 181.20593l-2.046875 5.890625l-1.078125 0l-1.875 -5.8125q-0.1875 -0.5625 -0.3125 -0.78125q-0.109375 -0.234375 -0.25 -0.34375q-0.140625 -0.125 -0.4375 -0.203125l0 -0.375l3.078125 0l0 0.375q-0.453125 0.09375 -0.609375 0.25q-0.15625 0.15625 -0.15625 0.453125q0 0.21875 0.046875 0.453125q0.046875 0.21875 0.140625 0.53125l1.21875 3.984375l2.015625 -6.046875l1.09375 0l1.703125 6.046875l1.375 -3.828125q0.109375 -0.296875 0.171875 -0.5625q0.078125 -0.265625 0.078125 -0.5q0 -0.328125 -0.171875 -0.5q-0.171875 -0.1875 -0.59375 -0.28125l0 -0.375l2.71875 0l0 0.375q-0.21875 0.0625 -0.328125 0.125q-0.109375 0.046875 -0.21875 0.171875q-0.09375 0.109375 -0.234375 0.34375q-0.125 0.234375 -0.3125 0.734375l-2.265625 5.765625l-1.046875 0l-1.703125 -5.890625z"/><path fill="#434343" fill-rule="nonzero" d="m341.3563 183.92468l0.015625 0q0.28125 -0.28125 0.453125 -0.40625q0.1875 -0.125 0.375 -0.1875q0.203125 -0.078125 0.4375 -0.078125q0.40625 0 0.703125 0.21875q0.3125 0.203125 0.46875 0.640625q0.15625 0.421875 0.15625 1.03125q0 0.640625 -0.1875 1.078125q-0.1875 0.4375 -0.578125 0.671875q-0.375 0.21875 -0.890625 0.21875q-0.28125 0 -0.546875 -0.0625q-0.25 -0.046875 -0.53125 -0.171875l-0.265625 0.234375l-0.28125 -0.0625l0 -4.25q0 -0.375 0 -0.515625q0 -0.15625 -0.03125 -0.25q-0.03125 -0.109375 -0.078125 -0.171875q-0.03125 -0.0625 -0.109375 -0.09375q-0.078125 -0.03125 -0.28125 -0.0625l0 -0.203125l0.953125 -0.046875l0.21875 0l0 2.46875zm0 1.71875q0 0.296875 0.03125 0.484375q0.03125 0.171875 0.09375 0.296875q0.0625 0.109375 0.1875 0.203125q0.125 0.09375 0.265625 0.140625q0.15625 0.03125 0.34375 0.03125q0.46875 0 0.703125 -0.375q0.25 -0.390625 0.25 -1.15625q0 -0.765625 -0.21875 -1.15625q-0.21875 -0.390625 -0.65625 -0.390625q-0.234375 0 -0.390625 0.078125q-0.15625 0.0625 -0.3125 0.203125q-0.140625 0.140625 -0.21875 0.28125q-0.078125 0.140625 -0.078125 0.328125l0 1.03125z"/><path fill="#000" fill-opacity="0" fill-rule="evenodd" d="m390.1811 162.68968l47.62207 0l0 31.401566l-47.62207 0z"/><path fill="#434343" fill-rule="nonzero" d="m405.41547 181.20593l-2.046875 5.890625l-1.078125 0l-1.875 -5.8125q-0.1875 -0.5625 -0.3125 -0.78125q-0.109375 -0.234375 -0.25 -0.34375q-0.140625 -0.125 -0.4375 -0.203125l0 -0.375l3.078125 0l0 0.375q-0.453125 0.09375 -0.609375 0.25q-0.15625 0.15625 -0.15625 0.453125q0 0.21875 0.046875 0.453125q0.046875 0.21875 0.140625 0.53125l1.21875 3.984375l2.015625 -6.046875l1.09375 0l1.703125 6.046875l1.375 -3.828125q0.109375 -0.296875 0.171875 -0.5625q0.078125 -0.265625 0.078125 -0.5q0 -0.328125 -0.171875 -0.5q-0.171875 -0.1875 -0.59375 -0.28125l0 -0.375l2.71875 0l0 0.375q-0.21875 0.0625 -0.328125 0.125q-0.109375 0.046875 -0.21875 0.171875q-0.09375 0.109375 -0.234375 0.34375q-0.125 0.234375 -0.3125 0.734375l-2.265625 5.765625l-1.046875 0l-1.703125 -5.890625z"/><path fill="#434343" fill-rule="nonzero" d="m414.8686 183.40906l0 0.8125l-0.5 0q-0.0625 -0.25 -0.171875 -0.390625q-0.09375 -0.15625 -0.21875 -0.21875q-0.125 -0.0625 -0.328125 -0.0625q-0.265625 0 -0.484375 0.1875q-0.203125 0.171875 -0.328125 0.53125q-0.125 0.359375 -0.125 0.875q0 0.328125 0.046875 0.609375q0.046875 0.28125 0.15625 0.484375q0.125 0.1875 0.3125 0.296875q0.1875 0.109375 0.453125 0.109375q0.28125 0 0.5 -0.109375q0.234375 -0.109375 0.484375 -0.375l0.234375 0.265625q-0.203125 0.21875 -0.359375 0.34375q-0.15625 0.109375 -0.328125 0.1875q-0.171875 0.078125 -0.34375 0.109375q-0.171875 0.046875 -0.359375 0.046875q-0.75 0 -1.140625 -0.484375q-0.390625 -0.5 -0.390625 -1.421875q0 -0.578125 0.21875 -1.015625q0.21875 -0.453125 0.609375 -0.6875q0.40625 -0.25 0.921875 -0.25q0.3125 0 0.578125 0.03125q0.28125 0.03125 0.5625 0.125z"/><path fill="#000" fill-opacity="0" fill-rule="evenodd" d="m427.6929 42.726547l16.692932 -22.17323"/><path fill-rule="evenodd" stroke="#bf9000" stroke-dasharray="2 6" stroke-linecap="butt" stroke-linejoin="round" stroke-width="2" d="m427.6929 42.726547l16.692932 -22.17323"/><path fill="#000" fill-opacity="0" fill-rule="evenodd" d="m242.28346 23.208443l15.464554 22.456692"/><path fill-rule="evenodd" stroke="#bf9000" stroke-dasharray="2 6" stroke-linecap="butt" stroke-linejoin="round" stroke-width="2" d="m242.28346 23.208443l15.464554 22.456692"/></g></svg>