<svg xmlns="http://www.w3.org/2000/svg" xmlns:xlink="http://www.w3.org/1999/xlink" width="425" height="393" fill="none" stroke="none" stroke-linecap="square" stroke-miterlimit="10" version="1.1" viewBox="0 0 425 393"><path fill="#fff" fill-rule="nonzero" d="M0 0L425.0 0L425.0 393.0L0 393.0L0 0Z"/><path fill-rule="nonzero" stroke="#ccc" stroke-linecap="butt" stroke-width="1" d="M46.5 27.5L46.5 352.5"/><path fill-rule="nonzero" stroke="#ccc" stroke-linecap="butt" stroke-width="1" d="M91.5 27.5L91.5 352.5"/><path fill-rule="nonzero" stroke="#ccc" stroke-linecap="butt" stroke-width="1" d="M136.5 27.5L136.5 352.5"/><path fill-rule="nonzero" stroke="#ccc" stroke-linecap="butt" stroke-width="1" d="M181.5 27.5L181.5 352.5"/><path fill-rule="nonzero" stroke="#333" stroke-linecap="butt" stroke-width="1" d="M226.5 27.5L226.5 352.5"/><path fill-rule="nonzero" stroke="#ccc" stroke-linecap="butt" stroke-width="1" d="M270.5 27.5L270.5 352.5"/><path fill-rule="nonzero" stroke="#ccc" stroke-linecap="butt" stroke-width="1" d="M315.5 27.5L315.5 352.5"/><path fill-rule="nonzero" stroke="#ccc" stroke-linecap="butt" stroke-width="1" d="M360.5 27.5L360.5 352.5"/><path fill-rule="nonzero" stroke="#ccc" stroke-linecap="butt" stroke-width="1" d="M405.5 27.5L405.5 352.5"/><path fill-rule="nonzero" stroke="#ccc" stroke-linecap="butt" stroke-width="1" d="M46.5 352.5L405.5 352.5"/><path fill-rule="nonzero" stroke="#ccc" stroke-linecap="butt" stroke-width="1" d="M46.5 311.5L405.5 311.5"/><path fill-rule="nonzero" stroke="#ccc" stroke-linecap="butt" stroke-width="1" d="M46.5 271.5L405.5 271.5"/><path fill-rule="nonzero" stroke="#ccc" stroke-linecap="butt" stroke-width="1" d="M46.5 230.5L405.5 230.5"/><path fill-rule="nonzero" stroke="#333" stroke-linecap="butt" stroke-width="1" d="M46.5 189.5L405.5 189.5"/><path fill-rule="nonzero" stroke="#ccc" stroke-linecap="butt" stroke-width="1" d="M46.5 149.5L405.5 149.5"/><path fill-rule="nonzero" stroke="#ccc" stroke-linecap="butt" stroke-width="1" d="M46.5 108.5L405.5 108.5"/><path fill-rule="nonzero" stroke="#ccc" stroke-linecap="butt" stroke-width="1" d="M46.5 67.5L405.5 67.5"/><path fill-rule="nonzero" stroke="#ccc" stroke-linecap="butt" stroke-width="1" d="M46.5 27.5L405.5 27.5"/><clipPath id="id_0"><path d="M46.65 27.15L405.35 27.15L405.35 352.35L46.65 352.35L46.65 27.15Z" clip-rule="nonzero"/></clipPath><path fill="#c00" fill-rule="nonzero" d="M124.41884 262.5338C124.41884 264.46683 122.85183 266.0338 120.91884 266.0338C118.98584 266.0338 117.41884 264.46683 117.41884 262.5338C117.41884 260.60083 118.98584 259.0338 120.91884 259.0338C122.85183 259.0338 124.41884 260.60083 124.41884 262.5338Z" clip-path="url(#id_0)"/><path fill="#c00" fill-rule="nonzero" d="M314.38635 127.72217C314.38635 129.65517 312.81937 131.22217 310.88635 131.22217C308.95337 131.22217 307.38635 129.65517 307.38635 127.72217C307.38635 125.78917 308.95337 124.22217 310.88635 124.22217C312.81937 124.22217 314.38635 125.78917 314.38635 127.72217Z" clip-path="url(#id_0)"/><path fill="#c00" fill-rule="nonzero" d="M297.1598 183.3956C297.1598 185.32858 295.59277 186.8956 293.6598 186.8956C291.72678 186.8956 290.1598 185.32858 290.1598 183.3956C290.1598 181.4626 291.72678 179.8956 293.6598 179.8956C295.59277 179.8956 297.1598 181.4626 297.1598 183.3956Z" clip-path="url(#id_0)"/><path fill="#c00" fill-rule="nonzero" d="M210.99019 165.94292C210.99019 167.87592 209.42319 169.44292 207.49019 169.44292C205.55719 169.44292 203.99019 167.87592 203.99019 165.94292C203.99019 164.00992 205.55719 162.44292 207.49019 162.44292C209.42319 162.44292 210.99019 164.00992 210.99019 165.94292Z" clip-path="url(#id_0)"/><path fill="#c00" fill-rule="nonzero" d="M126.26166 276.2979C126.26166 278.23093 124.69466 279.7979 122.76166 279.7979C120.82866 279.7979 119.26166 278.23093 119.26166 276.2979C119.26166 274.36493 120.82866 272.7979 122.76166 272.7979C124.69466 272.7979 126.26166 274.36493 126.26166 276.2979Z" clip-path="url(#id_0)"/><path fill="#c00" fill-rule="nonzero" d="M296.28546 180.81554C296.28546 182.74854 294.71844 184.31554 292.78546 184.31554C290.85245 184.31554 289.28546 182.74854 289.28546 180.81554C289.28546 178.88254 290.85245 177.31554 292.78546 177.31554C294.71844 177.31554 296.28546 178.88254 296.28546 180.81554Z" clip-path="url(#id_0)"/><path fill="#c00" fill-rule="nonzero" d="M326.57318 168.662C326.57318 170.595 325.0062 172.162 323.07318 172.162C321.1402 172.162 319.57318 170.595 319.57318 168.662C319.57318 166.729 321.1402 165.162 323.07318 165.162C325.0062 165.162 326.57318 166.729 326.57318 168.662Z" clip-path="url(#id_0)"/><path fill="#c00" fill-rule="nonzero" d="M141.21048 251.0502C141.21048 252.9832 139.64348 254.5502 137.71048 254.5502C135.77748 254.5502 134.21048 252.9832 134.21048 251.0502C134.21048 249.1172 135.77748 247.5502 137.71048 247.5502C139.64348 247.5502 141.21048 249.1172 141.21048 251.0502Z" clip-path="url(#id_0)"/><path fill="#c00" fill-rule="nonzero" d="M224.06659 222.85211C224.06659 224.78511 222.49959 226.35211 220.56659 226.35211C218.63359 226.35211 217.06659 224.78511 217.06659 222.85211C217.06659 220.91911 218.63359 219.35211 220.56659 219.35211C222.49959 219.35211 224.06659 220.91911 224.06659 222.85211Z" clip-path="url(#id_0)"/><path fill="#c00" fill-rule="nonzero" d="M178.72601 239.09503C178.72601 241.02803 177.15901 242.59503 175.22601 242.59503C173.29301 242.59503 171.72601 241.02803 171.72601 239.09503C171.72601 237.16203 173.29301 235.59503 175.22601 235.59503C177.15901 235.59503 178.72601 237.16203 178.72601 239.09503Z" clip-path="url(#id_0)"/><path fill="#c00" fill-rule="nonzero" d="M267.95218 149.89024C267.95218 151.82323 266.3852 153.39024 264.45218 153.39024C262.5192 153.39024 260.95218 151.82323 260.95218 149.89024C260.95218 147.95724 262.5192 146.39024 264.45218 146.39024C266.3852 146.39024 267.95218 147.95724 267.95218 149.89024Z" clip-path="url(#id_0)"/><path fill="#c00" fill-rule="nonzero" d="M251.0888 188.73245C251.0888 190.66545 249.5218 192.23245 247.5888 192.23245C245.6558 192.23245 244.0888 190.66545 244.0888 188.73245C244.0888 186.79945 245.6558 185.23245 247.5888 185.23245C249.5218 185.23245 251.0888 186.79945 251.0888 188.73245Z" clip-path="url(#id_0)"/><path fill="#c00" fill-rule="nonzero" d="M164.93848 225.0464C164.93848 226.97939 163.37148 228.5464 161.43848 228.5464C159.5055 228.5464 157.93848 226.97939 157.93848 225.0464C157.93848 223.1134 159.5055 221.5464 161.43848 221.5464C163.37148 221.5464 164.93848 223.1134 164.93848 225.0464Z" clip-path="url(#id_0)"/><path fill="#c00" fill-rule="nonzero" d="M288.76172 150.1191C288.76172 152.0521 287.19473 153.6191 285.26172 153.6191C283.32874 153.6191 281.76172 152.0521 281.76172 150.1191C281.76172 148.1861 283.32874 146.6191 285.26172 146.6191C287.19473 146.6191 288.76172 148.1861 288.76172 150.1191Z" clip-path="url(#id_0)"/><path fill="#c00" fill-rule="nonzero" d="M265.12296 153.59467C265.12296 155.52766 263.55594 157.09467 261.62296 157.09467C259.68994 157.09467 258.12296 155.52766 258.12296 153.59467C258.12296 151.66167 259.68994 150.09467 261.62296 150.09467C263.55594 150.09467 265.12296 151.66167 265.12296 153.59467Z" clip-path="url(#id_0)"/><path fill="#c00" fill-rule="nonzero" d="M214.8184 194.22191C214.8184 196.1549 213.2514 197.72191 211.3184 197.72191C209.3854 197.72191 207.8184 196.1549 207.8184 194.22191C207.8184 192.28891 209.3854 190.72191 211.3184 190.72191C213.2514 190.72191 214.8184 192.28891 214.8184 194.22191Z" clip-path="url(#id_0)"/><path fill="#c00" fill-rule="nonzero" d="M257.08627 155.0979C257.08627 157.0309 255.51927 158.5979 253.58627 158.5979C251.65327 158.5979 250.08627 157.0309 250.08627 155.0979C250.08627 153.16492 251.65327 151.5979 253.58627 151.5979C255.51927 151.5979 257.08627 153.16492 257.08627 155.0979Z" clip-path="url(#id_0)"/><path fill="#c00" fill-rule="nonzero" d="M323.865 107.85245C323.865 109.78544 322.298 111.35245 320.365 111.35245C318.432 111.35245 316.865 109.78544 316.865 107.85245C316.865 105.91945 318.432 104.35245 320.365 104.35245C322.298 104.35245 323.865 105.91945 323.865 107.85245Z" clip-path="url(#id_0)"/><path fill="#c00" fill-rule="nonzero" d="M235.16118 197.05399C235.16118 198.98698 233.59418 200.55399 231.66118 200.55399C229.72818 200.55399 228.16118 198.98698 228.16118 197.05399C228.16118 195.121 229.72818 193.55399 231.66118 193.55399C233.59418 193.55399 235.16118 195.121 235.16118 197.05399Z" clip-path="url(#id_0)"/><path fill="#c00" fill-rule="nonzero" d="M282.2289 119.99053C282.2289 121.92353 280.6619 123.49053 278.7289 123.49053C276.7959 123.49053 275.2289 121.92353 275.2289 119.99053C275.2289 118.05754 276.7959 116.49053 278.7289 116.49053C280.6619 116.49053 282.2289 118.05754 282.2289 119.99053Z" clip-path="url(#id_0)"/><path fill="#c00" fill-rule="nonzero" d="M201.77115 242.5706C201.77115 244.5036 200.20415 246.0706 198.27115 246.0706C196.33815 246.0706 194.77115 244.5036 194.77115 242.5706C194.77115 240.63762 196.33815 239.0706 198.27115 239.0706C200.20415 239.0706 201.77115 240.63762 201.77115 242.5706Z" clip-path="url(#id_0)"/><path fill="#c00" fill-rule="nonzero" d="M209.60963 210.41037C209.60963 212.34335 208.04263 213.91037 206.10963 213.91037C204.17664 213.91037 202.60963 212.34335 202.60963 210.41037C202.60963 208.47737 204.17664 206.91037 206.10963 206.91037C208.04263 206.91037 209.60963 208.47737 209.60963 210.41037Z" clip-path="url(#id_0)"/><path fill="#c00" fill-rule="nonzero" d="M45.85457 285.54987C45.85457 287.48285 44.287563 289.04987 42.35457 289.04987C40.42157 289.04987 38.85457 287.48285 38.85457 285.54987C38.85457 283.61685 40.42157 282.04987 42.35457 282.04987C44.287563 282.04987 45.85457 283.61685 45.85457 285.54987Z" clip-path="url(#id_0)"/><path fill="#c00" fill-rule="nonzero" d="M128.3735 256.42007C128.3735 258.35306 126.806496 259.92007 124.873505 259.92007C122.940506 259.92007 121.373505 258.35306 121.373505 256.42007C121.373505 254.48708 122.940506 252.92006 124.873505 252.92006C126.806496 252.92006 128.3735 254.48708 128.3735 256.42007Z" clip-path="url(#id_0)"/><path fill="#c00" fill-rule="nonzero" d="M356.695 107.61668C356.695 109.549675 355.12802 111.11668 353.195 111.11668C351.26202 111.11668 349.695 109.549675 349.695 107.61668C349.695 105.68368 351.26202 104.11668 353.195 104.11668C355.12802 104.11668 356.695 105.68368 356.695 107.61668Z" clip-path="url(#id_0)"/><path fill="#c00" fill-rule="nonzero" d="M240.68202 177.85458C240.68202 179.78758 239.11502 181.35458 237.18202 181.35458C235.24902 181.35458 233.68202 179.78758 233.68202 177.85458C233.68202 175.9216 235.24902 174.35458 237.18202 174.35458C239.11502 174.35458 240.68202 175.9216 240.68202 177.85458Z" clip-path="url(#id_0)"/><path fill="#c00" fill-rule="nonzero" d="M313.104 149.64674C313.104 151.57974 311.537 153.14674 309.604 153.14674C307.67102 153.14674 306.104 151.57974 306.104 149.64674C306.104 147.71375 307.67102 146.14674 309.604 146.14674C311.537 146.14674 313.104 147.71375 313.104 149.64674Z" clip-path="url(#id_0)"/><path fill="#c00" fill-rule="nonzero" d="M344.37817 141.2139C344.37817 143.1469 342.81116 144.7139 340.87817 144.7139C338.94516 144.7139 337.37817 143.1469 337.37817 141.2139C337.37817 139.2809 338.94516 137.7139 340.87817 137.7139C342.81116 137.7139 344.37817 139.2809 344.37817 141.2139Z" clip-path="url(#id_0)"/><path fill="#c00" fill-rule="nonzero" d="M200.68204 216.06721C200.68204 218.00021 199.11504 219.56721 197.18204 219.56721C195.24904 219.56721 193.68204 218.00021 193.68204 216.06721C193.68204 214.13422 195.24904 212.56721 197.18204 212.56721C199.11504 212.56721 200.68204 214.13422 200.68204 216.06721Z" clip-path="url(#id_0)"/><path fill="#c00" fill-rule="nonzero" d="M221.5956 212.7827C221.5956 214.7157 220.0286 216.2827 218.0956 216.2827C216.1626 216.2827 214.5956 214.7157 214.5956 212.7827C214.5956 210.8497 216.1626 209.2827 218.0956 209.2827C220.0286 209.2827 221.5956 210.8497 221.5956 212.7827Z" clip-path="url(#id_0)"/><path fill="#c00" fill-rule="nonzero" d="M278.1397 124.87666C278.1397 126.80966 276.57272 128.37666 274.6397 128.37666C272.70673 128.37666 271.1397 126.80966 271.1397 124.87666C271.1397 122.94367 272.70673 121.37666 274.6397 121.37666C276.57272 121.37666 278.1397 122.94367 278.1397 124.87666Z" clip-path="url(#id_0)"/><path fill="#c00" fill-rule="nonzero" d="M201.37971 227.84027C201.37971 229.77327 199.81271 231.34027 197.87971 231.34027C195.94672 231.34027 194.37971 229.77327 194.37971 227.84027C194.37971 225.90727 195.94672 224.34027 197.87971 224.34027C199.81271 224.34027 201.37971 225.90727 201.37971 227.84027Z" clip-path="url(#id_0)"/><path fill="#c00" fill-rule="nonzero" d="M216.80292 233.83899C216.80292 235.77199 215.23592 237.33899 213.30292 237.33899C211.36992 237.33899 209.80292 235.77199 209.80292 233.83899C209.80292 231.90599 211.36992 230.33899 213.30292 230.33899C215.23592 230.33899 216.80292 231.90599 216.80292 233.83899Z" clip-path="url(#id_0)"/><path fill="#c00" fill-rule="nonzero" d="M202.6226 182.65617C202.6226 184.58917 201.0556 186.15617 199.1226 186.15617C197.1896 186.15617 195.6226 184.58917 195.6226 182.65617C195.6226 180.72318 197.1896 179.15617 199.1226 179.15617C201.0556 179.15617 202.6226 180.72318 202.6226 182.65617Z" clip-path="url(#id_0)"/><path fill="#c00" fill-rule="nonzero" d="M167.05032 234.9284C167.05032 236.8614 165.48332 238.4284 163.55032 238.4284C161.61734 238.4284 160.05032 236.8614 160.05032 234.9284C160.05032 232.9954 161.61734 231.4284 163.55032 231.4284C165.48332 231.4284 167.05032 232.9954 167.05032 234.9284Z" clip-path="url(#id_0)"/><path fill="#c00" fill-rule="nonzero" d="M190.70346 248.02583C190.70346 249.95883 189.13646 251.52583 187.20346 251.52583C185.27046 251.52583 183.70346 249.95883 183.70346 248.02583C183.70346 246.09285 185.27046 244.52583 187.20346 244.52583C189.13646 244.52583 190.70346 246.09285 190.70346 248.02583Z" clip-path="url(#id_0)"/><path fill="#c00" fill-rule="nonzero" d="M322.95032 152.6833C322.95032 154.61629 321.3833 156.1833 319.45032 156.1833C317.51733 156.1833 315.95032 154.61629 315.95032 152.6833C315.95032 150.7503 317.51733 149.1833 319.45032 149.1833C321.3833 149.1833 322.95032 150.7503 322.95032 152.6833Z" clip-path="url(#id_0)"/><path fill="#c00" fill-rule="nonzero" d="M207.30992 216.35501C207.30992 218.28801 205.74292 219.85501 203.80992 219.85501C201.87692 219.85501 200.30992 218.28801 200.30992 216.35501C200.30992 214.42203 201.87692 212.85501 203.80992 212.85501C205.74292 212.85501 207.30992 214.42203 207.30992 216.35501Z" clip-path="url(#id_0)"/><path fill="#c00" fill-rule="nonzero" d="M174.39023 212.9835C174.39023 214.9165 172.82323 216.4835 170.89023 216.4835C168.95723 216.4835 167.39023 214.9165 167.39023 212.9835C167.39023 211.0505 168.95723 209.4835 170.89023 209.4835C172.82323 209.4835 174.39023 211.0505 174.39023 212.9835Z" clip-path="url(#id_0)"/><path fill="#c00" fill-rule="nonzero" d="M212.75858 198.4239C212.75858 200.35689 211.19157 201.9239 209.25858 201.9239C207.32558 201.9239 205.75858 200.35689 205.75858 198.4239C205.75858 196.4909 207.32558 194.9239 209.25858 194.9239C211.19157 194.9239 212.75858 196.4909 212.75858 198.4239Z" clip-path="url(#id_0)"/><path fill="#c00" fill-rule="nonzero" d="M217.39253 209.19127C217.39253 211.12427 215.82553 212.69127 213.89253 212.69127C211.95953 212.69127 210.39253 211.12427 210.39253 209.19127C210.39253 207.25827 211.95953 205.69127 213.89253 205.69127C215.82553 205.69127 217.39253 207.25827 217.39253 209.19127Z" clip-path="url(#id_0)"/><path fill="#c00" fill-rule="nonzero" d="M263.15997 173.3839C263.15997 175.3169 261.59296 176.8839 259.65997 176.8839C257.72696 176.8839 256.15997 175.3169 256.15997 173.3839C256.15997 171.45091 257.72696 169.8839 259.65997 169.8839C261.59296 169.8839 263.15997 171.45091 263.15997 173.3839Z" clip-path="url(#id_0)"/><path fill="#c00" fill-rule="nonzero" d="M164.50804 265.30615C164.50804 267.23917 162.94104 268.80615 161.00804 268.80615C159.07504 268.80615 157.50804 267.23917 157.50804 265.30615C157.50804 263.37317 159.07504 261.80615 161.00804 261.80615C162.94104 261.80615 164.50804 263.37317 164.50804 265.30615Z" clip-path="url(#id_0)"/><path fill="#c00" fill-rule="nonzero" d="M316.2292 154.5902C316.2292 156.52318 314.66217 158.0902 312.7292 158.0902C310.79617 158.0902 309.2292 156.52318 309.2292 154.5902C309.2292 152.6572 310.79617 151.0902 312.7292 151.0902C314.66217 151.0902 316.2292 152.6572 316.2292 154.5902Z" clip-path="url(#id_0)"/><path fill="#c00" fill-rule="nonzero" d="M271.69073 173.98065C271.69073 175.91364 270.12375 177.48065 268.19073 177.48065C266.25775 177.48065 264.69073 175.91364 264.69073 173.98065C264.69073 172.04765 266.25775 170.48065 268.19073 170.48065C270.12375 170.48065 271.69073 172.04765 271.69073 173.98065Z" clip-path="url(#id_0)"/><path fill="#c00" fill-rule="nonzero" d="M226.10747 210.80954C226.10747 212.74254 224.54045 214.30954 222.60747 214.30954C220.67447 214.30954 219.10747 212.74254 219.10747 210.80954C219.10747 208.87656 220.67447 207.30954 222.60747 207.30954C224.54045 207.30954 226.10747 208.87656 226.10747 210.80954Z" clip-path="url(#id_0)"/><path fill="#c00" fill-rule="nonzero" d="M116.54985 294.66357C116.54985 296.5966 114.98285 298.16357 113.04985 298.16357C111.11686 298.16357 109.54985 296.5966 109.54985 294.66357C109.54985 292.7306 111.11686 291.16357 113.04985 291.16357C114.98285 291.16357 116.54985 292.7306 116.54985 294.66357Z" clip-path="url(#id_0)"/><path fill="#c00" fill-rule="nonzero" d="M184.93646 219.544C184.93646 221.477 183.36946 223.044 181.43646 223.044C179.50346 223.044 177.93646 221.477 177.93646 219.544C177.93646 217.61101 179.50346 216.044 181.43646 216.044C183.36946 216.044 184.93646 217.61101 184.93646 219.544Z" clip-path="url(#id_0)"/><path fill="#c00" fill-rule="nonzero" d="M338.2354 105.29962C338.2354 107.23262 336.66843 108.79962 334.7354 108.79962C332.80243 108.79962 331.2354 107.23262 331.2354 105.29962C331.2354 103.36663 332.80243 101.79962 334.7354 101.79962C336.66843 101.79962 338.2354 103.36663 338.2354 105.29962Z" clip-path="url(#id_0)"/><path fill="#c00" fill-rule="nonzero" d="M167.001 213.1892C167.001 215.1222 165.434 216.6892 163.501 216.6892C161.56801 216.6892 160.001 215.1222 160.001 213.1892C160.001 211.2562 161.56801 209.6892 163.501 209.6892C165.434 209.6892 167.001 211.2562 167.001 213.1892Z" clip-path="url(#id_0)"/><path fill="#c00" fill-rule="nonzero" d="M235.49254 204.49457C235.49254 206.42757 233.92552 207.99457 231.99254 207.99457C230.05954 207.99457 228.49254 206.42757 228.49254 204.49457C228.49254 202.56157 230.05954 200.99457 231.99254 200.99457C233.92552 200.99457 235.49254 202.56157 235.49254 204.49457Z" clip-path="url(#id_0)"/><path fill="#c00" fill-rule="nonzero" d="M168.64655 267.9728C168.64655 269.9058 167.07954 271.4728 165.14655 271.4728C163.21355 271.4728 161.64655 269.9058 161.64655 267.9728C161.64655 266.0398 163.21355 264.4728 165.14655 264.4728C167.07954 264.4728 168.64655 266.0398 168.64655 267.9728Z" clip-path="url(#id_0)"/><path fill="#c00" fill-rule="nonzero" d="M257.44452 144.74638C257.44452 146.67938 255.87752 148.24638 253.94452 148.24638C252.01152 148.24638 250.44452 146.67938 250.44452 144.74638C250.44452 142.81339 252.01152 141.24638 253.94452 141.24638C255.87752 141.24638 257.44452 142.81339 257.44452 144.74638Z" clip-path="url(#id_0)"/><path fill="#c00" fill-rule="nonzero" d="M277.3685 198.64015C277.3685 200.57315 275.8015 202.14015 273.8685 202.14015C271.93552 202.14015 270.3685 200.57315 270.3685 198.64015C270.3685 196.70715 271.93552 195.14015 273.8685 195.14015C275.8015 195.14015 277.3685 196.70715 277.3685 198.64015Z" clip-path="url(#id_0)"/><path fill="#c00" fill-rule="nonzero" d="M224.49031 167.1169C224.49031 169.0499 222.92331 170.6169 220.99031 170.6169C219.05731 170.6169 217.49031 169.0499 217.49031 167.1169C217.49031 165.1839 219.05731 163.6169 220.99031 163.6169C222.92331 163.6169 224.49031 165.1839 224.49031 167.1169Z" clip-path="url(#id_0)"/><path fill="#c00" fill-rule="nonzero" d="M209.73518 237.88773C209.73518 239.82072 208.16818 241.38773 206.23518 241.38773C204.30219 241.38773 202.73518 239.82072 202.73518 237.88773C202.73518 235.95473 204.30219 234.38773 206.23518 234.38773C208.16818 234.38773 209.73518 235.95473 209.73518 237.88773Z" clip-path="url(#id_0)"/><path fill="#c00" fill-rule="nonzero" d="M232.83475 170.92621C232.83475 172.8592 231.26775 174.42621 229.33475 174.42621C227.40175 174.42621 225.83475 172.8592 225.83475 170.92621C225.83475 168.99321 227.40175 167.42621 229.33475 167.42621C231.26775 167.42621 232.83475 168.99321 232.83475 170.92621Z" clip-path="url(#id_0)"/><path fill="#c00" fill-rule="nonzero" d="M256.61145 145.54312C256.61145 147.47612 255.04443 149.04312 253.11145 149.04312C251.17845 149.04312 249.61145 147.47612 249.61145 145.54312C249.61145 143.61012 251.17845 142.04312 253.11145 142.04312C255.04443 142.04312 256.61145 143.61012 256.61145 145.54312Z" clip-path="url(#id_0)"/><path fill="#c00" fill-rule="nonzero" d="M307.81766 161.54012C307.81766 163.47311 306.25067 165.04012 304.31766 165.04012C302.38467 165.04012 300.81766 163.47311 300.81766 161.54012C300.81766 159.60712 302.38467 158.04012 304.31766 158.04012C306.25067 158.04012 307.81766 159.60712 307.81766 161.54012Z" clip-path="url(#id_0)"/><path fill="#c00" fill-rule="nonzero" d="M164.00586 229.35733C164.00586 231.29033 162.43886 232.85733 160.50586 232.85733C158.57286 232.85733 157.00586 231.29033 157.00586 229.35733C157.00586 227.42433 158.57286 225.85733 160.50586 225.85733C162.43886 225.85733 164.00586 227.42433 164.00586 229.35733Z" clip-path="url(#id_0)"/><path fill="#c00" fill-rule="nonzero" d="M292.30838 172.38919C292.30838 174.32219 290.74136 175.88919 288.80838 175.88919C286.87537 175.88919 285.30838 174.32219 285.30838 172.38919C285.30838 170.4562 286.87537 168.88919 288.80838 168.88919C290.74136 168.88919 292.30838 170.4562 292.30838 172.38919Z" clip-path="url(#id_0)"/><path fill="#c00" fill-rule="nonzero" d="M275.58398 151.37071C275.58398 153.30371 274.01697 154.87071 272.08398 154.87071C270.151 154.87071 268.58398 153.30371 268.58398 151.37071C268.58398 149.43771 270.151 147.87071 272.08398 147.87071C274.01697 147.87071 275.58398 149.43771 275.58398 151.37071Z" clip-path="url(#id_0)"/><path fill="#c00" fill-rule="nonzero" d="M172.82092 192.09157C172.82092 194.02455 171.2539 195.59157 169.32092 195.59157C167.38792 195.59157 165.82092 194.02455 165.82092 192.09157C165.82092 190.15857 167.38792 188.59157 169.32092 188.59157C171.2539 188.59157 172.82092 190.15857 172.82092 192.09157Z" clip-path="url(#id_0)"/><path fill="#c00" fill-rule="nonzero" d="M153.11484 212.41034C153.11484 214.34334 151.54784 215.91034 149.61484 215.91034C147.68184 215.91034 146.11484 214.34334 146.11484 212.41034C146.11484 210.47734 147.68184 208.91034 149.61484 208.91034C151.54784 208.91034 153.11484 210.47734 153.11484 212.41034Z" clip-path="url(#id_0)"/><path fill="#c00" fill-rule="nonzero" d="M179.12508 214.78716C179.12508 216.72014 177.55806 218.28716 175.62508 218.28716C173.69208 218.28716 172.12508 216.72014 172.12508 214.78716C172.12508 212.85416 173.69208 211.28716 175.62508 211.28716C177.55806 211.28716 179.12508 212.85416 179.12508 214.78716Z" clip-path="url(#id_0)"/><path fill="#c00" fill-rule="nonzero" d="M301.30276 149.0187C301.30276 150.95169 299.73578 152.5187 297.80276 152.5187C295.86978 152.5187 294.30276 150.95169 294.30276 149.0187C294.30276 147.08571 295.86978 145.5187 297.80276 145.5187C299.73578 145.5187 301.30276 147.08571 301.30276 149.0187Z" clip-path="url(#id_0)"/><path fill="#c00" fill-rule="nonzero" d="M255.8093 164.22221C255.8093 166.1552 254.2423 167.72221 252.3093 167.72221C250.3763 167.72221 248.8093 166.1552 248.8093 164.22221C248.8093 162.28922 250.3763 160.72221 252.3093 160.72221C254.2423 160.72221 255.8093 162.28922 255.8093 164.22221Z" clip-path="url(#id_0)"/><path fill="#c00" fill-rule="nonzero" d="M235.87096 192.24518C235.87096 194.17818 234.30396 195.74518 232.37096 195.74518C230.43796 195.74518 228.87096 194.17818 228.87096 192.24518C228.87096 190.31218 230.43796 188.74518 232.37096 188.74518C234.30396 188.74518 235.87096 190.31218 235.87096 192.24518Z" clip-path="url(#id_0)"/><path fill="#c00" fill-rule="nonzero" d="M240.54572 193.60898C240.54572 195.54198 238.97871 197.10898 237.04572 197.10898C235.11272 197.10898 233.54572 195.54198 233.54572 193.60898C233.54572 191.676 235.11272 190.10898 237.04572 190.10898C238.97871 190.10898 240.54572 191.676 240.54572 193.60898Z" clip-path="url(#id_0)"/><path fill="#c00" fill-rule="nonzero" d="M185.91122 220.39644C185.91122 222.32944 184.34422 223.89644 182.41122 223.89644C180.47823 223.89644 178.91122 222.32944 178.91122 220.39644C178.91122 218.46344 180.47823 216.89644 182.41122 216.89644C184.34422 216.89644 185.91122 218.46344 185.91122 220.39644Z" clip-path="url(#id_0)"/><path fill="#c00" fill-rule="nonzero" d="M250.14632 169.61646C250.14632 171.54945 248.57932 173.11646 246.64632 173.11646C244.71333 173.11646 243.14632 171.54945 243.14632 169.61646C243.14632 167.68347 244.71333 166.11646 246.64632 166.11646C248.57932 166.11646 250.14632 167.68347 250.14632 169.61646Z" clip-path="url(#id_0)"/><path fill="#c00" fill-rule="nonzero" d="M141.29567 239.10316C141.29567 241.03616 139.72867 242.60316 137.79567 242.60316C135.86267 242.60316 134.29567 241.03616 134.29567 239.10316C134.29567 237.17017 135.86267 235.60316 137.79567 235.60316C139.72867 235.60316 141.29567 237.17017 141.29567 239.10316Z" clip-path="url(#id_0)"/><path fill="#c00" fill-rule="nonzero" d="M229.4935 217.0477C229.4935 218.9807 227.9265 220.5477 225.9935 220.5477C224.0605 220.5477 222.4935 218.9807 222.4935 217.0477C222.4935 215.1147 224.0605 213.5477 225.9935 213.5477C227.9265 213.5477 229.4935 215.1147 229.4935 217.0477Z" clip-path="url(#id_0)"/><path fill="#c00" fill-rule="nonzero" d="M256.06488 152.87761C256.06488 154.81061 254.49786 156.37761 252.56488 156.37761C250.63188 156.37761 249.06488 154.81061 249.06488 152.87761C249.06488 150.94461 250.63188 149.37761 252.56488 149.37761C254.49786 149.37761 256.06488 150.94461 256.06488 152.87761Z" clip-path="url(#id_0)"/><path fill="#c00" fill-rule="nonzero" d="M266.2923 144.6976C266.2923 146.6306 264.7253 148.1976 262.7923 148.1976C260.8593 148.1976 259.2923 146.6306 259.2923 144.6976C259.2923 142.7646 260.8593 141.1976 262.7923 141.1976C264.7253 141.1976 266.2923 142.7646 266.2923 144.6976Z" clip-path="url(#id_0)"/><path fill="#c00" fill-rule="nonzero" d="M262.0018 145.67728C262.0018 147.61026 260.4348 149.17728 258.5018 149.17728C256.56882 149.17728 255.0018 147.61026 255.0018 145.67728C255.0018 143.74428 256.56882 142.17728 258.5018 142.17728C260.4348 142.17728 262.0018 143.74428 262.0018 145.67728Z" clip-path="url(#id_0)"/><path fill="#c00" fill-rule="nonzero" d="M210.01631 205.31732C210.01631 207.25032 208.44931 208.81732 206.51631 208.81732C204.58331 208.81732 203.01631 207.25032 203.01631 205.31732C203.01631 203.38432 204.58331 201.81732 206.51631 201.81732C208.44931 201.81732 210.01631 203.38432 210.01631 205.31732Z" clip-path="url(#id_0)"/><path fill="#c00" fill-rule="nonzero" d="M284.7936 176.2485C284.7936 178.1815 283.2266 179.7485 281.2936 179.7485C279.3606 179.7485 277.7936 178.1815 277.7936 176.2485C277.7936 174.3155 279.3606 172.7485 281.2936 172.7485C283.2266 172.7485 284.7936 174.3155 284.7936 176.2485Z" clip-path="url(#id_0)"/><path fill="#c00" fill-rule="nonzero" d="M201.8958 190.5173C201.8958 192.4503 200.3288 194.0173 198.3958 194.0173C196.4628 194.0173 194.8958 192.4503 194.8958 190.5173C194.8958 188.58432 196.4628 187.0173 198.3958 187.0173C200.3288 187.0173 201.8958 188.58432 201.8958 190.5173Z" clip-path="url(#id_0)"/><path fill="#c00" fill-rule="nonzero" d="M268.76016 192.79436C268.76016 194.72736 267.19315 196.29436 265.26016 196.29436C263.32718 196.29436 261.76016 194.72736 261.76016 192.79436C261.76016 190.86136 263.32718 189.29436 265.26016 189.29436C267.19315 189.29436 268.76016 190.86136 268.76016 192.79436Z" clip-path="url(#id_0)"/><path fill="#c00" fill-rule="nonzero" d="M191.95352 242.61533C191.95352 244.54832 190.38652 246.11533 188.45352 246.11533C186.52052 246.11533 184.95352 244.54832 184.95352 242.61533C184.95352 240.68233 186.52052 239.11533 188.45352 239.11533C190.38652 239.11533 191.95352 240.68233 191.95352 242.61533Z" clip-path="url(#id_0)"/><path fill="#c00" fill-rule="nonzero" d="M190.41336 223.4887C190.41336 225.42168 188.84636 226.9887 186.91336 226.9887C184.98036 226.9887 183.41336 225.42168 183.41336 223.4887C183.41336 221.5557 184.98036 219.9887 186.91336 219.9887C188.84636 219.9887 190.41336 221.5557 190.41336 223.4887Z" clip-path="url(#id_0)"/><path fill="#c00" fill-rule="nonzero" d="M268.0674 190.86438C268.0674 192.79738 266.50043 194.36438 264.5674 194.36438C262.63443 194.36438 261.0674 192.79738 261.0674 190.86438C261.0674 188.93138 262.63443 187.36438 264.5674 187.36438C266.50043 187.36438 268.0674 188.93138 268.0674 190.86438Z" clip-path="url(#id_0)"/><path fill="#c00" fill-rule="nonzero" d="M285.38995 153.5524C285.38995 155.4854 283.82294 157.0524 281.88995 157.0524C279.95694 157.0524 278.38995 155.4854 278.38995 153.5524C278.38995 151.6194 279.95694 150.0524 281.88995 150.0524C283.82294 150.0524 285.38995 151.6194 285.38995 153.5524Z" clip-path="url(#id_0)"/><path fill="#c00" fill-rule="nonzero" d="M252.79308 203.29906C252.79308 205.23206 251.22607 206.79906 249.29308 206.79906C247.36009 206.79906 245.79308 205.23206 245.79308 203.29906C245.79308 201.36606 247.36009 199.79906 249.29308 199.79906C251.22607 199.79906 252.79308 201.36606 252.79308 203.29906Z" clip-path="url(#id_0)"/><path fill="#c00" fill-rule="nonzero" d="M229.62589 167.77745C229.62589 169.71045 228.05888 171.27745 226.12589 171.27745C224.19289 171.27745 222.62589 169.71045 222.62589 167.77745C222.62589 165.84445 224.19289 164.27745 226.12589 164.27745C228.05888 164.27745 229.62589 165.84445 229.62589 167.77745Z" clip-path="url(#id_0)"/><path fill="#c00" fill-rule="nonzero" d="M127.48572 231.85121C127.48572 233.7842 125.91872 235.35121 123.98572 235.35121C122.05273 235.35121 120.48572 233.7842 120.48572 231.85121C120.48572 229.91821 122.05273 228.35121 123.98572 228.35121C125.91872 228.35121 127.48572 229.91821 127.48572 231.85121Z" clip-path="url(#id_0)"/><path fill="#c00" fill-rule="nonzero" d="M272.3364 196.55156C272.3364 198.48456 270.7694 200.05156 268.8364 200.05156C266.9034 200.05156 265.3364 198.48456 265.3364 196.55156C265.3364 194.61856 266.9034 193.05156 268.8364 193.05156C270.7694 193.05156 272.3364 194.61856 272.3364 196.55156Z" clip-path="url(#id_0)"/><path fill="#c00" fill-rule="nonzero" d="M332.59933 138.05133C332.59933 139.98433 331.03235 141.55133 329.09933 141.55133C327.16635 141.55133 325.59933 139.98433 325.59933 138.05133C325.59933 136.11833 327.16635 134.55133 329.09933 134.55133C331.03235 134.55133 332.59933 136.11833 332.59933 138.05133Z" clip-path="url(#id_0)"/><path fill="#c00" fill-rule="nonzero" d="M294.15118 125.73438C294.15118 127.66737 292.5842 129.23438 290.65118 129.23438C288.7182 129.23438 287.15118 127.66737 287.15118 125.73438C287.15118 123.801384 288.7182 122.23438 290.65118 122.23438C292.5842 122.23438 294.15118 123.801384 294.15118 125.73438Z" clip-path="url(#id_0)"/><path fill="#c00" fill-rule="nonzero" d="M290.26825 135.20177C290.26825 137.13477 288.70126 138.70177 286.76825 138.70177C284.83527 138.70177 283.26825 137.13477 283.26825 135.20177C283.26825 133.26877 284.83527 131.70177 286.76825 131.70177C288.70126 131.70177 290.26825 133.26877 290.26825 135.20177Z" clip-path="url(#id_0)"/><path fill="#c00" fill-rule="nonzero" d="M170.6463 230.17603C170.6463 232.10901 169.0793 233.67603 167.1463 233.67603C165.2133 233.67603 163.6463 232.10901 163.6463 230.17603C163.6463 228.24303 165.2133 226.67603 167.1463 226.67603C169.0793 226.67603 170.6463 228.24303 170.6463 230.17603Z" clip-path="url(#id_0)"/><path fill="#c00" fill-rule="nonzero" d="M187.57649 226.24557C187.57649 228.17857 186.00949 229.74557 184.07649 229.74557C182.1435 229.74557 180.57649 228.17857 180.57649 226.24557C180.57649 224.31258 182.1435 222.74557 184.07649 222.74557C186.00949 222.74557 187.57649 224.31258 187.57649 226.24557Z" clip-path="url(#id_0)"/><path fill="#c00" fill-rule="nonzero" d="M230.3477 169.99734C230.3477 171.93034 228.7807 173.49734 226.8477 173.49734C224.9147 173.49734 223.3477 171.93034 223.3477 169.99734C223.3477 168.06436 224.9147 166.49734 226.8477 166.49734C228.7807 166.49734 230.3477 168.06436 230.3477 169.99734Z" clip-path="url(#id_0)"/><path fill="#c00" fill-rule="nonzero" d="M270.11157 150.6386C270.11157 152.5716 268.54456 154.1386 266.61157 154.1386C264.67856 154.1386 263.11157 152.5716 263.11157 150.6386C263.11157 148.70561 264.67856 147.1386 266.61157 147.1386C268.54456 147.1386 270.11157 148.70561 270.11157 150.6386Z" clip-path="url(#id_0)"/><path fill="#c00" fill-rule="nonzero" d="M296.3796 164.09741C296.3796 166.03041 294.81262 167.59741 292.8796 167.59741C290.94662 167.59741 289.3796 166.03041 289.3796 164.09741C289.3796 162.16441 290.94662 160.59741 292.8796 160.59741C294.81262 160.59741 296.3796 162.16441 296.3796 164.09741Z" clip-path="url(#id_0)"/><path fill="#c00" fill-rule="nonzero" d="M186.0296 186.7949C186.0296 188.7279 184.46259 190.2949 182.5296 190.2949C180.5966 190.2949 179.0296 188.7279 179.0296 186.7949C179.0296 184.86191 180.5966 183.2949 182.5296 183.2949C184.46259 183.2949 186.0296 184.86191 186.0296 186.7949Z" clip-path="url(#id_0)"/><path fill="#c00" fill-rule="nonzero" d="M174.23778 247.90388C174.23778 249.83688 172.67078 251.40388 170.73778 251.40388C168.80478 251.40388 167.23778 249.83688 167.23778 247.90388C167.23778 245.97089 168.80478 244.40388 170.73778 244.40388C172.67078 244.40388 174.23778 245.97089 174.23778 247.90388Z" clip-path="url(#id_0)"/><path fill="#c00" fill-rule="nonzero" d="M278.9737 179.65904C278.9737 181.59204 277.4067 183.15904 275.4737 183.15904C273.5407 183.15904 271.9737 181.59204 271.9737 179.65904C271.9737 177.72604 273.5407 176.15904 275.4737 176.15904C277.4067 176.15904 278.9737 177.72604 278.9737 179.65904Z" clip-path="url(#id_0)"/><path fill="#c00" fill-rule="nonzero" d="M305.81342 161.41858C305.81342 163.35158 304.24643 164.91858 302.31342 164.91858C300.38043 164.91858 298.81342 163.35158 298.81342 161.41858C298.81342 159.48558 300.38043 157.91858 302.31342 157.91858C304.24643 157.91858 305.81342 159.48558 305.81342 161.41858Z" clip-path="url(#id_0)"/><path fill="#c00" fill-rule="nonzero" d="M237.82991 171.60017C237.82991 173.53317 236.26291 175.10017 234.32991 175.10017C232.39691 175.10017 230.82991 173.53317 230.82991 171.60017C230.82991 169.66719 232.39691 168.10017 234.32991 168.10017C236.26291 168.10017 237.82991 169.66719 237.82991 171.60017Z" clip-path="url(#id_0)"/><path fill="#c00" fill-rule="nonzero" d="M145.56868 237.11945C145.56868 239.05244 144.00168 240.61945 142.06868 240.61945C140.13568 240.61945 138.56868 239.05244 138.56868 237.11945C138.56868 235.18645 140.13568 233.61945 142.06868 233.61945C144.00168 233.61945 145.56868 235.18645 145.56868 237.11945Z" clip-path="url(#id_0)"/><path fill="#c00" fill-rule="nonzero" d="M326.5956 159.95111C326.5956 161.88411 325.0286 163.45111 323.0956 163.45111C321.1626 163.45111 319.5956 161.88411 319.5956 159.95111C319.5956 158.01811 321.1626 156.45111 323.0956 156.45111C325.0286 156.45111 326.5956 158.01811 326.5956 159.95111Z" clip-path="url(#id_0)"/><path fill="#c00" fill-rule="nonzero" d="M285.17023 147.3927C285.17023 149.3257 283.60324 150.8927 281.67023 150.8927C279.73724 150.8927 278.17023 149.3257 278.17023 147.3927C278.17023 145.4597 279.73724 143.8927 281.67023 143.8927C283.60324 143.8927 285.17023 145.4597 285.17023 147.3927Z" clip-path="url(#id_0)"/><path fill="#c00" fill-rule="nonzero" d="M153.17761 247.81853C153.17761 249.75153 151.61061 251.31853 149.67761 251.31853C147.74461 251.31853 146.17761 249.75153 146.17761 247.81853C146.17761 245.88553 147.74461 244.31853 149.67761 244.31853C151.61061 244.31853 153.17761 245.88553 153.17761 247.81853Z" clip-path="url(#id_0)"/><path fill="#c00" fill-rule="nonzero" d="M265.02475 154.3658C265.02475 156.2988 263.45773 157.8658 261.52475 157.8658C259.59177 157.8658 258.02475 156.2988 258.02475 154.3658C258.02475 152.4328 259.59177 150.8658 261.52475 150.8658C263.45773 150.8658 265.02475 152.4328 265.02475 154.3658Z" clip-path="url(#id_0)"/><path fill="#c00" fill-rule="nonzero" d="M191.34956 200.42143C191.34956 202.35443 189.78256 203.92143 187.84956 203.92143C185.91656 203.92143 184.34956 202.35443 184.34956 200.42143C184.34956 198.48843 185.91656 196.92143 187.84956 196.92143C189.78256 196.92143 191.34956 198.48843 191.34956 200.42143Z" clip-path="url(#id_0)"/><path fill="#c00" fill-rule="nonzero" d="M246.14323 162.60434C246.14323 164.53734 244.57623 166.10434 242.64323 166.10434C240.71024 166.10434 239.14323 164.53734 239.14323 162.60434C239.14323 160.67134 240.71024 159.10434 242.64323 159.10434C244.57623 159.10434 246.14323 160.67134 246.14323 162.60434Z" clip-path="url(#id_0)"/><path fill="#c00" fill-rule="nonzero" d="M198.64372 204.82668C198.64372 206.75967 197.07672 208.32668 195.14372 208.32668C193.21074 208.32668 191.64372 206.75967 191.64372 204.82668C191.64372 202.89368 193.21074 201.32668 195.14372 201.32668C197.07672 201.32668 198.64372 202.89368 198.64372 204.82668Z" clip-path="url(#id_0)"/><path fill="#c00" fill-rule="nonzero" d="M227.81609 171.76521C227.81609 173.69821 226.24908 175.26521 224.31609 175.26521C222.38309 175.26521 220.81609 173.69821 220.81609 171.76521C220.81609 169.83223 222.38309 168.26521 224.31609 168.26521C226.24908 168.26521 227.81609 169.83223 227.81609 171.76521Z" clip-path="url(#id_0)"/><path fill="#c00" fill-rule="nonzero" d="M132.43129 254.97699C132.43129 256.90997 130.86429 258.477 128.93129 258.477C126.9983 258.477 125.4313 256.90997 125.4313 254.97699C125.4313 253.04399 126.9983 251.47699 128.93129 251.47699C130.86429 251.47699 132.43129 253.04399 132.43129 254.97699Z" clip-path="url(#id_0)"/><path fill="#c00" fill-rule="nonzero" d="M236.45071 189.38716C236.45071 191.32014 234.88371 192.88716 232.95071 192.88716C231.01772 192.88716 229.45071 191.32014 229.45071 189.38716C229.45071 187.45416 231.01772 185.88716 232.95071 185.88716C234.88371 185.88716 236.45071 187.45416 236.45071 189.38716Z" clip-path="url(#id_0)"/><path fill="#c00" fill-rule="nonzero" d="M267.42447 148.30325C267.42447 150.23625 265.85745 151.80325 263.92447 151.80325C261.99146 151.80325 260.42447 150.23625 260.42447 148.30325C260.42447 146.37027 261.99146 144.80325 263.92447 144.80325C265.85745 144.80325 267.42447 146.37027 267.42447 148.30325Z" clip-path="url(#id_0)"/><path fill="#c00" fill-rule="nonzero" d="M251.09149 195.79425C251.09149 197.72725 249.52449 199.29425 247.59149 199.29425C245.65851 199.29425 244.09149 197.72725 244.09149 195.79425C244.09149 193.86125 245.65851 192.29425 247.59149 192.29425C249.52449 192.29425 251.09149 193.86125 251.09149 195.79425Z" clip-path="url(#id_0)"/><path fill="#c00" fill-rule="nonzero" d="M263.76617 167.68477C263.76617 169.61777 262.19916 171.18477 260.26617 171.18477C258.33316 171.18477 256.76617 169.61777 256.76617 167.68477C256.76617 165.75177 258.33316 164.18477 260.26617 164.18477C262.19916 164.18477 263.76617 165.75177 263.76617 167.68477Z" clip-path="url(#id_0)"/><path fill="#c00" fill-rule="nonzero" d="M204.50578 202.84337C204.50578 204.77637 202.93878 206.34337 201.00578 206.34337C199.07278 206.34337 197.50578 204.77637 197.50578 202.84337C197.50578 200.91037 199.07278 199.34337 201.00578 199.34337C202.93878 199.34337 204.50578 200.91037 204.50578 202.84337Z" clip-path="url(#id_0)"/><path fill="#c00" fill-rule="nonzero" d="M250.18309 154.00362C250.18309 155.9366 248.61609 157.50362 246.68309 157.50362C244.75009 157.50362 243.18309 155.9366 243.18309 154.00362C243.18309 152.07062 244.75009 150.50362 246.68309 150.50362C248.61609 150.50362 250.18309 152.07062 250.18309 154.00362Z" clip-path="url(#id_0)"/><path fill="#c00" fill-rule="nonzero" d="M199.08134 218.01231C199.08134 219.94531 197.51434 221.51231 195.58134 221.51231C193.64835 221.51231 192.08134 219.94531 192.08134 218.01231C192.08134 216.07932 193.64835 214.51231 195.58134 214.51231C197.51434 214.51231 199.08134 216.07932 199.08134 218.01231Z" clip-path="url(#id_0)"/><path fill="#c00" fill-rule="nonzero" d="M84.59417 288.8994C84.59417 290.8324 83.02716 292.3994 81.09417 292.3994C79.16117 292.3994 77.59417 290.8324 77.59417 288.8994C77.59417 286.96643 79.16117 285.3994 81.09417 285.3994C83.02716 285.3994 84.59417 286.96643 84.59417 288.8994Z" clip-path="url(#id_0)"/><path fill="#c00" fill-rule="nonzero" d="M179.78867 236.6723C179.78867 238.60529 178.22166 240.1723 176.28867 240.1723C174.35567 240.1723 172.78867 238.60529 172.78867 236.6723C172.78867 234.7393 174.35567 233.1723 176.28867 233.1723C178.22166 233.1723 179.78867 234.7393 179.78867 236.6723Z" clip-path="url(#id_0)"/><path fill="#c00" fill-rule="nonzero" d="M230.17036 218.25987C230.17036 220.19287 228.60336 221.75987 226.67036 221.75987C224.73737 221.75987 223.17036 220.19287 223.17036 218.25987C223.17036 216.32687 224.73737 214.75987 226.67036 214.75987C228.60336 214.75987 230.17036 216.32687 230.17036 218.25987Z" clip-path="url(#id_0)"/><path fill="#c00" fill-rule="nonzero" d="M136.50702 233.14388C136.50702 235.07687 134.94002 236.64388 133.00702 236.64388C131.07404 236.64388 129.50702 235.07687 129.50702 233.14388C129.50702 231.21088 131.07404 229.64388 133.00702 229.64388C134.94002 229.64388 136.50702 231.21088 136.50702 233.14388Z" clip-path="url(#id_0)"/><path fill="#c00" fill-rule="nonzero" d="M347.19394 111.8524C347.19394 113.7854 345.62695 115.3524 343.69394 115.3524C341.76096 115.3524 340.19394 113.7854 340.19394 111.8524C340.19394 109.91941 341.76096 108.3524 343.69394 108.3524C345.62695 108.3524 347.19394 109.91941 347.19394 111.8524Z" clip-path="url(#id_0)"/><path fill="#c00" fill-rule="nonzero" d="M152.12393 227.62279C152.12393 229.55579 150.55692 231.12279 148.62393 231.12279C146.69093 231.12279 145.12393 229.55579 145.12393 227.62279C145.12393 225.68979 146.69093 224.12279 148.62393 224.12279C150.55692 224.12279 152.12393 225.68979 152.12393 227.62279Z" clip-path="url(#id_0)"/><path fill="#c00" fill-rule="nonzero" d="M269.2942 181.80618C269.2942 183.73917 267.72717 185.30618 265.7942 185.30618C263.86118 185.30618 262.2942 183.73917 262.2942 181.80618C262.2942 179.87318 263.86118 178.30618 265.7942 178.30618C267.72717 178.30618 269.2942 179.87318 269.2942 181.80618Z" clip-path="url(#id_0)"/><path fill="#c00" fill-rule="nonzero" d="M242.80733 171.79611C242.80733 173.72911 241.24031 175.29611 239.30733 175.29611C237.37433 175.29611 235.80733 173.72911 235.80733 171.79611C235.80733 169.86311 237.37433 168.29611 239.30733 168.29611C241.24031 168.29611 242.80733 169.86311 242.80733 171.79611Z" clip-path="url(#id_0)"/><path fill="#c00" fill-rule="nonzero" d="M244.92052 175.86356C244.92052 177.79655 243.35352 179.36356 241.42052 179.36356C239.48752 179.36356 237.92052 177.79655 237.92052 175.86356C237.92052 173.93056 239.48752 172.36356 241.42052 172.36356C243.35352 172.36356 244.92052 173.93056 244.92052 175.86356Z" clip-path="url(#id_0)"/><path fill="#c00" fill-rule="nonzero" d="M159.48177 234.37964C159.48177 236.31264 157.91475 237.87964 155.98177 237.87964C154.04877 237.87964 152.48177 236.31264 152.48177 234.37964C152.48177 232.44664 154.04877 230.87964 155.98177 230.87964C157.91475 230.87964 159.48177 232.44664 159.48177 234.37964Z" clip-path="url(#id_0)"/><path fill="#c00" fill-rule="nonzero" d="M278.8616 178.99239C278.8616 180.92538 277.2946 182.49239 275.3616 182.49239C273.42862 182.49239 271.8616 180.92538 271.8616 178.99239C271.8616 177.05939 273.42862 175.49239 275.3616 175.49239C277.2946 175.49239 278.8616 177.05939 278.8616 178.99239Z" clip-path="url(#id_0)"/><path fill="#c00" fill-rule="nonzero" d="M301.09204 149.59349C301.09204 151.52649 299.52502 153.09349 297.59204 153.09349C295.65903 153.09349 294.09204 151.52649 294.09204 149.59349C294.09204 147.66049 295.65903 146.09349 297.59204 146.09349C299.52502 146.09349 301.09204 147.66049 301.09204 149.59349Z" clip-path="url(#id_0)"/><path fill="#c00" fill-rule="nonzero" d="M227.01062 178.52206C227.01062 180.45506 225.44362 182.02206 223.51062 182.02206C221.57762 182.02206 220.01062 180.45506 220.01062 178.52206C220.01062 176.58907 221.57762 175.02206 223.51062 175.02206C225.44362 175.02206 227.01062 176.58907 227.01062 178.52206Z" clip-path="url(#id_0)"/><path fill="#c00" fill-rule="nonzero" d="M155.82301 212.927C155.82301 214.86 154.25601 216.427 152.32301 216.427C150.39003 216.427 148.82301 214.86 148.82301 212.927C148.82301 210.994 150.39003 209.427 152.32301 209.427C154.25601 209.427 155.82301 210.994 155.82301 212.927Z" clip-path="url(#id_0)"/><path fill="#c00" fill-rule="nonzero" d="M277.3506 157.5052C277.3506 159.4382 275.78357 161.0052 273.8506 161.0052C271.91757 161.0052 270.3506 159.4382 270.3506 157.5052C270.3506 155.5722 271.91757 154.0052 273.8506 154.0052C275.78357 154.0052 277.3506 155.5722 277.3506 157.5052Z" clip-path="url(#id_0)"/><path fill="#c00" fill-rule="nonzero" d="M226.97174 229.69513C226.97174 231.62813 225.40474 233.19513 223.47174 233.19513C221.53876 233.19513 219.97174 231.62813 219.97174 229.69513C219.97174 227.76213 221.53876 226.19513 223.47174 226.19513C225.40474 226.19513 226.97174 227.76213 226.97174 229.69513Z" clip-path="url(#id_0)"/><path fill="#c00" fill-rule="nonzero" d="M308.0867 103.95004C308.0867 105.88304 306.51968 107.45004 304.5867 107.45004C302.6537 107.45004 301.0867 105.88304 301.0867 103.95004C301.0867 102.01705 302.6537 100.45004 304.5867 100.45004C306.51968 100.45004 308.0867 102.01705 308.0867 103.95004Z" clip-path="url(#id_0)"/><path fill="#c00" fill-rule="nonzero" d="M190.68283 216.00787C190.68283 217.94086 189.11583 219.50787 187.18283 219.50787C185.24983 219.50787 183.68283 217.94086 183.68283 216.00787C183.68283 214.07487 185.24983 212.50787 187.18283 212.50787C189.11583 212.50787 190.68283 214.07487 190.68283 216.00787Z" clip-path="url(#id_0)"/><path fill="#c00" fill-rule="nonzero" d="M281.8747 201.51126C281.8747 203.44426 280.30768 205.01126 278.3747 205.01126C276.44168 205.01126 274.8747 203.44426 274.8747 201.51126C274.8747 199.57826 276.44168 198.01126 278.3747 198.01126C280.30768 198.01126 281.8747 199.57826 281.8747 201.51126Z" clip-path="url(#id_0)"/><path fill="#c00" fill-rule="nonzero" d="M202.49034 186.6426C202.49034 188.57559 200.92334 190.1426 198.99034 190.1426C197.05734 190.1426 195.49034 188.57559 195.49034 186.6426C195.49034 184.7096 197.05734 183.1426 198.99034 183.1426C200.92334 183.1426 202.49034 184.7096 202.49034 186.6426Z" clip-path="url(#id_0)"/><path fill="#c00" fill-rule="nonzero" d="M242.38226 208.03925C242.38226 209.97224 240.81526 211.53925 238.88226 211.53925C236.94926 211.53925 235.38226 209.97224 235.38226 208.03925C235.38226 206.10625 236.94926 204.53925 238.88226 204.53925C240.81526 204.53925 242.38226 206.10625 242.38226 208.03925Z" clip-path="url(#id_0)"/><path fill="#c00" fill-rule="nonzero" d="M169.06802 214.41235C169.06802 216.34535 167.501 217.91235 165.56802 217.91235C163.63503 217.91235 162.06802 216.34535 162.06802 214.41235C162.06802 212.47935 163.63503 210.91235 165.56802 210.91235C167.501 210.91235 169.06802 212.47935 169.06802 214.41235Z" clip-path="url(#id_0)"/><path fill="#c00" fill-rule="nonzero" d="M137.2872 241.1316C137.2872 243.06459 135.7202 244.6316 133.7872 244.6316C131.8542 244.6316 130.2872 243.06459 130.2872 241.1316C130.2872 239.19861 131.8542 237.6316 133.7872 237.6316C135.7202 237.6316 137.2872 239.19861 137.2872 241.1316Z" clip-path="url(#id_0)"/><path fill="#c00" fill-rule="nonzero" d="M213.17152 184.36307C213.17152 186.29605 211.60452 187.86307 209.67152 187.86307C207.73853 187.86307 206.17152 186.29605 206.17152 184.36307C206.17152 182.43007 207.73853 180.86307 209.67152 180.86307C211.60452 180.86307 213.17152 182.43007 213.17152 184.36307Z" clip-path="url(#id_0)"/><path fill="#c00" fill-rule="nonzero" d="M176.61417 207.12991C176.61417 209.0629 175.04716 210.62991 173.11417 210.62991C171.18117 210.62991 169.61417 209.0629 169.61417 207.12991C169.61417 205.19691 171.18117 203.62991 173.11417 203.62991C175.04716 203.62991 176.61417 205.19691 176.61417 207.12991Z" clip-path="url(#id_0)"/><path fill="#c00" fill-rule="nonzero" d="M183.77023 247.24942C183.77023 249.18242 182.20323 250.74942 180.27023 250.74942C178.33723 250.74942 176.77023 249.18242 176.77023 247.24942C176.77023 245.31642 178.33723 243.74942 180.27023 243.74942C182.20323 243.74942 183.77023 245.31642 183.77023 247.24942Z" clip-path="url(#id_0)"/><path fill="#c00" fill-rule="nonzero" d="M295.56805 179.1562C295.56805 181.0892 294.00107 182.6562 292.06805 182.6562C290.13507 182.6562 288.56805 181.0892 288.56805 179.1562C288.56805 177.2232 290.13507 175.6562 292.06805 175.6562C294.00107 175.6562 295.56805 177.2232 295.56805 179.1562Z" clip-path="url(#id_0)"/><path fill="#c00" fill-rule="nonzero" d="M220.95667 174.69324C220.95667 176.62624 219.38966 178.19324 217.45667 178.19324C215.52367 178.19324 213.95667 176.62624 213.95667 174.69324C213.95667 172.76024 215.52367 171.19324 217.45667 171.19324C219.38966 171.19324 220.95667 172.76024 220.95667 174.69324Z" clip-path="url(#id_0)"/><path fill="#c00" fill-rule="nonzero" d="M303.1097 201.195C303.1097 203.128 301.54272 204.695 299.6097 204.695C297.67673 204.695 296.1097 203.128 296.1097 201.195C296.1097 199.26201 297.67673 197.695 299.6097 197.695C301.54272 197.695 303.1097 199.26201 303.1097 201.195Z" clip-path="url(#id_0)"/><path fill="#c00" fill-rule="nonzero" d="M189.09782 187.37555C189.09782 189.30855 187.53082 190.87555 185.59782 190.87555C183.66483 190.87555 182.09782 189.30855 182.09782 187.37555C182.09782 185.44255 183.66483 183.87555 185.59782 183.87555C187.53082 183.87555 189.09782 185.44255 189.09782 187.37555Z" clip-path="url(#id_0)"/><path fill="#c00" fill-rule="nonzero" d="M296.67554 184.77809C296.67554 186.71109 295.10855 188.27809 293.17554 188.27809C291.24255 188.27809 289.67554 186.71109 289.67554 184.77809C289.67554 182.84511 291.24255 181.27809 293.17554 181.27809C295.10855 181.27809 296.67554 182.84511 296.67554 184.77809Z" clip-path="url(#id_0)"/><path fill="#c00" fill-rule="nonzero" d="M250.89511 174.31926C250.89511 176.25226 249.32811 177.81926 247.39511 177.81926C245.46211 177.81926 243.89511 176.25226 243.89511 174.31926C243.89511 172.38626 245.46211 170.81926 247.39511 170.81926C249.32811 170.81926 250.89511 172.38626 250.89511 174.31926Z" clip-path="url(#id_0)"/><path fill="#c00" fill-rule="nonzero" d="M221.35123 217.1294C221.35123 219.0624 219.78423 220.6294 217.85123 220.6294C215.91824 220.6294 214.35123 219.0624 214.35123 217.1294C214.35123 215.19641 215.91824 213.6294 217.85123 213.6294C219.78423 213.6294 221.35123 215.19641 221.35123 217.1294Z" clip-path="url(#id_0)"/><path fill="#c00" fill-rule="nonzero" d="M310.42273 145.92117C310.42273 147.85417 308.8557 149.42117 306.92273 149.42117C304.98972 149.42117 303.42273 147.85417 303.42273 145.92117C303.42273 143.98817 304.98972 142.42117 306.92273 142.42117C308.8557 142.42117 310.42273 143.98817 310.42273 145.92117Z" clip-path="url(#id_0)"/><path fill="#c00" fill-rule="nonzero" d="M273.2345 172.96805C273.2345 174.90105 271.66748 176.46805 269.7345 176.46805C267.8015 176.46805 266.2345 174.90105 266.2345 172.96805C266.2345 171.03506 267.8015 169.46805 269.7345 169.46805C271.66748 169.46805 273.2345 171.03506 273.2345 172.96805Z" clip-path="url(#id_0)"/><path fill="#c00" fill-rule="nonzero" d="M319.9462 153.24834C319.9462 155.18134 318.3792 156.74834 316.4462 156.74834C314.5132 156.74834 312.9462 155.18134 312.9462 153.24834C312.9462 151.31534 314.5132 149.74834 316.4462 149.74834C318.3792 149.74834 319.9462 151.31534 319.9462 153.24834Z" clip-path="url(#id_0)"/><path fill="#c00" fill-rule="nonzero" d="M249.90465 166.81079C249.90465 168.74379 248.33765 170.31079 246.40465 170.31079C244.47165 170.31079 242.90465 168.74379 242.90465 166.81079C242.90465 164.8778 244.47165 163.31079 246.40465 163.31079C248.33765 163.31079 249.90465 164.8778 249.90465 166.81079Z" clip-path="url(#id_0)"/><path fill="#c00" fill-rule="nonzero" d="M328.6895 103.60858C328.6895 105.54158 327.12253 107.10858 325.1895 107.10858C323.25653 107.10858 321.6895 105.54158 321.6895 103.60858C321.6895 101.67559 323.25653 100.10858 325.1895 100.10858C327.12253 100.10858 328.6895 101.67559 328.6895 103.60858Z" clip-path="url(#id_0)"/><path fill="#c00" fill-rule="nonzero" d="M227.88249 197.56862C227.88249 199.50162 226.31549 201.06862 224.38249 201.06862C222.4495 201.06862 220.88249 199.50162 220.88249 197.56862C220.88249 195.63562 222.4495 194.06862 224.38249 194.06862C226.31549 194.06862 227.88249 195.63562 227.88249 197.56862Z" clip-path="url(#id_0)"/><path fill="#c00" fill-rule="nonzero" d="M221.43777 184.38379C221.43777 186.31679 219.87077 187.88379 217.93777 187.88379C216.00478 187.88379 214.43777 186.31679 214.43777 184.38379C214.43777 182.45079 216.00478 180.88379 217.93777 180.88379C219.87077 180.88379 221.43777 182.45079 221.43777 184.38379Z" clip-path="url(#id_0)"/><path fill="#c00" fill-rule="nonzero" d="M297.34363 140.60008C297.34363 142.53308 295.7766 144.10008 293.84363 144.10008C291.9106 144.10008 290.34363 142.53308 290.34363 140.60008C290.34363 138.66708 291.9106 137.10008 293.84363 137.10008C295.7766 137.10008 297.34363 138.66708 297.34363 140.60008Z" clip-path="url(#id_0)"/><path fill="#c00" fill-rule="nonzero" d="M220.3675 144.34395C220.3675 146.27695 218.80049 147.84395 216.8675 147.84395C214.9345 147.84395 213.3675 146.27695 213.3675 144.34395C213.3675 142.41095 214.9345 140.84395 216.8675 140.84395C218.80049 140.84395 220.3675 142.41095 220.3675 144.34395Z" clip-path="url(#id_0)"/><path fill="#c00" fill-rule="nonzero" d="M218.07317 207.58885C218.07317 209.52184 216.50616 211.08885 214.57317 211.08885C212.64017 211.08885 211.07317 209.52184 211.07317 207.58885C211.07317 205.65585 212.64017 204.08885 214.57317 204.08885C216.50616 204.08885 218.07317 205.65585 218.07317 207.58885Z" clip-path="url(#id_0)"/><path fill="#c00" fill-rule="nonzero" d="M184.88983 207.17503C184.88983 209.10803 183.32283 210.67503 181.38983 210.67503C179.45683 210.67503 177.88983 209.10803 177.88983 207.17503C177.88983 205.24203 179.45683 203.67503 181.38983 203.67503C183.32283 203.67503 184.88983 205.24203 184.88983 207.17503Z" clip-path="url(#id_0)"/><path fill="#c00" fill-rule="nonzero" d="M243.5893 139.62856C243.5893 141.56155 242.02228 143.12856 240.0893 143.12856C238.1563 143.12856 236.5893 141.56155 236.5893 139.62856C236.5893 137.69556 238.1563 136.12856 240.0893 136.12856C242.02228 136.12856 243.5893 137.69556 243.5893 139.62856Z" clip-path="url(#id_0)"/><path fill="#c00" fill-rule="nonzero" d="M149.39333 228.72319C149.39333 230.65619 147.82632 232.22319 145.89333 232.22319C143.96033 232.22319 142.39333 230.65619 142.39333 228.72319C142.39333 226.79019 143.96033 225.22319 145.89333 225.22319C147.82632 225.22319 149.39333 226.79019 149.39333 228.72319Z" clip-path="url(#id_0)"/><path fill="#c00" fill-rule="nonzero" d="M222.46097 229.54391C222.46097 231.47691 220.89395 233.04391 218.96097 233.04391C217.02797 233.04391 215.46097 231.47691 215.46097 229.54391C215.46097 227.61092 217.02797 226.04391 218.96097 226.04391C220.89395 226.04391 222.46097 227.61092 222.46097 229.54391Z" clip-path="url(#id_0)"/><path fill="#c00" fill-rule="nonzero" d="M234.05774 210.25467C234.05774 212.18767 232.49072 213.75467 230.55774 213.75467C228.62474 213.75467 227.05774 212.18767 227.05774 210.25467C227.05774 208.32167 228.62474 206.75467 230.55774 206.75467C232.49072 206.75467 234.05774 208.32167 234.05774 210.25467Z" clip-path="url(#id_0)"/><path fill="#c00" fill-rule="nonzero" d="M211.98424 210.59735C211.98424 212.53035 210.41722 214.09735 208.48424 214.09735C206.55124 214.09735 204.98424 212.53035 204.98424 210.59735C204.98424 208.66435 206.55124 207.09735 208.48424 207.09735C210.41722 207.09735 211.98424 208.66435 211.98424 210.59735Z" clip-path="url(#id_0)"/><path fill="#c00" fill-rule="nonzero" d="M217.56606 193.05794C217.56606 194.99094 215.99905 196.55794 214.06606 196.55794C212.13306 196.55794 210.56606 194.99094 210.56606 193.05794C210.56606 191.12494 212.13306 189.55794 214.06606 189.55794C215.99905 189.55794 217.56606 191.12494 217.56606 193.05794Z" clip-path="url(#id_0)"/><path fill="#c00" fill-rule="nonzero" d="M260.67508 164.17058C260.67508 166.10358 259.10806 167.67058 257.17508 167.67058C255.24207 167.67058 253.67506 166.10358 253.67506 164.17058C253.67506 162.23758 255.24207 160.67058 257.17508 160.67058C259.10806 160.67058 260.67508 162.23758 260.67508 164.17058Z" clip-path="url(#id_0)"/><path fill="#c00" fill-rule="nonzero" d="M241.6411 168.0734C241.6411 170.00638 240.0741 171.5734 238.1411 171.5734C236.2081 171.5734 234.6411 170.00638 234.6411 168.0734C234.6411 166.1404 236.2081 164.5734 238.1411 164.5734C240.0741 164.5734 241.6411 166.1404 241.6411 168.0734Z" clip-path="url(#id_0)"/><path fill="#c00" fill-rule="nonzero" d="M257.02844 138.55133C257.02844 140.48433 255.46143 142.05133 253.52843 142.05133C251.59543 142.05133 250.02843 140.48433 250.02843 138.55133C250.02843 136.61833 251.59543 135.05133 253.52843 135.05133C255.46143 135.05133 257.02844 136.61833 257.02844 138.55133Z" clip-path="url(#id_0)"/><path fill="#c00" fill-rule="nonzero" d="M152.60368 199.51088C152.60368 201.44388 151.03668 203.01088 149.10368 203.01088C147.17068 203.01088 145.60368 201.44388 145.60368 199.51088C145.60368 197.57788 147.17068 196.01088 149.10368 196.01088C151.03668 196.01088 152.60368 197.57788 152.60368 199.51088Z" clip-path="url(#id_0)"/><path fill="#c00" fill-rule="nonzero" d="M177.52437 192.16058C177.52437 194.09358 175.95737 195.66058 174.02437 195.66058C172.09137 195.66058 170.52437 194.09358 170.52437 192.16058C170.52437 190.22758 172.09137 188.66058 174.02437 188.66058C175.95737 188.66058 177.52437 190.22758 177.52437 192.16058Z" clip-path="url(#id_0)"/><path fill="#c00" fill-rule="nonzero" d="M268.44046 168.41078C268.44046 170.34378 266.87347 171.91078 264.94046 171.91078C263.00748 171.91078 261.44046 170.34378 261.44046 168.41078C261.44046 166.47778 263.00748 164.91078 264.94046 164.91078C266.87347 164.91078 268.44046 166.47778 268.44046 168.41078Z" clip-path="url(#id_0)"/><path fill="#c00" fill-rule="nonzero" d="M243.80855 178.44077C243.80855 180.37376 242.24155 181.94077 240.30855 181.94077C238.37555 181.94077 236.80855 180.37376 236.80855 178.44077C236.80855 176.50777 238.37555 174.94077 240.30855 174.94077C242.24155 174.94077 243.80855 176.50777 243.80855 178.44077Z" clip-path="url(#id_0)"/><path fill="#c00" fill-rule="nonzero" d="M141.99962 239.33081C141.99962 241.26381 140.43262 242.83081 138.49962 242.83081C136.56662 242.83081 134.99962 241.26381 134.99962 239.33081C134.99962 237.39781 136.56662 235.83081 138.49962 235.83081C140.43262 235.83081 141.99962 237.39781 141.99962 239.33081Z" clip-path="url(#id_0)"/><path fill="#c00" fill-rule="nonzero" d="M216.25769 210.69572C216.25769 212.62872 214.69069 214.19572 212.75769 214.19572C210.82469 214.19572 209.25769 212.62872 209.25769 210.69572C209.25769 208.76273 210.82469 207.19572 212.75769 207.19572C214.69069 207.19572 216.25769 208.76273 216.25769 210.69572Z" clip-path="url(#id_0)"/><path fill="#c00" fill-rule="nonzero" d="M138.73097 225.01917C138.73097 226.95216 137.16396 228.51917 135.23097 228.51917C133.29797 228.51917 131.73097 226.95216 131.73097 225.01917C131.73097 223.08617 133.29797 221.51917 135.23097 221.51917C137.16396 221.51917 138.73097 223.08617 138.73097 225.01917Z" clip-path="url(#id_0)"/><path fill="#c00" fill-rule="nonzero" d="M328.1156 113.063774C328.1156 114.99677 326.54858 116.563774 324.6156 116.563774C322.6826 116.563774 321.1156 114.99677 321.1156 113.063774C321.1156 111.130775 322.6826 109.563774 324.6156 109.563774C326.54858 109.563774 328.1156 111.130775 328.1156 113.063774Z" clip-path="url(#id_0)"/><path fill="#c00" fill-rule="nonzero" d="M336.4195 139.46188C336.4195 141.39488 334.8525 142.96188 332.9195 142.96188C330.9865 142.96188 329.4195 141.39488 329.4195 139.46188C329.4195 137.52888 330.9865 135.96188 332.9195 135.96188C334.8525 135.96188 336.4195 137.52888 336.4195 139.46188Z" clip-path="url(#id_0)"/><path fill="#c00" fill-rule="nonzero" d="M159.9122 249.412C159.9122 251.345 158.3452 252.912 156.4122 252.912C154.4792 252.912 152.9122 251.345 152.9122 249.412C152.9122 247.479 154.4792 245.912 156.4122 245.912C158.3452 245.912 159.9122 247.479 159.9122 249.412Z" clip-path="url(#id_0)"/><path fill="#c00" fill-rule="nonzero" d="M269.93713 198.59503C269.93713 200.52803 268.37015 202.09503 266.43713 202.09503C264.50415 202.09503 262.93713 200.52803 262.93713 198.59503C262.93713 196.66203 264.50415 195.09503 266.43713 195.09503C268.37015 195.09503 269.93713 196.66203 269.93713 198.59503Z" clip-path="url(#id_0)"/><path fill="#c00" fill-rule="nonzero" d="M277.89313 168.88152C277.89313 170.8145 276.3261 172.38152 274.39313 172.38152C272.4601 172.38152 270.89313 170.8145 270.89313 168.88152C270.89313 166.94852 272.4601 165.38152 274.39313 165.38152C276.3261 165.38152 277.89313 166.94852 277.89313 168.88152Z" clip-path="url(#id_0)"/><path fill="#c00" fill-rule="nonzero" d="M158.68365 221.70659C158.68365 223.63959 157.11665 225.20659 155.18365 225.20659C153.25066 225.20659 151.68365 223.63959 151.68365 221.70659C151.68365 219.77359 153.25066 218.20659 155.18365 218.20659C157.11665 218.20659 158.68365 219.77359 158.68365 221.70659Z" clip-path="url(#id_0)"/><path fill="#c00" fill-rule="nonzero" d="M230.9614 168.70184C230.9614 170.63483 229.39438 172.20184 227.4614 172.20184C225.5284 172.20184 223.9614 170.63483 223.9614 168.70184C223.9614 166.76884 225.5284 165.20184 227.4614 165.20184C229.39438 165.20184 230.9614 166.76884 230.9614 168.70184Z" clip-path="url(#id_0)"/><path fill="#c00" fill-rule="nonzero" d="M223.08914 162.45108C223.08914 164.38408 221.52213 165.95108 219.58914 165.95108C217.65614 165.95108 216.08914 164.38408 216.08914 162.45108C216.08914 160.5181 217.65614 158.95108 219.58914 158.95108C221.52213 158.95108 223.08914 160.5181 223.08914 162.45108Z" clip-path="url(#id_0)"/><path fill="#c00" fill-rule="nonzero" d="M209.9643 153.07964C209.9643 155.01263 208.3973 156.57964 206.4643 156.57964C204.53131 156.57964 202.9643 155.01263 202.9643 153.07964C202.9643 151.14664 204.53131 149.57964 206.4643 149.57964C208.3973 149.57964 209.9643 151.14664 209.9643 153.07964Z" clip-path="url(#id_0)"/><path fill="#c00" fill-rule="nonzero" d="M209.75536 181.16513C209.75536 183.09813 208.18835 184.66513 206.25536 184.66513C204.32236 184.66513 202.75536 183.09813 202.75536 181.16513C202.75536 179.23213 204.32236 177.66513 206.25536 177.66513C208.18835 177.66513 209.75536 179.23213 209.75536 181.16513Z" clip-path="url(#id_0)"/><path fill="#c00" fill-rule="nonzero" d="M172.0004 205.1474C172.0004 207.0804 170.43338 208.6474 168.5004 208.6474C166.5674 208.6474 165.0004 207.0804 165.0004 205.1474C165.0004 203.21442 166.5674 201.6474 168.5004 201.6474C170.43338 201.6474 172.0004 203.21442 172.0004 205.1474Z" clip-path="url(#id_0)"/><path fill="#c00" fill-rule="nonzero" d="M294.07944 148.52277C294.07944 150.45576 292.51245 152.02277 290.57944 152.02277C288.64645 152.02277 287.07944 150.45576 287.07944 148.52277C287.07944 146.58977 288.64645 145.02277 290.57944 145.02277C292.51245 145.02277 294.07944 146.58977 294.07944 148.52277Z" clip-path="url(#id_0)"/><path fill="#c00" fill-rule="nonzero" d="M261.7395 154.73694C261.7395 156.66994 260.17252 158.23694 258.2395 158.23694C256.30652 158.23694 254.7395 156.66994 254.7395 154.73694C254.7395 152.80394 256.30652 151.23694 258.2395 151.23694C260.17252 151.23694 261.7395 152.80394 261.7395 154.73694Z" clip-path="url(#id_0)"/><path fill="#c00" fill-rule="nonzero" d="M228.77673 190.55597C228.77673 192.48897 227.20972 194.05597 225.27673 194.05597C223.34373 194.05597 221.77673 192.48897 221.77673 190.55597C221.77673 188.62297 223.34373 187.05597 225.27673 187.05597C227.20972 187.05597 228.77673 188.62297 228.77673 190.55597Z" clip-path="url(#id_0)"/><path fill="#c00" fill-rule="nonzero" d="M233.90335 186.76872C233.90335 188.70172 232.33635 190.26872 230.40335 190.26872C228.47035 190.26872 226.90335 188.70172 226.90335 186.76872C226.90335 184.83574 228.47035 183.26872 230.40335 183.26872C232.33635 183.26872 233.90335 184.83574 233.90335 186.76872Z" clip-path="url(#id_0)"/><path fill="#c00" fill-rule="nonzero" d="M214.9193 156.87025C214.9193 158.80324 213.3523 160.37025 211.4193 160.37025C209.4863 160.37025 207.9193 158.80324 207.9193 156.87025C207.9193 154.93726 209.4863 153.37025 211.4193 153.37025C213.3523 153.37025 214.9193 154.93726 214.9193 156.87025Z" clip-path="url(#id_0)"/><path fill="#c00" fill-rule="nonzero" d="M199.93594 169.3311C199.93594 171.2641 198.36894 172.8311 196.43594 172.8311C194.50294 172.8311 192.93594 171.2641 192.93594 169.3311C192.93594 167.3981 194.50294 165.8311 196.43594 165.8311C198.36894 165.8311 199.93594 167.3981 199.93594 169.3311Z" clip-path="url(#id_0)"/><path fill="#c00" fill-rule="nonzero" d="M110.6582 256.05423C110.6582 257.9872 109.0912 259.55423 107.1582 259.55423C105.22521 259.55423 103.6582 257.9872 103.6582 256.05423C103.6582 254.12122 105.22521 252.55421 107.1582 252.55421C109.0912 252.55421 110.6582 254.12122 110.6582 256.05423Z" clip-path="url(#id_0)"/><path fill="#c00" fill-rule="nonzero" d="M177.12083 198.59828C177.12083 200.53128 175.55383 202.09828 173.62083 202.09828C171.68784 202.09828 170.12083 200.53128 170.12083 198.59828C170.12083 196.66528 171.68784 195.09828 173.62083 195.09828C175.55383 195.09828 177.12083 196.66528 177.12083 198.59828Z" clip-path="url(#id_0)"/><path fill="#c00" fill-rule="nonzero" d="M124.84927 223.15657C124.84927 225.08957 123.28227 226.65657 121.34927 226.65657C119.416275 226.65657 117.84927 225.08957 117.84927 223.15657C117.84927 221.22359 119.416275 219.65657 121.34927 219.65657C123.28227 219.65657 124.84927 221.22359 124.84927 223.15657Z" clip-path="url(#id_0)"/><path fill="#c00" fill-rule="nonzero" d="M216.95447 173.36479C216.95447 175.29779 215.38747 176.86479 213.45447 176.86479C211.52147 176.86479 209.95447 175.29779 209.95447 173.36479C209.95447 171.43181 211.52147 169.86479 213.45447 169.86479C215.38747 169.86479 216.95447 171.43181 216.95447 173.36479Z" clip-path="url(#id_0)"/><path fill="#c00" fill-rule="nonzero" d="M334.5229 112.70199C334.5229 114.63499 332.95587 116.20199 331.0229 116.20199C329.08987 116.20199 327.5229 114.63499 327.5229 112.70199C327.5229 110.76899 329.08987 109.20199 331.0229 109.20199C332.95587 109.20199 334.5229 110.76899 334.5229 112.70199Z" clip-path="url(#id_0)"/><path fill="#757575" fill-rule="nonzero" d="M33.728127 353.6625L30.86875 353.6625L30.86875 352.7875L33.728127 352.7875L33.728127 353.6625ZM38.93125 353.99063L40.11875 353.99063L40.11875 354.86563L38.93125 354.86563L38.93125 356.85L37.853127 356.85L37.853127 354.86563L33.9625 354.86563L33.9625 354.225L37.775 348.31876L38.93125 348.31876L38.93125 353.99063ZM35.196877 353.99063L37.853127 353.99063L37.853127 349.80313L37.7125 350.0375L35.196877 353.99063Z"/><path fill="#757575" fill-rule="nonzero" d="M33.728127 313.0125L30.86875 313.0125L30.86875 312.1375L33.728127 312.1375L33.728127 313.0125ZM35.93125 311.40314L36.74375 311.40314Q37.525 311.3875 37.9625 310.9969Q38.4 310.60626 38.4 309.9344Q38.4 308.4344 36.9 308.4344Q36.196877 308.4344 35.775 308.84064Q35.36875 309.2469 35.36875 309.90314L34.275 309.90314Q34.275 308.8875 35.009377 308.21564Q35.759377 307.54376 36.9 307.54376Q38.103127 307.54376 38.790627 308.1844Q39.478127 308.825 39.478127 309.96564Q39.478127 310.52814 39.11875 311.04376Q38.759377 311.5594 38.134377 311.825Q38.8375 312.04376 39.2125 312.5594Q39.603127 313.075 39.603127 313.825Q39.603127 314.96564 38.853127 315.65314Q38.103127 316.325 36.9 316.325Q35.7125 316.325 34.946877 315.66876Q34.196877 315.0125 34.196877 313.95L35.290627 313.95Q35.290627 314.6219 35.728127 315.02814Q36.165627 315.4344 36.915627 315.4344Q37.696877 315.4344 38.103127 315.02814Q38.525 314.60626 38.525 313.84064Q38.525 313.10626 38.071877 312.71564Q37.61875 312.3094 36.74375 312.29376L35.93125 312.29376L35.93125 311.40314Z"/><path fill="#757575" fill-rule="nonzero" d="M33.728127 272.3625L30.86875 272.3625L30.86875 271.4875L33.728127 271.4875L33.728127 272.3625ZM39.946877 275.55L34.353127 275.55L34.353127 274.76874L37.30625 271.4875Q37.9625 270.7375 38.2125 270.28436Q38.4625 269.8156 38.4625 269.3156Q38.4625 268.64374 38.05625 268.22186Q37.665627 267.78436 36.978127 267.78436Q36.18125 267.78436 35.728127 268.2531Q35.275 268.70624 35.275 269.53436L34.196877 269.53436Q34.196877 268.34686 34.946877 267.6281Q35.7125 266.89374 36.978127 266.89374Q38.18125 266.89374 38.86875 267.51874Q39.55625 268.14374 39.55625 269.1906Q39.55625 270.4406 37.946877 272.1906L35.665627 274.65936L39.946877 274.65936L39.946877 275.55Z"/><path fill="#757575" fill-rule="nonzero" d="M33.728127 231.7125L30.86875 231.7125L30.86875 230.8375L33.728127 230.8375L33.728127 231.7125ZM37.915627 234.9L36.8375 234.9L36.8375 227.68124L34.65 228.47812L34.65 227.49374L37.759377 226.32187L37.915627 226.32187L37.915627 234.9Z"/><path fill="#757575" fill-rule="nonzero" d="M39.7125 190.60938Q39.7125 192.51562 39.05625 193.45312Q38.415627 194.375 37.025 194.375Q35.665627 194.375 35.009377 193.46875Q34.353127 192.5625 34.321877 190.75L34.321877 189.3125Q34.321877 187.42188 34.9625 186.51562Q35.61875 185.59375 37.009377 185.59375Q38.384377 185.59375 39.040627 186.48438Q39.696877 187.35938 39.7125 189.20312L39.7125 190.60938ZM38.61875 189.125Q38.61875 187.75 38.228127 187.125Q37.853127 186.48438 37.009377 186.48438Q36.18125 186.48438 35.790627 187.125Q35.415627 187.75 35.415627 189.04688L35.415627 190.78125Q35.415627 192.15625 35.80625 192.82812Q36.2125 193.48438 37.025 193.48438Q37.821877 193.48438 38.2125 192.85938Q38.603127 192.23438 38.61875 190.90625L38.61875 189.125Z"/><path fill="#757575" fill-rule="nonzero" d="M37.915627 153.6L36.8375 153.6L36.8375 146.38126L34.65 147.17813L34.65 146.19376L37.759377 145.02188L37.915627 145.02188L37.915627 153.6Z"/><path fill="#757575" fill-rule="nonzero" d="M39.946877 112.95L34.353127 112.95L34.353127 112.16875L37.30625 108.8875Q37.9625 108.1375 38.2125 107.68437Q38.4625 107.21562 38.4625 106.71562Q38.4625 106.04375 38.05625 105.62187Q37.665627 105.18437 36.978127 105.18437Q36.18125 105.18437 35.728127 105.65312Q35.275 106.10625 35.275 106.93437L34.196877 106.93437Q34.196877 105.74687 34.946877 105.02812Q35.7125 104.29375 36.978127 104.29375Q38.18125 104.29375 38.86875 104.91875Q39.55625 105.54375 39.55625 106.59062Q39.55625 107.84062 37.946877 109.59062L35.665627 112.05937L39.946877 112.05937L39.946877 112.95Z"/><path fill="#757575" fill-rule="nonzero" d="M35.93125 67.50313L36.74375 67.50313Q37.525 67.4875 37.9625 67.09688Q38.4 66.70625 38.4 66.03438Q38.4 64.53438 36.9 64.53438Q36.196877 64.53438 35.775 64.94063Q35.36875 65.34688 35.36875 66.00313L34.275 66.00313Q34.275 64.9875 35.009377 64.31563Q35.759377 63.643753 36.9 63.643753Q38.103127 63.643753 38.790627 64.28438Q39.478127 64.925 39.478127 66.06563Q39.478127 66.62813 39.11875 67.14375Q38.759377 67.65938 38.134377 67.925Q38.8375 68.14375 39.2125 68.65938Q39.603127 69.175 39.603127 69.925Q39.603127 71.06563 38.853127 71.75313Q38.103127 72.425 36.9 72.425Q35.7125 72.425 34.946877 71.76875Q34.196877 71.1125 34.196877 70.05L35.290627 70.05Q35.290627 70.72188 35.728127 71.12813Q36.165627 71.53438 36.915627 71.53438Q37.696877 71.53438 38.103127 71.12813Q38.525 70.70625 38.525 69.94063Q38.525 69.20625 38.071877 68.81563Q37.61875 68.40938 36.74375 68.39375L35.93125 68.39375L35.93125 67.50313Z"/><path fill="#757575" fill-rule="nonzero" d="M38.93125 28.790625L40.11875 28.790625L40.11875 29.665625L38.93125 29.665625L38.93125 31.65L37.853127 31.65L37.853127 29.665625L33.9625 29.665625L33.9625 29.025L37.775 23.11875L38.93125 23.11875L38.93125 28.790625ZM35.196877 28.790625L37.853127 28.790625L37.853127 24.603125L37.7125 24.8375L35.196877 28.790625Z"/><path fill="#757575" fill-rule="nonzero" d="M44.728127 367.1625L41.86875 367.1625L41.86875 366.2875L44.728127 366.2875L44.728127 367.1625ZM49.93125 367.49063L51.11875 367.49063L51.11875 368.36563L49.93125 368.36563L49.93125 370.35L48.853127 370.35L48.853127 368.36563L44.9625 368.36563L44.9625 367.725L48.775 361.81876L49.93125 361.81876L49.93125 367.49063ZM46.196877 367.49063L48.853127 367.49063L48.853127 363.30313L48.7125 363.5375L46.196877 367.49063Z"/><path fill="#757575" fill-rule="nonzero" d="M89.56563 367.1625L86.70625 367.1625L86.70625 366.2875L89.56563 366.2875L89.56563 367.1625ZM91.76875 365.55313L92.58125 365.55313Q93.3625 365.5375 93.8 365.14688Q94.2375 364.75626 94.2375 364.08438Q94.2375 362.58438 92.7375 362.58438Q92.03438 362.58438 91.6125 362.99063Q91.20625 363.39688 91.20625 364.05313L90.1125 364.05313Q90.1125 363.0375 90.84688 362.36563Q91.59688 361.69376 92.7375 361.69376Q93.94063 361.69376 94.62813 362.33438Q95.31563 362.975 95.31563 364.11563Q95.31563 364.67813 94.95625 365.19376Q94.59688 365.70938 93.97188 365.975Q94.675 366.19376 95.05 366.70938Q95.44063 367.225 95.44063 367.975Q95.44063 369.11563 94.69063 369.80313Q93.94063 370.475 92.7375 370.475Q91.55 370.475 90.78438 369.81876Q90.03438 369.1625 90.03438 368.1L91.12813 368.1Q91.12813 368.77188 91.56563 369.17813Q92.00313 369.58438 92.75313 369.58438Q93.53438 369.58438 93.94063 369.17813Q94.3625 368.75626 94.3625 367.99063Q94.3625 367.25626 93.90938 366.86563Q93.45625 366.45938 92.58125 366.44376L91.76875 366.44376L91.76875 365.55313Z"/><path fill="#757575" fill-rule="nonzero" d="M134.40312 367.1625L131.54375 367.1625L131.54375 366.2875L134.40312 366.2875L134.40312 367.1625ZM140.62187 370.35L135.02812 370.35L135.02812 369.56876L137.98125 366.2875Q138.6375 365.5375 138.8875 365.08438Q139.1375 364.61563 139.1375 364.11563Q139.1375 363.44376 138.73125 363.02188Q138.34062 362.58438 137.65312 362.58438Q136.85625 362.58438 136.40312 363.05313Q135.95 363.50626 135.95 364.33438L134.87187 364.33438Q134.87187 363.14688 135.62187 362.42813Q136.3875 361.69376 137.65312 361.69376Q138.85625 361.69376 139.54375 362.31876Q140.23125 362.94376 140.23125 363.99063Q140.23125 365.24063 138.62187 366.99063L136.34062 369.45938L140.62187 369.45938L140.62187 370.35Z"/><path fill="#757575" fill-rule="nonzero" d="M179.24063 367.1625L176.38126 367.1625L176.38126 366.2875L179.24063 366.2875L179.24063 367.1625ZM183.42813 370.35L182.35 370.35L182.35 363.13126L180.1625 363.92813L180.1625 362.94376L183.27188 361.77188L183.42813 361.77188L183.42813 370.35Z"/><path fill="#757575" fill-rule="nonzero" d="M228.5625 366.70938Q228.5625 368.61563 227.90625 369.55313Q227.26562 370.475 225.875 370.475Q224.51562 370.475 223.85938 369.56876Q223.20312 368.6625 223.17188 366.85L223.17188 365.4125Q223.17188 363.52188 223.8125 362.61563Q224.46875 361.69376 225.85938 361.69376Q227.23438 361.69376 227.89062 362.58438Q228.54688 363.45938 228.5625 365.30313L228.5625 366.70938ZM227.46875 365.225Q227.46875 363.85 227.07812 363.225Q226.70312 362.58438 225.85938 362.58438Q225.03125 362.58438 224.64062 363.225Q224.26562 363.85 224.26562 365.14688L224.26562 366.88126Q224.26562 368.25626 224.65625 368.92813Q225.0625 369.58438 225.875 369.58438Q226.67188 369.58438 227.0625 368.95938Q227.45312 368.33438 227.46875 367.00626L227.46875 365.225Z"/><path fill="#757575" fill-rule="nonzero" d="M271.60312 370.35L270.525 370.35L270.525 363.13126L268.3375 363.92813L268.3375 362.94376L271.44687 361.77188L271.60312 361.77188L271.60312 370.35Z"/><path fill="#757575" fill-rule="nonzero" d="M318.47186 370.35L312.8781 370.35L312.8781 369.56876L315.83124 366.2875Q316.4875 365.5375 316.7375 365.08438Q316.9875 364.61563 316.9875 364.11563Q316.9875 363.44376 316.58124 363.02188Q316.1906 362.58438 315.5031 362.58438Q314.70624 362.58438 314.2531 363.05313Q313.8 363.50626 313.8 364.33438L312.72186 364.33438Q312.72186 363.14688 313.47186 362.42813Q314.2375 361.69376 315.5031 361.69376Q316.70624 361.69376 317.39374 362.31876Q318.08124 362.94376 318.08124 363.99063Q318.08124 365.24063 316.47186 366.99063L314.1906 369.45938L318.47186 369.45938L318.47186 370.35Z"/><path fill="#757575" fill-rule="nonzero" d="M359.29376 365.55313L360.10626 365.55313Q360.8875 365.5375 361.325 365.14688Q361.7625 364.75626 361.7625 364.08438Q361.7625 362.58438 360.2625 362.58438Q359.5594 362.58438 359.1375 362.99063Q358.73126 363.39688 358.73126 364.05313L357.6375 364.05313Q357.6375 363.0375 358.3719 362.36563Q359.1219 361.69376 360.2625 361.69376Q361.46564 361.69376 362.15314 362.33438Q362.84064 362.975 362.84064 364.11563Q362.84064 364.67813 362.48126 365.19376Q362.1219 365.70938 361.4969 365.975Q362.2 366.19376 362.575 366.70938Q362.96564 367.225 362.96564 367.975Q362.96564 369.11563 362.21564 369.80313Q361.46564 370.475 360.2625 370.475Q359.075 370.475 358.3094 369.81876Q357.5594 369.1625 357.5594 368.1L358.65314 368.1Q358.65314 368.77188 359.09064 369.17813Q359.52814 369.58438 360.27814 369.58438Q361.0594 369.58438 361.46564 369.17813Q361.8875 368.75626 361.8875 367.99063Q361.8875 367.25626 361.4344 366.86563Q360.98126 366.45938 360.10626 366.44376L359.29376 366.44376L359.29376 365.55313Z"/><path fill="#757575" fill-rule="nonzero" d="M407.13126 367.49063L408.31876 367.49063L408.31876 368.36563L407.13126 368.36563L407.13126 370.35L406.05313 370.35L406.05313 368.36563L402.1625 368.36563L402.1625 367.725L405.975 361.81876L407.13126 361.81876L407.13126 367.49063ZM403.39688 367.49063L406.05313 367.49063L406.05313 363.30313L405.9125 363.5375L403.39688 367.49063Z"/></svg>