<svg xmlns="http://www.w3.org/2000/svg" xmlns:xlink="http://www.w3.org/1999/xlink" fill="none" stroke="none" stroke-linecap="square" stroke-miterlimit="10" version="1.1" viewBox="0 0 400 400"><clipPath id="p.0"><path d="m0 0l400.0 0l0 400.0l-400.0 0l0 -400.0z" clip-rule="nonzero"/></clipPath><g clip-path="url(#p.0)"><path fill="#000" fill-opacity="0" fill-rule="evenodd" d="m0 0l400.0 0l0 400.0l-400.0 0z"/><path fill="#000" fill-opacity="0" fill-rule="evenodd" d="m102.73662 254.69908l196.9764 -111.40158"/><path fill-rule="evenodd" stroke="#000" stroke-dasharray="1 3" stroke-linecap="butt" stroke-linejoin="round" stroke-width="1" d="m102.73662 254.69908l196.9764 -111.40158"/><path fill="#000" fill-opacity="0" fill-rule="evenodd" d="m83.72179 200.51181l0 0c0 -65.63057 53.204086 -118.83465 118.83464 -118.83465l0 0c31.516907 0 61.74298 12.520042 84.02878 34.805862c22.285828 22.28582 34.805878 52.51188 34.805878 84.028786l0 0c0 65.630554 -53.2041 118.834656 -118.834656 118.834656l0 0c-65.630554 0 -118.83464 -53.2041 -118.83464 -118.834656z"/><path fill-rule="evenodd" stroke="#000" stroke-linecap="butt" stroke-linejoin="round" stroke-width="3" d="m83.72179 200.51181l0 0c0 -65.63057 53.204086 -118.83465 118.83464 -118.83465l0 0c31.516907 0 61.74298 12.520042 84.02878 34.805862c22.285828 22.28582 34.805878 52.51188 34.805878 84.028786l0 0c0 65.630554 -53.2041 118.834656 -118.834656 118.834656l0 0c-65.630554 0 -118.83464 -53.2041 -118.83464 -118.834656z"/><path fill="#000" fill-opacity="0" fill-rule="evenodd" d="m200.0 5.1968503l0 389.60632"/><path fill-rule="evenodd" stroke="#000" stroke-linecap="butt" stroke-linejoin="round" stroke-width="2" d="m200.0 12.0510235l0 375.89795"/><path fill="#000" fill-rule="evenodd" stroke="#000" stroke-linecap="butt" stroke-width="2" d="m200.0 12.0510235l2.2491608 2.2491674l-2.2491608 -6.179536l-2.2491608 6.179536z"/><path fill="#000" fill-rule="evenodd" stroke="#000" stroke-linecap="butt" stroke-width="2" d="m200.0 387.94897l-2.2491608 -2.249176l2.2491608 6.179535l2.2491608 -6.179535z"/><path fill="#000" fill-opacity="0" fill-rule="evenodd" d="m394.80316 200.0l-389.60632 0"/><path fill-rule="evenodd" stroke="#000" stroke-linecap="butt" stroke-linejoin="round" stroke-width="2" d="m387.94897 200.0l-375.89795 0"/><path fill="#000" fill-rule="evenodd" stroke="#000" stroke-linecap="butt" stroke-width="2" d="m387.94897 200.0l-2.249176 2.2491608l6.179535 -2.2491608l-6.179535 -2.2491608z"/><path fill="#000" fill-rule="evenodd" stroke="#000" stroke-linecap="butt" stroke-width="2" d="m12.0510235 200.0l2.2491674 -2.2491608l-6.179536 2.2491608l6.179536 2.2491608z"/><path fill="#000" fill-opacity="0" fill-rule="evenodd" d="m361.68765 190.25722l42.86615 0l0 31.181107l-42.86615 0z"/><path fill="#000" fill-rule="nonzero" d="m375.42203 211.92722l1.1875 -1.515625q0.1875 -0.234375 0.296875 -0.46875q0.125 -0.234375 0.125 -0.484375q0 -0.203125 -0.15625 -0.34375q-0.140625 -0.140625 -0.46875 -0.203125l0 -0.4375l2.96875 0l0 0.4375q-0.34375 0.109375 -0.703125 0.40625q-0.359375 0.28125 -0.875 0.921875l-1.890625 2.3125l2.078125 2.796875q0.453125 0.609375 0.796875 0.9375q0.359375 0.3125 0.71875 0.4375l0 0.453125l-3.671875 0l0 -0.453125q0.765625 -0.078125 0.765625 -0.5625q0 -0.1875 -0.0625 -0.359375q-0.0625 -0.171875 -0.234375 -0.40625l-1.328125 -1.828125l-1.40625 1.8125q-0.15625 0.203125 -0.25 0.375q-0.078125 0.171875 -0.078125 0.375q0 0.25 0.171875 0.40625q0.171875 0.15625 0.53125 0.1875l0 0.453125l-3.046875 0l0 -0.453125q0.3125 -0.109375 0.546875 -0.265625q0.25 -0.171875 0.5 -0.421875q0.25 -0.265625 0.65625 -0.765625l1.890625 -2.34375l-1.9375 -2.671875q-0.40625 -0.53125 -0.640625 -0.78125q-0.234375 -0.25 -0.4375 -0.375q-0.203125 -0.125 -0.40625 -0.1875l0 -0.4375l3.578125 0l0 0.4375q-0.71875 0.109375 -0.71875 0.5625q0 0.21875 0.09375 0.4375q0.09375 0.203125 0.296875 0.453125l1.109375 1.5625z"/><path fill="#000" fill-opacity="0" fill-rule="evenodd" d="m175.08923 5.1968503l42.86615 0l0 31.181103l-42.86615 0z"/><path fill="#000" fill-rule="nonzero" d="m188.82361 32.866848q-0.5 1.125 -0.984375 1.828125q-0.46875 0.703125 -1.03125 1.046875q-0.5625 0.359375 -1.359375 0.359375q-0.5 0 -1.125 -0.109375l0 -1.8125l0.8125 0q0.109375 0.375 0.265625 0.515625q0.171875 0.15625 0.484375 0.15625q0.265625 0 0.484375 -0.109375q0.21875 -0.109375 0.4375 -0.359375q0.234375 -0.25 0.546875 -0.78125q0.328125 -0.53125 0.71875 -1.34375l-2.546875 -6.859375q-0.25 -0.65625 -0.40625 -0.921875q-0.140625 -0.265625 -0.328125 -0.40625q-0.171875 -0.140625 -0.515625 -0.21875l0 -0.4375l3.703125 0l0 0.4375q-0.421875 0.109375 -0.609375 0.203125q-0.171875 0.09375 -0.25 0.25q-0.078125 0.140625 -0.078125 0.375q0 0.25 0.046875 0.515625q0.0625 0.265625 0.203125 0.625l1.609375 4.5625l1.828125 -4.375q0.15625 -0.375 0.234375 -0.671875q0.09375 -0.3125 0.09375 -0.5625q0 -0.40625 -0.21875 -0.59375q-0.203125 -0.203125 -0.734375 -0.328125l0 -0.4375l3.40625 0l0 0.4375q-0.359375 0.078125 -0.546875 0.234375q-0.1875 0.140625 -0.390625 0.46875q-0.1875 0.328125 -0.453125 0.90625l-3.296875 7.40625z"/><path fill="#000" fill-opacity="0" fill-rule="evenodd" d="m199.68242 199.66667l-83.68504 -83.68504"/><path fill-rule="evenodd" stroke="#000" stroke-linecap="butt" stroke-linejoin="round" stroke-width="2" d="m199.68242 199.66667l-78.83841 -78.83842"/><path fill="#000" fill-rule="evenodd" stroke="#000" stroke-linecap="butt" stroke-width="2" d="m120.84401 120.82826l3.1808014 0l-5.9599915 -2.77919l2.77919 5.9599915z"/><path fill="#000" fill-opacity="0" fill-rule="evenodd" d="m131.30183 109.85827l75.46457 0l0 31.181099l-75.46457 0z"/><path fill="#000" fill-rule="nonzero" d="m142.69246 126.51764l0.09375 0.015625q0.359375 -0.4375 0.65625 -0.6875q0.3125 -0.25 0.65625 -0.375q0.359375 -0.140625 0.8125 -0.140625q0.375 0 0.6875 0.03125l0 1.5l-0.734375 0q-0.15625 -0.34375 -0.34375 -0.5q-0.171875 -0.171875 -0.484375 -0.171875q-0.234375 0 -0.46875 0.140625q-0.21875 0.140625 -0.4375 0.40625q-0.21875 0.25 -0.296875 0.484375q-0.078125 0.21875 -0.078125 0.53125l0 2.28125q0 0.59375 0.0625 0.828125q0.078125 0.21875 0.234375 0.328125q0.171875 0.09375 0.515625 0.15625l0 0.3125l-2.625 0l0 -0.3125q0.25 -0.078125 0.34375 -0.140625q0.109375 -0.0625 0.1875 -0.15625q0.078125 -0.109375 0.109375 -0.328125q0.046875 -0.21875 0.046875 -0.671875l0 -2.828125q0 -0.421875 -0.015625 -0.671875q0 -0.265625 -0.078125 -0.40625q-0.078125 -0.15625 -0.25 -0.234375q-0.15625 -0.078125 -0.4375 -0.125l0 -0.34375l1.515625 -0.0625l0.390625 0l-0.0625 1.140625zm4.0903015 0.421875l0 -0.875l8.015625 0l0 0.875l-8.015625 0zm0 2.6875l0 -0.859375l8.015625 0l0 0.859375l-8.015625 0zm8.296875 -1.78125l0 0zm3.0507965 -2.40625l2.296875 5.046875l3.21875 -11.109375l1.65625 0l0 0.875l-1.171875 0l-3.5 11.953125l-0.640625 0l-2.6875 -5.78125l-1.109375 0.484375l-0.1875 -0.484375l2.125 -0.984375zm7.3624725 5.859375l0 -1.375l0.796875 0q0.1875 0.65625 0.578125 0.96875q0.40625 0.3125 1.03125 0.3125q0.859375 0 1.296875 -0.515625q0.453125 -0.515625 0.453125 -1.5625q0 -0.6875 -0.234375 -1.140625q-0.234375 -0.453125 -0.640625 -0.640625q-0.390625 -0.203125 -0.921875 -0.203125q-0.4375 0 -0.765625 0.0625q-0.3125 0.046875 -0.671875 0.15625l-0.53125 -0.296875l0 -4.296875l3.59375 0q0.21875 0 0.3125 -0.03125q0.109375 -0.03125 0.15625 -0.109375q0.0625 -0.078125 0.140625 -0.28125l0.515625 0l-0.109375 1.515625l-3.734375 0l0 2.84375q0.34375 -0.140625 0.734375 -0.203125q0.390625 -0.078125 0.796875 -0.078125q0.765625 0 1.359375 0.328125q0.609375 0.3125 0.9375 0.890625q0.328125 0.578125 0.328125 1.34375q0 0.875 -0.375 1.5q-0.359375 0.625 -1.046875 0.953125q-0.6875 0.328125 -1.640625 0.328125q-1.125 0 -2.359375 -0.46875z"/><path fill="#000" fill-opacity="0" fill-rule="evenodd" d="m200.0 170.51968l52.566925 0"/><path fill-rule="evenodd" stroke="#000" stroke-dasharray="1 3" stroke-linecap="butt" stroke-linejoin="round" stroke-width="1" d="m200.0 170.51968l52.566925 0"/><path fill="#000" fill-opacity="0" fill-rule="evenodd" d="m251.96326 200.0l0.03149414 -29.480316"/><path fill-rule="evenodd" stroke="#000" stroke-dasharray="1 3" stroke-linecap="butt" stroke-linejoin="round" stroke-width="1" d="m251.96326 200.0l0.03149414 -29.480316"/><path fill="red" fill-rule="evenodd" d="m246.41995 170.51968l0 0c0 -3.0701752 2.4888763 -5.5590515 5.5590515 -5.5590515l0 0c1.47435 0 2.888321 0.5856781 3.9308472 1.6282043c1.042511 1.0425262 1.6282043 2.4564972 1.6282043 3.9308472l0 0c0 3.0701752 -2.4888763 5.5590515 -5.5590515 5.5590515l0 0c-3.0701752 0 -5.5590515 -2.4888763 -5.5590515 -5.5590515z"/><path fill-rule="evenodd" stroke="#000" stroke-linecap="butt" stroke-linejoin="round" stroke-width="1" d="m246.41995 170.51968l0 0c0 -3.0701752 2.4888763 -5.5590515 5.5590515 -5.5590515l0 0c1.47435 0 2.888321 0.5856781 3.9308472 1.6282043c1.042511 1.0425262 1.6282043 2.4564972 1.6282043 3.9308472l0 0c0 3.0701752 -2.4888763 5.5590515 -5.5590515 5.5590515l0 0c-3.0701752 0 -5.5590515 -2.4888763 -5.5590515 -5.5590515z"/><path fill="#000" fill-opacity="0" fill-rule="evenodd" d="m239.2126 192.07611l39.086624 0l0 24.53543l-39.086624 0z"/><path fill="#000" fill-rule="nonzero" d="m252.72823 212.17299q0 0.375 0.046875 0.578125q0.046875 0.1875 0.15625 0.3125q0.109375 0.109375 0.296875 0.1875q0.203125 0.0625 0.515625 0.109375q0.3125 0.03125 0.8125 0.046875l0 0.46875l-4.8125 0l0 -0.46875q0.71875 -0.03125 1.03125 -0.09375q0.3125 -0.0625 0.46875 -0.171875q0.171875 -0.109375 0.234375 -0.3125q0.078125 -0.203125 0.078125 -0.65625l0 -5.265625q0 -0.265625 -0.09375 -0.390625q-0.09375 -0.125 -0.265625 -0.125q-0.203125 0 -0.59375 0.21875q-0.375 0.21875 -0.953125 0.59375l-0.28125 -0.5l3.046875 -1.8125l0.359375 0q-0.046875 0.625 -0.046875 1.734375l0 5.546875z"/><path fill="#000" fill-opacity="0" fill-rule="evenodd" d="m169.21523 152.38846l39.08661 0l0 24.53543l-39.08661 0z"/><path fill="#000" fill-rule="nonzero" d="m181.84023 174.29782q-1.40625 0 -2.09375 -1.109375q-0.6875 -1.109375 -0.6875 -3.359375q0 -1.203125 0.203125 -2.0625q0.21875 -0.875 0.59375 -1.4375q0.390625 -0.578125 0.921875 -0.84375q0.53125 -0.28125 1.15625 -0.28125q1.421875 0 2.125 1.109375q0.703125 1.09375 0.703125 3.3125q0 2.296875 -0.75 3.484375q-0.75 1.1875 -2.171875 1.1875zm-1.515625 -4.671875q0 2.125 0.390625 3.125q0.390625 0.984375 1.21875 0.984375q0.796875 0 1.171875 -0.921875q0.375 -0.9375 0.375 -2.90625q0 -1.484375 -0.203125 -2.40625q-0.1875 -0.9375 -0.53125 -1.34375q-0.34375 -0.40625 -0.84375 -0.40625q-0.453125 0 -0.75 0.265625q-0.296875 0.265625 -0.484375 0.78125q-0.1875 0.5 -0.265625 1.21875q-0.078125 0.71875 -0.078125 1.609375zm7.3018036 3.046875l0 1.515625l-1.328125 0l0 -1.515625l1.328125 0zm1.6708069 1.15625l0 -1.375l0.796875 0q0.1875 0.65625 0.578125 0.96875q0.40625 0.3125 1.03125 0.3125q0.859375 0 1.296875 -0.515625q0.453125 -0.515625 0.453125 -1.5625q0 -0.6875 -0.234375 -1.140625q-0.234375 -0.453125 -0.640625 -0.640625q-0.390625 -0.203125 -0.921875 -0.203125q-0.4375 0 -0.765625 0.0625q-0.3125 0.046875 -0.671875 0.15625l-0.53125 -0.296875l0 -4.296875l3.59375 0q0.21875 0 0.3125 -0.03125q0.109375 -0.03125 0.15625 -0.109375q0.0625 -0.078125 0.140625 -0.28125l0.515625 0l-0.109375 1.515625l-3.734375 0l0 2.84375q0.34375 -0.140625 0.734375 -0.203125q0.390625 -0.078125 0.796875 -0.078125q0.765625 0 1.359375 0.328125q0.609375 0.3125 0.9375 0.890625q0.328125 0.578125 0.328125 1.34375q0 0.875 -0.375 1.5q-0.359375 0.625 -1.046875 0.953125q-0.6875 0.328125 -1.640625 0.328125q-1.125 0 -2.359375 -0.46875z"/><path fill="#000" fill-opacity="0" fill-rule="evenodd" d="m303.65616 200.0l0 -61.228348"/><path fill-rule="evenodd" stroke="#000" stroke-dasharray="1 3" stroke-linecap="butt" stroke-linejoin="round" stroke-width="1" d="m303.65616 200.0l0 -61.228348"/><path fill="#000" fill-opacity="0" fill-rule="evenodd" d="m200.0 139.3622l103.24408 0"/><path fill-rule="evenodd" stroke="#000" stroke-dasharray="1 3" stroke-linecap="butt" stroke-linejoin="round" stroke-width="1" d="m200.0 139.3622l103.24408 0"/><path fill="#0ff" fill-rule="evenodd" d="m298.0971 139.3622l0 0c0 -3.0701752 2.4888916 -5.5590515 5.5590515 -5.5590515l0 0c1.4743652 0 2.8883362 0.58569336 3.9308472 1.6282196c1.0425415 1.042511 1.6282043 2.456482 1.6282043 3.930832l0 0c0 3.0701904 -2.488861 5.559067 -5.5590515 5.559067l0 0c-3.07016 0 -5.5590515 -2.4888763 -5.5590515 -5.559067z"/><path fill-rule="evenodd" stroke="#000" stroke-linecap="butt" stroke-linejoin="round" stroke-width="1" d="m298.0971 139.3622l0 0c0 -3.0701752 2.4888916 -5.5590515 5.5590515 -5.5590515l0 0c1.4743652 0 2.8883362 0.58569336 3.9308472 1.6282196c1.0425415 1.042511 1.6282043 2.456482 1.6282043 3.930832l0 0c0 3.0701904 -2.488861 5.559067 -5.5590515 5.559067l0 0c-3.07016 0 -5.5590515 -2.4888763 -5.5590515 -5.559067z"/><path fill="#000" fill-opacity="0" fill-rule="evenodd" d="m292.72702 108.1811l75.46457 0l0 31.181099l-75.46457 0z"/><path fill="#000" fill-rule="nonzero" d="m304.49265 128.34047q0 0.375 0.03125 0.609375q0.046875 0.21875 0.140625 0.359375q0.09375 0.125 0.234375 0.203125q0.15625 0.078125 0.46875 0.15625l0 0.3125l-2.859375 0l0 -0.3125q0.40625 -0.109375 0.546875 -0.234375q0.140625 -0.125 0.171875 -0.359375q0.046875 -0.234375 0.046875 -0.71875l0 -5.6249924q0 -0.453125 -0.03125 -0.65625q-0.03125 -0.203125 -0.109375 -0.3125q-0.078125 -0.125 -0.203125 -0.1875q-0.109375 -0.078125 -0.421875 -0.15625l0 -0.328125l3.234375 0q1.515625 0 2.265625 0.59375q0.75 0.578125 0.75 1.765625q0 0.6875 -0.234375 1.234375q-0.234375 0.53125 -0.671875 0.875q-0.421875 0.34375 -1.015625 0.5q-0.578125 0.140625 -1.21875 0.140625q-0.734375 0 -1.125 -0.03125l0 2.1718674zm0 -2.7031174l0.75 0q0.734375 0 1.21875 -0.1875q0.484375 -0.203125 0.734375 -0.640625q0.25 -0.453125 0.25 -1.1875q0 -0.5625 -0.15625 -0.9375q-0.140625 -0.375 -0.40625 -0.59375q-0.265625 -0.234375 -0.625 -0.328125q-0.359375 -0.09375 -0.796875 -0.09375q-0.640625 0 -0.96875 0.03125l0 3.9375z"/><path fill="#000" fill-rule="nonzero" d="m312.01443 128.96547q0 0.21875 0.015625 0.34375q0.03125 0.109375 0.09375 0.1875q0.0625 0.0625 0.1875 0.109375q0.125 0.03125 0.296875 0.0625q0.1875 0.015625 0.5 0.03125l0 0.28125l-2.890625 0l0 -0.28125q0.4375 -0.03125 0.609375 -0.0625q0.1875 -0.03125 0.28125 -0.09375q0.109375 -0.0625 0.15625 -0.1875q0.046875 -0.125 0.046875 -0.390625l0 -3.1718674q0 -0.15625 -0.0625 -0.21875q-0.046875 -0.078125 -0.15625 -0.078125q-0.125 0 -0.359375 0.125q-0.234375 0.125 -0.5625 0.359375l-0.171875 -0.3125l1.828125 -1.078125l0.203125 0q-0.015625 0.375 -0.015625 1.03125l0 3.3437424z"/><path fill="#000" fill-opacity="0" fill-rule="evenodd" d="m229.70604 142.04987l40.314957 0l0 31.181107l-40.314957 0z"/><path fill="#000" fill-rule="nonzero" d="m241.47166 162.20924q0 0.375 0.03125 0.609375q0.046875 0.21875 0.140625 0.359375q0.09375 0.125 0.234375 0.203125q0.15625 0.078125 0.46875 0.15625l0 0.3125l-2.859375 0l0 -0.3125q0.40625 -0.109375 0.546875 -0.234375q0.140625 -0.125 0.171875 -0.359375q0.046875 -0.234375 0.046875 -0.71875l0 -5.625q0 -0.453125 -0.03125 -0.65625q-0.03125 -0.203125 -0.109375 -0.3125q-0.078125 -0.125 -0.203125 -0.1875q-0.109375 -0.078125 -0.421875 -0.15625l0 -0.328125l3.234375 0q1.515625 0 2.265625 0.59375q0.75 0.578125 0.75 1.765625q0 0.6875 -0.234375 1.234375q-0.234375 0.53125 -0.671875 0.875q-0.421875 0.34375 -1.015625 0.5q-0.578125 0.140625 -1.21875 0.140625q-0.734375 0 -1.125 -0.03125l0 2.171875zm0 -2.703125l0.75 0q0.734375 0 1.21875 -0.1875q0.484375 -0.203125 0.734375 -0.640625q0.25 -0.453125 0.25 -1.1875q0 -0.5625 -0.15625 -0.9375q-0.140625 -0.375 -0.40625 -0.59375q-0.265625 -0.234375 -0.625 -0.328125q-0.359375 -0.09375 -0.796875 -0.09375q-0.640625 0 -0.96875 0.03125l0 3.9375z"/><path fill="#000" fill-opacity="0" fill-rule="evenodd" d="m99.097115 258.6299l100.88189 0"/><path fill-rule="evenodd" stroke="#000" stroke-dasharray="1 3" stroke-linecap="butt" stroke-linejoin="round" stroke-width="1" d="m99.097115 258.6299l100.88189 0"/><path fill="#000" fill-opacity="0" fill-rule="evenodd" d="m98.80577 258.76642l0 -59.527573"/><path fill-rule="evenodd" stroke="#000" stroke-dasharray="1 3" stroke-linecap="butt" stroke-linejoin="round" stroke-width="1" d="m98.80577 258.76642l0 -59.527573"/><path fill="#000" fill-opacity="0" fill-rule="evenodd" d="m68.76378 234.01575l75.46457 0l0 31.181091l-75.46457 0z"/><path fill="#000" fill-rule="nonzero" d="m80.5294 254.17513q0 0.375 0.03125 0.609375q0.046875 0.21875 0.140625 0.359375q0.09375 0.125 0.234375 0.203125q0.15625 0.078125 0.46875 0.15625l0 0.3125l-2.859375 0l0 -0.3125q0.40625 -0.109375 0.546875 -0.234375q0.140625 -0.125 0.171875 -0.359375q0.046875 -0.234375 0.046875 -0.71875l0 -5.625q0 -0.453125 -0.03125 -0.65625q-0.03125 -0.203125 -0.109375 -0.3125q-0.078125 -0.125 -0.203125 -0.1875q-0.109375 -0.078125 -0.421875 -0.15625l0 -0.328125l3.234375 0q1.515625 0 2.265625 0.59375q0.75 0.578125 0.75 1.765625q0 0.6875 -0.234375 1.234375q-0.234375 0.53125 -0.671875 0.875q-0.421875 0.34375 -1.015625 0.5q-0.578125 0.140625 -1.21875 0.140625q-0.734375 0 -1.125 -0.03125l0 2.171875zm0 -2.703125l0.75 0q0.734375 0 1.21875 -0.1875q0.484375 -0.203125 0.734375 -0.640625q0.25 -0.453125 0.25 -1.1875q0 -0.5625 -0.15625 -0.9375q-0.140625 -0.375 -0.40625 -0.59375q-0.265625 -0.234375 -0.625 -0.328125q-0.359375 -0.09375 -0.796875 -0.09375q-0.640625 0 -0.96875 0.03125l0 3.9375z"/><path fill="#000" fill-rule="nonzero" d="m88.08244 255.19075q0.1875 0 0.296875 -0.015625q0.125 -0.03125 0.1875 -0.078125q0.078125 -0.0625 0.109375 -0.140625q0.046875 -0.09375 0.109375 -0.28125l0.328125 0l-0.0625 1.140625l-3.21875 0l0 -0.1875q0.171875 -0.40625 0.453125 -0.828125q0.296875 -0.4375 0.8125 -1.03125q0.453125 -0.5 0.65625 -0.75q0.21875 -0.28125 0.328125 -0.484375q0.109375 -0.203125 0.15625 -0.390625q0.046875 -0.1875 0.046875 -0.359375q0 -0.296875 -0.09375 -0.515625q-0.09375 -0.234375 -0.296875 -0.359375q-0.1875 -0.125 -0.484375 -0.125q-0.734375 0 -0.984375 0.8125l-0.46875 0l0 -0.75q0.46875 -0.234375 0.875 -0.328125q0.421875 -0.09375 0.75 -0.09375q0.71875 0 1.09375 0.3125q0.375 0.3125 0.375 0.921875q0 0.203125 -0.046875 0.390625q-0.03125 0.171875 -0.125 0.34375q-0.09375 0.15625 -0.25 0.359375q-0.140625 0.1875 -0.328125 0.390625q-0.171875 0.203125 -0.609375 0.671875q-0.734375 0.78125 -1.09375 1.375l1.484375 0z"/><path fill="#0ff" fill-rule="evenodd" d="m93.24672 258.6299l0 0c0 -3.0701752 2.4888763 -5.5590515 5.5590515 -5.5590515l0 0c1.4743576 0 2.888321 0.58569336 3.9308472 1.6282196c1.0425262 1.0425262 1.628212 2.4564972 1.628212 3.930832l0 0c0 3.0701904 -2.4888763 5.5590515 -5.559059 5.5590515l0 0c-3.0701752 0 -5.5590515 -2.488861 -5.5590515 -5.5590515z"/><path fill-rule="evenodd" stroke="#000" stroke-linecap="butt" stroke-linejoin="round" stroke-width="1" d="m93.24672 258.6299l0 0c0 -3.0701752 2.4888763 -5.5590515 5.5590515 -5.5590515l0 0c1.4743576 0 2.888321 0.58569336 3.9308472 1.6282196c1.0425262 1.0425262 1.628212 2.4564972 1.628212 3.930832l0 0c0 3.0701904 -2.4888763 5.5590515 -5.559059 5.5590515l0 0c-3.0701752 0 -5.5590515 -2.488861 -5.5590515 -5.5590515z"/><path fill="#000" fill-opacity="0" fill-rule="evenodd" d="m194.92389 239.65355l39.08661 0l0 24.535416l-39.08661 0z"/><path fill="#000" fill-rule="nonzero" d="m207.64264 258.53168l-3.015625 0l0 -1.015625l3.015625 0l0 1.015625zm5.222229 1.21875q0 0.375 0.046875 0.578125q0.046875 0.1875 0.15625 0.3125q0.109375 0.109375 0.296875 0.1875q0.203125 0.0625 0.515625 0.109375q0.3125 0.03125 0.8125 0.046875l0 0.46875l-4.8125 0l0 -0.46875q0.71875 -0.03125 1.03125 -0.09375q0.3125 -0.0625 0.46875 -0.171875q0.171875 -0.109375 0.234375 -0.3125q0.078125 -0.203125 0.078125 -0.65625l0 -5.2656403q0 -0.265625 -0.09375 -0.390625q-0.09375 -0.125 -0.265625 -0.125q-0.203125 0 -0.59375 0.21875q-0.375 0.21875 -0.953125 0.59375l-0.28125 -0.5l3.046875 -1.8125l0.359375 0q-0.046875 0.625 -0.046875 1.734375l0 5.5468903z"/><path fill="#000" fill-opacity="0" fill-rule="evenodd" d="m176.979 120.385826l39.08661 0l0 24.535439l-39.08661 0z"/><path fill="#000" fill-rule="nonzero" d="m190.49463 140.4827q0 0.375 0.046875 0.578125q0.046875 0.1875 0.15625 0.3125q0.109375 0.109375 0.296875 0.1875q0.203125 0.0625 0.515625 0.109375q0.3125 0.03125 0.8125 0.046875l0 0.46875l-4.8125 0l0 -0.46875q0.71875 -0.03125 1.03125 -0.09375q0.3125 -0.0625 0.46875 -0.171875q0.171875 -0.109375 0.234375 -0.3125q0.078125 -0.203125 0.078125 -0.65625l0 -5.265625q0 -0.265625 -0.09375 -0.390625q-0.09375 -0.125 -0.265625 -0.125q-0.203125 0 -0.59375 0.21875q-0.375 0.21875 -0.953125 0.59375l-0.28125 -0.5l3.046875 -1.8125l0.359375 0q-0.046875 0.625 -0.046875 1.734375l0 5.546875z"/><path fill="#000" fill-opacity="0" fill-rule="evenodd" d="m290.88058 192.07611l39.08661 0l0 24.53543l-39.08661 0z"/><path fill="#000" fill-rule="nonzero" d="m304.44308 212.82924q0.328125 0 0.515625 -0.03125q0.203125 -0.046875 0.3125 -0.125q0.125 -0.09375 0.1875 -0.234375q0.078125 -0.15625 0.171875 -0.46875l0.5625 0l-0.109375 1.90625l-5.359375 0l0 -0.3125q0.28125 -0.6875 0.75 -1.390625q0.46875 -0.71875 1.34375 -1.6875q0.765625 -0.84375 1.09375 -1.265625q0.359375 -0.46875 0.53125 -0.8125q0.1875 -0.34375 0.265625 -0.640625q0.078125 -0.3125 0.078125 -0.609375q0 -0.484375 -0.15625 -0.859375q-0.15625 -0.375 -0.484375 -0.59375q-0.3125 -0.21875 -0.796875 -0.21875q-1.21875 0 -1.640625 1.359375l-0.796875 0l0 -1.25q0.796875 -0.375 1.484375 -0.53125q0.6875 -0.171875 1.21875 -0.171875q1.21875 0 1.828125 0.53125q0.625 0.53125 0.625 1.53125q0 0.34375 -0.078125 0.640625q-0.0625 0.28125 -0.203125 0.578125q-0.140625 0.28125 -0.390625 0.609375q-0.25 0.3125 -0.546875 0.65625q-0.296875 0.328125 -1.03125 1.109375q-1.25 1.3125 -1.828125 2.28125l2.453125 0z"/><path fill="#000" fill-opacity="0" fill-rule="evenodd" d="m83.720474 172.99213l39.08661 0l0 24.53543l-39.08661 0z"/><path fill="#000" fill-rule="nonzero" d="m96.439224 191.87025l-3.015625 0l0 -1.015625l3.015625 0l0 1.015625zm5.269104 1.875q0.328125 0 0.515625 -0.03125q0.203125 -0.046875 0.3125 -0.125q0.125 -0.09375 0.1875 -0.234375q0.078125 -0.15625 0.171875 -0.46875l0.5625 0l-0.109375 1.90625l-5.359375 0l0 -0.3125q0.28125 -0.6875 0.75 -1.390625q0.46875 -0.71875 1.34375 -1.6875q0.765625 -0.84375 1.09375 -1.265625q0.359375 -0.46875 0.53125 -0.8125q0.1875 -0.34375 0.265625 -0.640625q0.078125 -0.3125 0.078125 -0.609375q0 -0.484375 -0.15625 -0.859375q-0.15625 -0.375 -0.484375 -0.59375q-0.3125 -0.21875 -0.796875 -0.21875q-1.21875 0 -1.640625 1.359375l-0.796875 0l0 -1.25q0.796875 -0.375 1.484375 -0.53125q0.6875 -0.171875 1.21875 -0.171875q1.21875 0 1.828125 0.53125q0.625 0.53125 0.625 1.53125q0 0.34375 -0.078125 0.640625q-0.0625 0.28125 -0.203125 0.578125q-0.140625 0.28125 -0.390625 0.609375q-0.25 0.3125 -0.546875 0.65625q-0.296875 0.328125 -1.03125 1.109375q-1.25 1.3125 -1.828125 2.28125l2.453125 0z"/></g></svg>