<svg version="1.1" viewBox="0.0 0.0 320.0 120.0" fill="none" stroke="none" stroke-linecap="square" stroke-miterlimit="10" xmlns:xlink="http://www.w3.org/1999/xlink" xmlns="http://www.w3.org/2000/svg"><clipPath id="p.0"><path d="m0 0l320.0 0l0 120.0l-320.0 0l0 -120.0z" clip-rule="nonzero"/></clipPath><g clip-path="url(#p.0)"><path fill="#000000" fill-opacity="0.0" d="m0 0l320.0 0l0 120.0l-320.0 0z" fill-rule="evenodd"/><path fill="#cfe2f3" d="m14.065617 60.0l0 0c0 -18.325417 14.855686 -33.181103 33.181103 -33.181103l0 0c8.800175 0 17.239922 3.4958572 23.462585 9.718521c6.222664 6.222664 9.7185135 14.662407 9.7185135 23.462582l0 0c0 18.325417 -14.855682 33.1811 -33.1811 33.1811l0 0c-18.325417 0 -33.181103 -14.855682 -33.181103 -33.1811z" fill-rule="evenodd"/><path stroke="#000000" stroke-width="1.0" stroke-linejoin="round" stroke-linecap="butt" d="m14.065617 60.0l0 0c0 -18.325417 14.855686 -33.181103 33.181103 -33.181103l0 0c8.800175 0 17.239922 3.4958572 23.462585 9.718521c6.222664 6.222664 9.7185135 14.662407 9.7185135 23.462582l0 0c0 18.325417 -14.855682 33.1811 -33.1811 33.1811l0 0c-18.325417 0 -33.181103 -14.855682 -33.181103 -33.1811z" fill-rule="evenodd"/><path fill="#000000" d="m39.546272 62.904373l0 -1.640625l5.03125 0l0 1.640625l-5.03125 0zm12.572052 4.015625l-1.640625 0l0 -10.453125q-0.59375 0.5625 -1.5625 1.140625q-0.953125 0.5625 -1.71875 0.84375l0 -1.59375q1.375 -0.640625 2.40625 -1.5625q1.03125 -0.921875 1.453125 -1.78125l1.0625 0l0 13.40625z" fill-rule="nonzero"/><path fill="#cfe2f3" d="m127.867455 60.0l0 0c0 -18.325417 14.85569 -33.181103 33.1811 -33.181103l0 0c8.800171 0 17.23993 3.4958572 23.462585 9.718521c6.2226562 6.222664 9.718521 14.662407 9.718521 23.462582l0 0c0 18.325417 -14.855682 33.1811 -33.181107 33.1811l0 0c-18.325409 0 -33.1811 -14.855682 -33.1811 -33.1811z" fill-rule="evenodd"/><path stroke="#000000" stroke-width="1.0" stroke-linejoin="round" stroke-linecap="butt" d="m127.867455 60.0l0 0c0 -18.325417 14.85569 -33.181103 33.1811 -33.181103l0 0c8.800171 0 17.23993 3.4958572 23.462585 9.718521c6.2226562 6.222664 9.718521 14.662407 9.718521 23.462582l0 0c0 18.325417 -14.855682 33.1811 -33.181107 33.1811l0 0c-18.325409 0 -33.1811 -14.855682 -33.1811 -33.1811z" fill-rule="evenodd"/><path fill="#000000" d="m153.34811 62.904373l0 -1.640625l5.03125 0l0 1.640625l-5.03125 0zm12.572052 4.015625l-1.640625 0l0 -10.453125q-0.59375 0.5625 -1.5625 1.140625q-0.953125 0.5625 -1.71875 0.84375l0 -1.59375q1.375 -0.640625 2.40625 -1.5625q1.03125 -0.921875 1.453125 -1.78125l1.0625 0l0 13.40625z" fill-rule="nonzero"/><path fill="#93c47d" d="m241.6693 60.0l0 0c0 -18.325417 14.855667 -33.181103 33.181107 -33.181103l0 0c8.800171 0 17.239899 3.4958572 23.462585 9.718521c6.2226562 6.222664 9.718506 14.662407 9.718506 23.462582l0 0c0 18.325417 -14.855682 33.1811 -33.18109 33.1811l0 0c-18.32544 0 -33.181107 -14.855682 -33.181107 -33.1811z" fill-rule="evenodd"/><path stroke="#000000" stroke-width="1.0" stroke-linejoin="round" stroke-linecap="butt" d="m241.6693 60.0l0 0c0 -18.325417 14.855667 -33.181103 33.181107 -33.181103l0 0c8.800171 0 17.239899 3.4958572 23.462585 9.718521c6.2226562 6.222664 9.718506 14.662407 9.718506 23.462582l0 0c0 18.325417 -14.855682 33.1811 -33.18109 33.1811l0 0c-18.32544 0 -33.181107 -14.855682 -33.181107 -33.1811z" fill-rule="evenodd"/><path fill="#000000" d="m268.88693 64.76375l0 -3.671875l-3.640625 0l0 -1.515625l3.640625 0l0 -3.640625l1.546875 0l0 3.640625l3.640625 0l0 1.515625l-3.640625 0l0 3.671875l-1.546875 0zm13.1762085 2.15625l-1.640625 0l0 -10.453125q-0.59375 0.5625 -1.5625 1.140625q-0.953125 0.5625 -1.71875 0.84375l0 -1.59375q1.375 -0.640625 2.40625 -1.5625q1.03125 -0.921875 1.453125 -1.78125l1.0625 0l0 13.40625z" fill-rule="nonzero"/><path fill="#000000" fill-opacity="0.0" d="m70.709305 36.53742c0 -10.80283 16.71653 -21.613533 33.433067 -21.60566c16.716537 0.007874489 33.433067 10.834327 33.433067 21.668652" fill-rule="evenodd"/><path stroke="#000000" stroke-width="1.0" stroke-linejoin="round" stroke-linecap="butt" d="m70.709305 36.53742c0 -10.80283 16.71653 -21.613533 33.43306 -21.60566c8.358269 0.0039367676 16.716537 2.7125187 22.985237 6.7744064c3.134346 2.030943 5.746315 4.4002132 7.574684 6.9388943c0.9141846 1.2693386 1.6324768 2.5810318 2.1222076 3.9139614c0.06121826 0.16661453 0.11886597 0.33356476 0.17288208 0.5008049l0.048233032 0.15470123" fill-rule="evenodd"/><path fill="#000000" stroke="#000000" stroke-width="1.0" stroke-linecap="butt" d="m137.04561 33.214527l-1.2849121 -0.93720627l1.5887299 2.8787613l0.63339233 -3.2264786z" fill-rule="evenodd"/><path fill="#000000" fill-opacity="0.0" d="m194.22966 60.0c11.859924 0 17.790726 0.01574707 23.719849 0.031497955c5.929138 0.01574707 11.856613 0.03149414 23.713226 0.03149414" fill-rule="evenodd"/><path stroke="#000000" stroke-width="1.0" stroke-linejoin="round" stroke-linecap="butt" d="m194.22966 60.0c11.859924 0 17.790726 0.01574707 23.719849 0.031497955c2.964569 0.007873535 5.928726 0.01574707 9.633804 0.021652222c1.8525391 0.0029525757 3.8903198 0.0054130554 6.2059937 0.007133484l4.446335 0.0015296936" fill-rule="evenodd"/><path fill="#000000" stroke="#000000" stroke-width="1.0" stroke-linecap="butt" d="m238.23564 60.061813l-1.1249695 1.1241989l3.090149 -1.1235237l-3.0893707 -1.1256447z" fill-rule="evenodd"/><path fill="#000000" fill-opacity="0.0" d="m137.58597 83.462585c0 9.689964 -16.71653 19.372063 -33.433067 19.379936c-16.71653 0.007873535 -33.433067 -9.658478 -33.433067 -19.316948" fill-rule="evenodd"/><path stroke="#000000" stroke-width="1.0" stroke-linejoin="round" stroke-linecap="butt" d="m137.58598 83.462585c0 9.689964 -16.716537 19.372063 -33.433075 19.379936c-8.358269 0.0039367676 -16.716537 -2.4106827 -22.985237 -6.0336c-3.1343536 -1.8114548 -5.746315 -3.9249802 -7.574684 -6.189308c-0.9141846 -1.1321564 -1.6324768 -2.3020096 -2.1222153 -3.490654c-0.03060913 -0.074295044 -0.060325623 -0.14865875 -0.089141846 -0.22309113l-0.006187439 -0.01650238" fill-rule="evenodd"/><path fill="#000000" stroke="#000000" stroke-width="1.0" stroke-linecap="butt" d="m71.37544 86.889366l1.3189545 0.8886795l-1.6949005 -2.817566l-0.51272583 3.247841z" fill-rule="evenodd"/><path fill="#000000" fill-opacity="0.0" d="m23.784136 36.53742c0 -11.242443 5.8661423 -21.268349 11.732283 -22.484884c5.8661423 -1.2165356 11.732285 6.376301 11.732285 12.7526" fill-rule="evenodd"/><path stroke="#000000" stroke-width="1.0" stroke-linejoin="round" stroke-linecap="butt" d="m23.784136 36.53742c0 -11.242443 5.8661423 -21.268349 11.732283 -22.484886c2.9330711 -0.6082678 5.8661423 0.9858074 8.065945 3.528987c1.0999031 1.2715912 2.0164871 2.7804546 2.6580963 4.3699436c0.1604042 0.3973713 0.30361557 0.7997818 0.42821503 1.2047844l0.0765686 0.2589798" fill-rule="evenodd"/><path fill="#000000" stroke="#000000" stroke-width="1.0" stroke-linecap="butt" d="m46.745243 23.41523l-1.2775879 -0.947176l1.5662842 2.891039l0.6584778 -3.2214546z" fill-rule="evenodd"/><path fill="#000000" fill-opacity="0.0" d="m161.04855 26.818897c0 -6.603695 5.86615 -14.423925 11.732285 -13.20739c5.86615 1.2165356 11.732285 11.469837 11.732285 22.939674" fill-rule="evenodd"/><path stroke="#000000" stroke-width="1.0" stroke-linejoin="round" stroke-linecap="butt" d="m161.04855 26.818897c0 -6.603695 5.86615 -14.423925 11.732285 -13.20739c2.933075 0.6082678 5.86615 3.475727 8.0659485 7.6248493c1.0998993 2.0745602 2.0164795 4.469536 2.6580963 7.0627384c0.32080078 1.2966003 0.572876 2.6427574 0.74472046 4.023197c0.021469116 0.17255402 0.04171753 0.3456421 0.060668945 0.51924133l0.029129028 0.28696823" fill-rule="evenodd"/><path fill="#000000" stroke="#000000" stroke-width="1.0" stroke-linecap="butt" d="m184.3394 33.1285l-1.1801453 -1.0661316l1.2797546 3.0287895l0.9665222 -3.1428032z" fill-rule="evenodd"/><path fill="#000000" fill-opacity="0.0" d="m87.31233 -11.443569l43.968506 0l0 29.889763l-43.968506 0z" fill-rule="evenodd"/><path fill="#000000" d="m96.85921 5.6533046q0 -1.6875 0.34375 -2.71875q0.359375 -1.0312499 1.046875 -1.5937499q0.6875 -0.5625 1.71875 -0.5625q0.78125 0 1.359375 0.3125q0.578125 0.296875 0.953125 0.890625q0.375 0.5781249 0.59375 1.4218749q0.21875 0.828125 0.21875 2.25q0 1.671875 -0.359375 2.7031255q-0.34375 1.03125 -1.03125 1.59375q-0.671875 0.5625 -1.734375 0.5625q-1.375 0 -2.15625 -0.984375q-0.953125 -1.1875 -0.953125 -3.8750005zm1.203125 0q0 2.34375 0.546875 3.1250005q0.5625 0.78125 1.359375 0.78125q0.8125 0 1.359375 -0.78125q0.5625 -0.7812505 0.5625 -3.1250005q0 -2.359375 -0.5625 -3.125q-0.546875 -0.7812499 -1.359375 -0.7812499q-0.8125 0 -1.296875 0.6874999q-0.609375 0.875 -0.609375 3.21875zm6.8656006 4.7031255l0 -1.328125l1.34375 0l0 1.328125l-1.34375 0zm4.8592377 -5.1718755q-0.734375 -0.265625 -1.09375 -0.765625q-0.34375 -0.5 -0.34375 -1.1875q0 -1.03125 0.75 -1.7343749q0.75 -0.71875 1.984375 -0.71875q1.25 0 2.015625 0.734375q0.765625 0.7187499 0.765625 1.7499999q0 0.671875 -0.359375 1.171875q-0.34375 0.484375 -1.046875 0.75q0.875 0.28125 1.328125 0.921875q0.46875 0.640625 0.46875 1.515625q0 1.2343755 -0.875 2.0625005q-0.859375 0.828125 -2.265625 0.828125q-1.421875 0 -2.28125 -0.828125q-0.859375 -0.84375 -0.859375 -2.0937505q0 -0.921875 0.46875 -1.546875q0.46875 -0.640625 1.34375 -0.859375zm-0.234375 -1.984375q0 0.671875 0.4375 1.109375q0.4375 0.421875 1.125 0.421875q0.671875 0 1.109375 -0.421875q0.4375 -0.421875 0.4375 -1.046875q0 -0.640625 -0.453125 -1.078125q-0.4375 -0.43749988 -1.109375 -0.43749988q-0.671875 0 -1.109375 0.43749988q-0.4375 0.421875 -0.4375 1.015625zm-0.375 4.40625q0 0.5000005 0.234375 0.9687505q0.234375 0.46875 0.703125 0.734375q0.46875 0.25 1.015625 0.25q0.828125 0 1.375 -0.53125q0.546875 -0.546875 0.546875 -1.3906255q0 -0.84375 -0.5625 -1.390625q-0.5625 -0.5625 -1.40625 -0.5625q-0.828125 0 -1.375 0.546875q-0.53125 0.546875 -0.53125 1.375z" fill-rule="nonzero"/><path fill="#000000" fill-opacity="0.0" d="m195.96588 35.44882l43.968506 0l0 29.889767l-43.968506 0z" fill-rule="evenodd"/><path fill="#000000" d="m205.51276 52.545692q0 -1.6875 0.34375 -2.71875q0.359375 -1.03125 1.046875 -1.59375q0.6875 -0.5625 1.71875 -0.5625q0.78125 0 1.359375 0.3125q0.578125 0.296875 0.953125 0.890625q0.375 0.578125 0.59375 1.421875q0.21875 0.828125 0.21875 2.25q0 1.671875 -0.359375 2.703125q-0.34375 1.03125 -1.03125 1.59375q-0.671875 0.5625 -1.734375 0.5625q-1.375 0 -2.15625 -0.984375q-0.953125 -1.1875 -0.953125 -3.875zm1.203125 0q0 2.34375 0.546875 3.125q0.5625 0.78125 1.359375 0.78125q0.8125 0 1.359375 -0.78125q0.5625 -0.78125 0.5625 -3.125q0 -2.359375 -0.5625 -3.125q-0.546875 -0.78125 -1.359375 -0.78125q-0.8125 0 -1.296875 0.6875q-0.609375 0.875 -0.609375 3.21875zm6.8656006 4.703125l0 -1.328125l1.34375 0l0 1.328125l-1.34375 0zm4.8592377 -5.171875q-0.734375 -0.265625 -1.09375 -0.765625q-0.34375 -0.5 -0.34375 -1.1875q0 -1.03125 0.75 -1.734375q0.75 -0.71875 1.984375 -0.71875q1.25 0 2.015625 0.734375q0.765625 0.71875 0.765625 1.75q0 0.671875 -0.359375 1.171875q-0.34375 0.484375 -1.046875 0.75q0.875 0.28125 1.328125 0.921875q0.46875 0.640625 0.46875 1.515625q0 1.234375 -0.875 2.0625q-0.859375 0.828125 -2.265625 0.828125q-1.421875 0 -2.28125 -0.828125q-0.859375 -0.84375 -0.859375 -2.09375q0 -0.921875 0.46875 -1.546875q0.46875 -0.640625 1.34375 -0.859375zm-0.234375 -1.984375q0 0.671875 0.4375 1.109375q0.4375 0.421875 1.125 0.421875q0.671875 0 1.109375 -0.421875q0.4375 -0.421875 0.4375 -1.046875q0 -0.640625 -0.453125 -1.078125q-0.4375 -0.4375 -1.109375 -0.4375q-0.671875 0 -1.109375 0.4375q-0.4375 0.421875 -0.4375 1.015625zm-0.375 4.40625q0 0.5 0.234375 0.96875q0.234375 0.46875 0.703125 0.734375q0.46875 0.25 1.015625 0.25q0.828125 0 1.375 -0.53125q0.546875 -0.546875 0.546875 -1.390625q0 -0.84375 -0.5625 -1.390625q-0.5625 -0.5625 -1.40625 -0.5625q-0.828125 0 -1.375 0.546875q-0.53125 0.546875 -0.53125 1.375z" fill-rule="nonzero"/><path fill="#000000" fill-opacity="0.0" d="m156.92389 -11.443569l43.968506 0l0 29.889763l-43.968506 0z" fill-rule="evenodd"/><path fill="#000000" d="m166.47076 5.6533046q0 -1.6875 0.34375 -2.71875q0.359375 -1.0312499 1.046875 -1.5937499q0.6875 -0.5625 1.71875 -0.5625q0.78125 0 1.359375 0.3125q0.578125 0.296875 0.953125 0.890625q0.375 0.5781249 0.59375 1.4218749q0.21875 0.828125 0.21875 2.25q0 1.671875 -0.359375 2.7031255q-0.34375 1.03125 -1.03125 1.59375q-0.671875 0.5625 -1.734375 0.5625q-1.375 0 -2.15625 -0.984375q-0.953125 -1.1875 -0.953125 -3.8750005zm1.203125 0q0 2.34375 0.546875 3.1250005q0.5625 0.78125 1.359375 0.78125q0.8125 0 1.359375 -0.78125q0.5625 -0.7812505 0.5625 -3.1250005q0 -2.359375 -0.5625 -3.125q-0.546875 -0.7812499 -1.359375 -0.7812499q-0.8125 0 -1.296875 0.6874999q-0.609375 0.875 -0.609375 3.21875zm6.8656006 4.7031255l0 -1.328125l1.34375 0l0 1.328125l-1.34375 0zm7.4686127 0l-1.171875 0l0 -7.4687505q-0.421875 0.40625 -1.109375 0.8125q-0.6875 0.40625 -1.234375 0.609375l0 -1.140625q0.984375 -0.453125 1.71875 -1.109375q0.734375 -0.6718749 1.03125 -1.2812499l0.765625 0l0 9.578125z" fill-rule="nonzero"/><path fill="#000000" fill-opacity="0.0" d="m83.90026 93.1811l43.968506 0l0 29.88977l-43.968506 0z" fill-rule="evenodd"/><path fill="#000000" d="m93.447136 110.27798q0 -1.6875 0.34375 -2.71875q0.359375 -1.03125 1.046875 -1.59375q0.6875 -0.5625 1.71875 -0.5625q0.78125 0 1.359375 0.3125q0.578125 0.296875 0.953125 0.890625q0.375 0.578125 0.59375 1.421875q0.21875 0.828125 0.21875 2.25q0 1.671875 -0.359375 2.703125q-0.34375 1.03125 -1.03125 1.59375q-0.671875 0.5625 -1.734375 0.5625q-1.375 0 -2.15625 -0.984375q-0.953125 -1.1875 -0.953125 -3.875zm1.203125 0q0 2.34375 0.546875 3.125q0.5625 0.78125 1.359375 0.78125q0.8125 0 1.359375 -0.78125q0.5625 -0.78125 0.5625 -3.125q0 -2.359375 -0.5625 -3.125q-0.546875 -0.78125 -1.359375 -0.78125q-0.8125 0 -1.296875 0.6875q-0.609375 0.875 -0.609375 3.21875zm6.8656006 4.703125l0 -1.328125l1.34375 0l0 1.328125l-1.34375 0zm7.4686127 0l-1.171875 0l0 -7.46875q-0.421875 0.40625 -1.109375 0.8125q-0.6875 0.40625 -1.234375 0.609375l0 -1.140625q0.984375 -0.453125 1.71875 -1.109375q0.734375 -0.671875 1.03125 -1.28125l0.765625 0l0 9.578125z" fill-rule="nonzero"/><path fill="#000000" fill-opacity="0.0" d="m17.700787 -11.443569l43.968506 0l0 29.889763l-43.968506 0z" fill-rule="evenodd"/><path fill="#000000" d="m27.247662 5.6533046q0 -1.6875 0.34375 -2.71875q0.359375 -1.0312499 1.046875 -1.5937499q0.6875 -0.5625 1.71875 -0.5625q0.78125 0 1.359375 0.3125q0.578125 0.296875 0.953125 0.890625q0.375 0.5781249 0.59375 1.4218749q0.21875 0.828125 0.21875 2.25q0 1.671875 -0.359375 2.7031255q-0.34375 1.03125 -1.03125 1.59375q-0.671875 0.5625 -1.734375 0.5625q-1.375 0 -2.15625 -0.984375q-0.953125 -1.1875 -0.953125 -3.8750005zm1.203125 0q0 2.34375 0.546875 3.1250005q0.5625 0.78125 1.359375 0.78125q0.8125 0 1.359375 -0.78125q0.5625 -0.7812505 0.5625 -3.1250005q0 -2.359375 -0.5625 -3.125q-0.546875 -0.7812499 -1.359375 -0.7812499q-0.8125 0 -1.296875 0.6874999q-0.609375 0.875 -0.609375 3.21875zm6.8656006 4.7031255l0 -1.328125l1.34375 0l0 1.328125l-1.34375 0zm9.202988 -1.125l0 1.125l-6.296875 0q-0.015625 -0.421875 0.140625 -0.8125q0.234375 -0.640625 0.765625 -1.265625q0.53125 -0.6250005 1.53125 -1.4531255q1.5625 -1.265625 2.109375 -2.015625q0.546875 -0.75 0.546875 -1.40625q0 -0.703125 -0.5 -1.171875q-0.5 -0.48437488 -1.296875 -0.48437488q-0.859375 0 -1.375 0.5156249q-0.5 0.5 -0.5 1.390625l-1.203125 -0.109375q0.125 -1.359375 0.921875 -2.0625q0.8125 -0.703125 2.171875 -0.703125q1.375 0 2.171875 0.765625q0.8125 0.7499999 0.8125 1.8749999q0 0.578125 -0.234375 1.140625q-0.234375 0.546875 -0.78125 1.15625q-0.546875 0.609375 -1.8125 1.671875q-1.046875 0.8906255 -1.359375 1.2187505q-0.296875 0.3125 -0.484375 0.625l4.671875 0z" fill-rule="nonzero"/><path fill="#000000" fill-opacity="0.0" d="m30.75853 86.580055l32.97638 0l0 27.71653l-32.97638 0z" fill-rule="evenodd"/><path fill="#000000" d="m39.72728 113.50005l5.125 -13.359375l1.90625 0l5.46875 13.359375l-2.015625 0l-1.546875 -4.046875l-5.59375 0l-1.46875 4.046875l-1.875 0zm3.859375 -5.484375l4.53125 0l-1.40625 -3.703125q-0.625 -1.6875 -0.9375 -2.765625q-0.265625 1.28125 -0.71875 2.546875l-1.46875 3.921875z" fill-rule="nonzero"/><path fill="#000000" fill-opacity="0.0" d="m143.51181 86.580055l32.97638 0l0 27.71653l-32.97638 0z" fill-rule="evenodd"/><path fill="#000000" d="m153.87119 113.50005l0 -13.359375l5.015625 0q1.53125 0 2.453125 0.40625q0.921875 0.40625 1.4375 1.25q0.53125 0.84375 0.53125 1.765625q0 0.859375 -0.46875 1.625q-0.453125 0.75 -1.390625 1.203125q1.203125 0.359375 1.859375 1.21875q0.65625 0.859375 0.65625 2.015625q0 0.9375 -0.40625 1.75q-0.390625 0.796875 -0.984375 1.234375q-0.578125 0.4375 -1.453125 0.671875q-0.875 0.21875 -2.15625 0.21875l-5.09375 0zm1.78125 -7.75l2.875 0q1.1875 0 1.6875 -0.140625q0.671875 -0.203125 1.015625 -0.671875q0.34375 -0.46875 0.34375 -1.171875q0 -0.65625 -0.328125 -1.15625q-0.3125 -0.515625 -0.90625 -0.703125q-0.59375 -0.1875 -2.03125 -0.1875l-2.65625 0l0 4.03125zm0 6.171875l3.3125 0q0.859375 0 1.203125 -0.0625q0.609375 -0.109375 1.015625 -0.359375q0.421875 -0.265625 0.6875 -0.75q0.265625 -0.484375 0.265625 -1.125q0 -0.75 -0.390625 -1.296875q-0.375 -0.546875 -1.0625 -0.765625q-0.671875 -0.234375 -1.953125 -0.234375l-3.078125 0l0 4.59375z" fill-rule="nonzero"/><path fill="#000000" fill-opacity="0.0" d="m258.3622 86.580055l32.97638 0l0 27.71653l-32.97638 0z" fill-rule="evenodd"/><path fill="#000000" d="m278.33096 108.81255l1.765625 0.453125q-0.5625 2.171875 -2.0 3.328125q-1.4375 1.140625 -3.53125 1.140625q-2.15625 0 -3.515625 -0.875q-1.34375 -0.890625 -2.0625 -2.546875q-0.703125 -1.671875 -0.703125 -3.59375q0 -2.078125 0.796875 -3.625q0.796875 -1.5625 2.265625 -2.359375q1.484375 -0.8125 3.25 -0.8125q2.0 0 3.359375 1.015625q1.375 1.015625 1.90625 2.875l-1.734375 0.40625q-0.46875 -1.453125 -1.359375 -2.109375q-0.875 -0.671875 -2.203125 -0.671875q-1.546875 0 -2.578125 0.734375q-1.03125 0.734375 -1.453125 1.984375q-0.421875 1.234375 -0.421875 2.5625q0 1.703125 0.5 2.96875q0.5 1.265625 1.546875 1.90625q1.046875 0.625 2.265625 0.625q1.484375 0 2.515625 -0.859375q1.03125 -0.859375 1.390625 -2.546875z" fill-rule="nonzero"/></g></svg>