<svg version="1.1" viewBox="0.0 0.0 640.0 120.0" fill="none" stroke="none" stroke-linecap="square" stroke-miterlimit="10" xmlns:xlink="http://www.w3.org/1999/xlink" xmlns="http://www.w3.org/2000/svg"><clipPath id="p.0"><path d="m0 0l640.0 0l0 120.0l-640.0 0l0 -120.0z" clip-rule="nonzero"/></clipPath><g clip-path="url(#p.0)"><path fill="#000000" fill-opacity="0.0" d="m0 0l640.0 0l0 120.0l-640.0 0z" fill-rule="evenodd"/><path fill="#cfe2f3" d="m171.9685 61.548557l0 0c0 -18.325417 14.961441 -33.181103 33.417328 -33.181103l0 0c8.8628235 0 17.36264 3.4958553 23.629608 9.718521c6.266968 6.222664 9.787704 14.662407 9.787704 23.462582l0 0c0 18.325413 -14.961441 33.181103 -33.417313 33.181103l0 0c-18.455887 0 -33.417328 -14.85569 -33.417328 -33.181103z" fill-rule="evenodd"/><path stroke="#000000" stroke-width="1.0" stroke-linejoin="round" stroke-linecap="butt" d="m171.9685 61.548557l0 0c0 -18.325417 14.961441 -33.181103 33.417328 -33.181103l0 0c8.8628235 0 17.36264 3.4958553 23.629608 9.718521c6.266968 6.222664 9.787704 14.662407 9.787704 23.462582l0 0c0 18.325413 -14.961441 33.181103 -33.417313 33.181103l0 0c-18.455887 0 -33.417328 -14.85569 -33.417328 -33.181103z" fill-rule="evenodd"/><path fill="#000000" d="m197.68538 64.45293l0 -1.6406212l5.03125 0l0 1.6406212l-5.03125 0zm12.572052 4.015625l-1.640625 0l0 -10.453121q-0.59375 0.5625 -1.5625 1.140625q-0.953125 0.5625 -1.71875 0.84375l0 -1.59375q1.375 -0.640625 2.40625 -1.5625q1.03125 -0.921875 1.453125 -1.78125l1.0625 0l0 13.406246z" fill-rule="nonzero"/><path fill="#cfe2f3" d="m286.58218 61.548557l0 0c0 -18.325417 14.961456 -33.181103 33.417328 -33.181103l0 0c8.8628235 0 17.36264 3.4958553 23.629608 9.718521c6.266968 6.222664 9.78772 14.662407 9.78772 23.462582l0 0c0 18.325413 -14.961456 33.181103 -33.417328 33.181103l0 0c-18.455872 0 -33.417328 -14.85569 -33.417328 -33.181103z" fill-rule="evenodd"/><path stroke="#000000" stroke-width="1.0" stroke-linejoin="round" stroke-linecap="butt" d="m286.58218 61.548557l0 0c0 -18.325417 14.961456 -33.181103 33.417328 -33.181103l0 0c8.8628235 0 17.36264 3.4958553 23.629608 9.718521c6.266968 6.222664 9.78772 14.662407 9.78772 23.462582l0 0c0 18.325413 -14.961456 33.181103 -33.417328 33.181103l0 0c-18.455872 0 -33.417328 -14.85569 -33.417328 -33.181103z" fill-rule="evenodd"/><path fill="#000000" d="m312.29907 64.45293l0 -1.6406212l5.03125 0l0 1.6406212l-5.03125 0zm12.572052 4.015625l-1.640625 0l0 -10.453121q-0.59375 0.5625 -1.5625 1.140625q-0.953125 0.5625 -1.71875 0.84375l0 -1.59375q1.375 -0.640625 2.40625 -1.5625q1.03125 -0.921875 1.453125 -1.78125l1.0625 0l0 13.406246z" fill-rule="nonzero"/><path fill="#93c47d" d="m401.19586 61.548557l0 0c0 -18.325417 14.961456 -33.181103 33.417328 -33.181103l0 0c8.8628235 0 17.36267 3.4958553 23.629608 9.718521c6.266968 6.222664 9.78772 14.662407 9.78772 23.462582l0 0c0 18.325413 -14.961456 33.181103 -33.417328 33.181103l0 0c-18.455872 0 -33.417328 -14.85569 -33.417328 -33.181103z" fill-rule="evenodd"/><path stroke="#000000" stroke-width="1.0" stroke-linejoin="round" stroke-linecap="butt" d="m401.19586 61.548557l0 0c0 -18.325417 14.961456 -33.181103 33.417328 -33.181103l0 0c8.8628235 0 17.36267 3.4958553 23.629608 9.718521c6.266968 6.222664 9.78772 14.662407 9.78772 23.462582l0 0c0 18.325413 -14.961456 33.181103 -33.417328 33.181103l0 0c-18.455872 0 -33.417328 -14.85569 -33.417328 -33.181103z" fill-rule="evenodd"/><path fill="#000000" d="m428.64972 66.3123l0 -3.6718712l-3.640625 0l0 -1.515625l3.640625 0l0 -3.640625l1.546875 0l0 3.640625l3.640625 0l0 1.515625l-3.640625 0l0 3.6718712l-1.546875 0zm13.1762085 2.15625l-1.640625 0l0 -10.453121q-0.59375 0.5625 -1.5625 1.140625q-0.953125 0.5625 -1.71875 0.84375l0 -1.59375q1.375 -0.640625 2.40625 -1.5625q1.03125 -0.921875 1.453125 -1.78125l1.0625 0l0 13.406246z" fill-rule="nonzero"/><path fill="#000000" fill-opacity="0.0" d="m229.01544 38.085976c0 -10.802832 16.842514 -21.613535 33.685028 -21.605661c16.84253 0.0078754425 33.68506 10.834326 33.68506 21.668653" fill-rule="evenodd"/><path stroke="#000000" stroke-width="1.0" stroke-linejoin="round" stroke-linecap="butt" d="m229.01544 38.08597c0 -10.802828 16.842514 -21.613531 33.685028 -21.605658c8.421265 0.0039367676 16.84253 2.7125206 23.158478 6.7744064c3.157959 2.030943 5.789612 4.400215 7.631775 6.9388943c0.921051 1.2693405 1.6447754 2.5810318 2.1381836 3.9139633c0.061676025 0.16661453 0.119781494 0.33356476 0.17419434 0.5008011l0.048797607 0.15530014" fill-rule="evenodd"/><path fill="#000000" stroke="#000000" stroke-width="1.0" stroke-linecap="butt" d="m295.8519 34.76368l-1.2859802 -0.9357567l1.59198 2.8769722l0.62976074 -3.227192z" fill-rule="evenodd"/><path fill="#000000" fill-opacity="0.0" d="m353.41684 61.548557c11.946533 0 17.920654 0.01574707 23.893097 0.03149414c5.9724426 0.015750885 11.943207 0.031497955 23.886414 0.031497955" fill-rule="evenodd"/><path stroke="#000000" stroke-width="1.0" stroke-linejoin="round" stroke-linecap="butt" d="m353.41684 61.548557c11.946564 0 17.920685 0.01574707 23.893127 0.03149414c2.986206 0.007873535 5.9720154 0.015750885 9.704132 0.021656036c1.8661194 0.0029525757 3.9187622 0.0054130554 6.2513733 0.007133484l4.5038147 0.001537323" fill-rule="evenodd"/><path fill="#000000" stroke="#000000" stroke-width="1.0" stroke-linecap="butt" d="m397.7693 61.61038l-1.1249695 1.1241989l3.090149 -1.1235275l-3.089386 -1.125637z" fill-rule="evenodd"/><path fill="#000000" fill-opacity="0.0" d="m296.3699 85.01114c0 9.689972 -16.84253 19.372063 -33.68506 19.379936c-16.842514 0.007873535 -33.685028 -9.65847 -33.685028 -19.316948" fill-rule="evenodd"/><path stroke="#000000" stroke-width="1.0" stroke-linejoin="round" stroke-linecap="butt" d="m296.3699 85.01114c0 9.689964 -16.84253 19.372063 -33.68506 19.379936c-8.421249 0.0039367676 -16.842514 -2.410675 -23.158447 -6.0336c-3.1579742 -1.8114548 -5.789627 -3.9249802 -7.631775 -6.1893005c-0.92108154 -1.1321564 -1.6447906 -2.3020096 -2.1381989 -3.4906616c-0.030853271 -0.074287415 -0.060775757 -0.14865112 -0.08981323 -0.2230835l-0.006591797 -0.017410278" fill-rule="evenodd"/><path fill="#000000" stroke="#000000" stroke-width="1.0" stroke-linecap="butt" d="m229.66003 88.43702l1.3201599 0.88687897l-1.6987457 -2.8152466l-0.5082855 3.2485352z" fill-rule="evenodd"/><path fill="#000000" fill-opacity="0.0" d="m181.75621 38.085976c0 -11.242443 5.9055176 -21.26835 11.81102 -22.484886c5.9055176 -1.2165356 11.811035 6.3763 11.811035 12.752601" fill-rule="evenodd"/><path stroke="#000000" stroke-width="1.0" stroke-linejoin="round" stroke-linecap="butt" d="m181.75621 38.08597c0 -11.242439 5.9055176 -21.268347 11.81102 -22.484882c2.9527588 -0.6082678 5.9055176 0.9858074 8.120087 3.528986c1.1072845 1.2715912 2.030014 2.7804585 2.6759338 4.3699455c0.16148376 0.3973713 0.3056488 0.7997818 0.43107605 1.2047825l0.07725525 0.25946426" fill-rule="evenodd"/><path fill="#000000" stroke="#000000" stroke-width="1.0" stroke-linecap="butt" d="m204.87157 24.964268l-1.2784882 -0.9459553l1.569046 2.8895416l0.6553955 -3.2220802z" fill-rule="evenodd"/><path fill="#000000" fill-opacity="0.0" d="m319.9995 28.367455c0 -6.603695 5.9055176 -14.423925 11.811035 -13.207391c5.905487 1.2165365 11.811005 11.469836 11.811005 22.939674" fill-rule="evenodd"/><path stroke="#000000" stroke-width="1.0" stroke-linejoin="round" stroke-linecap="butt" d="m319.9995 28.367455c0 -6.603695 5.9055176 -14.423926 11.811005 -13.207391c2.9527588 0.6082678 5.9055176 3.475728 8.120087 7.6248484c1.1072998 2.0745602 2.0300293 4.4695377 2.6759338 7.0627384c0.32296753 1.2966022 0.5767212 2.6427593 0.74972534 4.0231953c0.021636963 0.17255783 0.041992188 0.3456459 0.06109619 0.51924515l0.029296875 0.28702545" fill-rule="evenodd"/><path fill="#000000" stroke="#000000" stroke-width="1.0" stroke-linecap="butt" d="m343.4467 34.677116l-1.1805115 -1.065731l1.2807922 3.0283546l0.9654236 -3.1431313z" fill-rule="evenodd"/><path fill="#000000" fill-opacity="0.0" d="m245.73776 -9.895013l44.283447 0l0 29.889763l-44.283447 0z" fill-rule="evenodd"/><path fill="#000000" d="m258.36276 12.014361q-1.40625 0 -2.09375 -1.109375q-0.6875 -1.109375 -0.6875 -3.3593755q0 -1.203125 0.203125 -2.0625q0.21875 -0.875 0.59375 -1.4375q0.390625 -0.57812476 0.921875 -0.84374976q0.53125 -0.28125 1.15625 -0.28125q1.421875 0 2.125 1.1093748q0.703125 1.09375 0.703125 3.3125q0 2.2968755 -0.75 3.4843755q-0.75 1.1875 -2.171875 1.1875zm-1.515625 -4.6718755q0 2.1250005 0.390625 3.1250005q0.390625 0.984375 1.21875 0.984375q0.796875 0 1.171875 -0.921875q0.375 -0.9375 0.375 -2.9062505q0 -1.484375 -0.203125 -2.40625q-0.1875 -0.9375 -0.53125 -1.3437498q-0.34375 -0.40625 -0.84375 -0.40625q-0.453125 0 -0.75 0.265625q-0.296875 0.265625 -0.484375 0.78124976q-0.1875 0.5 -0.265625 1.21875q-0.078125 0.71875 -0.078125 1.609375zm7.3017883 3.0468755l0 1.515625l-1.328125 0l0 -1.515625l1.328125 0zm5.858307 -3.1718755l0.015625 0.078125q0.734375 0.28125 1.109375 0.8437505q0.375 0.546875 0.375 1.3125q0 0.765625 -0.375 1.34375q-0.359375 0.578125 -1.046875 0.90625q-0.6875 0.3125 -1.609375 0.3125q-0.875 0 -1.53125 -0.28125q-0.65625 -0.296875 -1.015625 -0.859375q-0.359375 -0.5625 -0.359375 -1.3125q0 -0.5625 0.1875 -0.96875q0.203125 -0.421875 0.515625 -0.6875005q0.328125 -0.28125 0.796875 -0.5l0 -0.09375q-1.40625 -0.59375 -1.40625 -2.078125q0 -0.65625 0.359375 -1.1875q0.375 -0.53124976 1.046875 -0.82812476q0.6875 -0.296875 1.515625 -0.296875q0.9375 0 1.578125 0.265625q0.640625 0.265625 0.953125 0.765625q0.328125 0.48437476 0.328125 1.1874998q0 0.71875 -0.359375 1.234375q-0.34375 0.515625 -1.078125 0.84375zm-3.125 -2.03125q0 0.375 0.09375 0.71875q0.09375 0.34375 0.296875 0.59375q0.203125 0.234375 0.515625 0.390625q0.328125 0.140625 0.796875 0.140625q0.546875 0 0.90625 -0.203125q0.375 -0.21875 0.546875 -0.625q0.1875 -0.40625 0.1875 -0.9375q0 -0.59375 -0.21875 -1.0q-0.203125 -0.40624976 -0.578125 -0.59374976q-0.375 -0.203125 -0.859375 -0.203125q-0.8125 0 -1.25 0.453125q-0.4375 0.43749976 -0.4375 1.2656248zm-0.0625 4.2656255q0 0.421875 0.09375 0.796875q0.09375 0.359375 0.296875 0.625q0.21875 0.265625 0.546875 0.421875q0.34375 0.15625 0.8125 0.15625q0.53125 0 0.90625 -0.21875q0.390625 -0.21875 0.59375 -0.640625q0.203125 -0.4375 0.203125 -1.015625q0 -0.625 -0.21875 -1.078125q-0.21875 -0.453125 -0.609375 -0.6875005q-0.390625 -0.234375 -0.90625 -0.234375q-0.484375 0 -0.8125 0.15625q-0.328125 0.140625 -0.53125 0.39062548q-0.203125 0.25 -0.296875 0.59375q-0.078125 0.34375 -0.078125 0.734375z" fill-rule="nonzero"/><path fill="#000000" fill-opacity="0.0" d="m355.1664 36.997375l44.283478 0l0 29.889763l-44.283478 0z" fill-rule="evenodd"/><path fill="#000000" d="m364.7133 54.09425q0 -1.6875 0.34375 -2.71875q0.359375 -1.03125 1.046875 -1.59375q0.6875 -0.5625 1.71875 -0.5625q0.78125 0 1.359375 0.3125q0.578125 0.296875 0.953125 0.890625q0.375 0.578125 0.59375 1.421875q0.21875 0.828125 0.21875 2.25q0 1.671875 -0.359375 2.703125q-0.34375 1.03125 -1.03125 1.59375q-0.671875 0.5625 -1.734375 0.5625q-1.375 0 -2.15625 -0.984375q-0.953125 -1.1875 -0.953125 -3.875zm1.203125 0q0 2.34375 0.546875 3.125q0.5625 0.78125 1.359375 0.78125q0.8125 0 1.359375 -0.78125q0.5625 -0.78125 0.5625 -3.125q0 -2.359375 -0.5625 -3.125q-0.546875 -0.78125 -1.359375 -0.78125q-0.8125 0 -1.296875 0.6875q-0.609375 0.875 -0.609375 3.21875zm6.8656006 4.703125l0 -1.328125l1.34375 0l0 1.328125l-1.34375 0zm4.859253 -5.171875q-0.734375 -0.265625 -1.09375 -0.765625q-0.34375 -0.5 -0.34375 -1.1875q0 -1.03125 0.75 -1.734375q0.75 -0.71875 1.984375 -0.71875q1.25 0 2.015625 0.734375q0.765625 0.71875 0.765625 1.75q0 0.671875 -0.359375 1.171875q-0.34375 0.484375 -1.046875 0.75q0.875 0.28125 1.328125 0.921875q0.46875 0.640625 0.46875 1.515625q0 1.234375 -0.875 2.0625q-0.859375 0.828125 -2.265625 0.828125q-1.421875 0 -2.28125 -0.828125q-0.859375 -0.84375 -0.859375 -2.09375q0 -0.921875 0.46875 -1.546875q0.46875 -0.640625 1.34375 -0.859375zm-0.234375 -1.984375q0 0.671875 0.4375 1.109375q0.4375 0.421875 1.125 0.421875q0.671875 0 1.109375 -0.421875q0.4375 -0.421875 0.4375 -1.046875q0 -0.640625 -0.453125 -1.078125q-0.4375 -0.4375 -1.109375 -0.4375q-0.671875 0 -1.109375 0.4375q-0.4375 0.421875 -0.4375 1.015625zm-0.375 4.40625q0 0.5 0.234375 0.96875q0.234375 0.46875 0.703125 0.734375q0.46875 0.25 1.015625 0.25q0.828125 0 1.375 -0.53125q0.546875 -0.546875 0.546875 -1.390625q0 -0.84375 -0.5625 -1.390625q-0.5625 -0.5625 -1.40625 -0.5625q-0.828125 0 -1.375 0.546875q-0.53125 0.546875 -0.53125 1.375z" fill-rule="nonzero"/><path fill="#000000" fill-opacity="0.0" d="m315.84592 -9.895013l44.283447 0l0 29.889763l-44.283447 0z" fill-rule="evenodd"/><path fill="#000000" d="m328.47092 12.014361q-1.40625 0 -2.09375 -1.109375q-0.6875 -1.109375 -0.6875 -3.3593755q0 -1.203125 0.203125 -2.0625q0.21875 -0.875 0.59375 -1.4375q0.390625 -0.57812476 0.921875 -0.84374976q0.53125 -0.28125 1.15625 -0.28125q1.421875 0 2.125 1.1093748q0.703125 1.09375 0.703125 3.3125q0 2.2968755 -0.75 3.4843755q-0.75 1.1875 -2.171875 1.1875zm-1.515625 -4.6718755q0 2.1250005 0.390625 3.1250005q0.390625 0.984375 1.21875 0.984375q0.796875 0 1.171875 -0.921875q0.375 -0.9375 0.375 -2.9062505q0 -1.484375 -0.203125 -2.40625q-0.1875 -0.9375 -0.53125 -1.3437498q-0.34375 -0.40625 -0.84375 -0.40625q-0.453125 0 -0.75 0.265625q-0.296875 0.265625 -0.484375 0.78124976q-0.1875 0.5 -0.265625 1.21875q-0.078125 0.71875 -0.078125 1.609375zm7.3017883 3.0468755l0 1.515625l-1.328125 0l0 -1.515625l1.328125 0zm5.217682 -0.1875q0 0.375 0.046875 0.578125q0.046875 0.1875 0.15625 0.3125q0.109375 0.109375 0.296875 0.1875q0.203125 0.0625 0.515625 0.109375q0.3125 0.03125 0.8125 0.046875l0 0.46875l-4.8125 0l0 -0.46875q0.71875 -0.03125 1.03125 -0.09375q0.3125 -0.0625 0.46875 -0.171875q0.171875 -0.109375 0.234375 -0.3125q0.078125 -0.203125 0.078125 -0.65625l0 -5.2656255q0 -0.265625 -0.09375 -0.390625q-0.09375 -0.125 -0.265625 -0.125q-0.203125 0 -0.59375 0.21875q-0.375 0.21875 -0.953125 0.59375l-0.28125 -0.5l3.046875 -1.8124998l0.359375 0q-0.046875 0.625 -0.046875 1.7343748l0 5.5468755z" fill-rule="nonzero"/><path fill="#000000" fill-opacity="0.0" d="m242.30135 94.72966l44.283463 0l0 29.889763l-44.283463 0z" fill-rule="evenodd"/><path fill="#000000" d="m254.92635 116.63903q-1.40625 0 -2.09375 -1.109375q-0.6875 -1.109375 -0.6875 -3.359375q0 -1.203125 0.203125 -2.0625q0.21875 -0.875 0.59375 -1.4375q0.390625 -0.578125 0.921875 -0.84375q0.53125 -0.28125 1.15625 -0.28125q1.4218597 0 2.1249847 1.109375q0.703125 1.09375 0.703125 3.3125q0 2.296875 -0.75 3.484375q-0.75 1.1875 -2.1718597 1.1875zm-1.515625 -4.671875q0 2.125 0.390625 3.125q0.390625 0.984375 1.21875 0.984375q0.796875 0 1.1718597 -0.921875q0.375 -0.9375 0.375 -2.90625q0 -1.484375 -0.203125 -2.40625q-0.1875 -0.9375 -0.53123474 -1.34375q-0.34375 -0.40625 -0.84375 -0.40625q-0.453125 0 -0.75 0.265625q-0.296875 0.265625 -0.484375 0.78125q-0.1875 0.5 -0.265625 1.21875q-0.078125 0.71875 -0.078125 1.609375zm7.3018036 3.046875l0 1.515625l-1.328125 0l0 -1.515625l1.328125 0zm5.217682 -0.1875q0 0.375 0.046875 0.578125q0.046875 0.1875 0.15625 0.3125q0.109375 0.109375 0.296875 0.1875q0.203125 0.0625 0.515625 0.109375q0.3125 0.03125 0.8125 0.046875l0 0.46875l-4.8125 0l0 -0.46875q0.71875 -0.03125 1.03125 -0.09375q0.3125 -0.0625 0.46875 -0.171875q0.171875 -0.109375 0.234375 -0.3125q0.078125 -0.203125 0.078125 -0.65625l0 -5.265625q0 -0.265625 -0.09375 -0.390625q-0.09375 -0.125 -0.265625 -0.125q-0.203125 0 -0.59375 0.21875q-0.375 0.21875 -0.953125 0.59375l-0.28125 -0.5l3.046875 -1.8125l0.359375 0q-0.046875 0.625 -0.046875 1.734375l0 5.546875z" fill-rule="nonzero"/><path fill="#000000" fill-opacity="0.0" d="m175.62961 -9.895013l44.283463 0l0 29.889763l-44.283463 0z" fill-rule="evenodd"/><path fill="#000000" d="m188.25461 12.014361q-1.40625 0 -2.09375 -1.109375q-0.6875 -1.109375 -0.6875 -3.3593755q0 -1.203125 0.203125 -2.0625q0.21875 -0.875 0.59375 -1.4375q0.390625 -0.57812476 0.921875 -0.84374976q0.53125 -0.28125 1.15625 -0.28125q1.421875 0 2.125 1.1093748q0.703125 1.09375 0.703125 3.3125q0 2.2968755 -0.75 3.4843755q-0.75 1.1875 -2.171875 1.1875zm-1.515625 -4.6718755q0 2.1250005 0.390625 3.1250005q0.390625 0.984375 1.21875 0.984375q0.796875 0 1.171875 -0.921875q0.375 -0.9375 0.375 -2.9062505q0 -1.484375 -0.203125 -2.40625q-0.1875 -0.9375 -0.53125 -1.3437498q-0.34375 -0.40625 -0.84375 -0.40625q-0.453125 0 -0.75 0.265625q-0.296875 0.265625 -0.484375 0.78124976q-0.1875 0.5 -0.265625 1.21875q-0.078125 0.71875 -0.078125 1.609375zm7.3018036 3.0468755l0 1.515625l-1.328125 0l0 -1.515625l1.328125 0zm5.264557 0.46875q0.328125 0 0.515625 -0.03125q0.203125 -0.046875 0.3125 -0.125q0.125 -0.09375 0.1875 -0.234375q0.078125 -0.15625 0.171875 -0.46875l0.5625 0l-0.109375 1.90625l-5.359375 0l0 -0.3125q0.28125 -0.6875 0.75 -1.390625q0.46875 -0.71875 1.34375 -1.6875q0.765625 -0.8437505 1.09375 -1.2656255q0.359375 -0.46875 0.53125 -0.8125q0.1875 -0.34375 0.265625 -0.640625q0.078125 -0.3125 0.078125 -0.609375q0 -0.484375 -0.15625 -0.859375q-0.15625 -0.37499976 -0.484375 -0.59374976q-0.3125 -0.21875 -0.796875 -0.21875q-1.21875 0 -1.640625 1.3593748l-0.796875 0l0 -1.2499998q0.796875 -0.375 1.484375 -0.53125q0.6875 -0.171875 1.21875 -0.171875q1.21875 0 1.828125 0.53125q0.625 0.53125 0.625 1.5312498q0 0.34375 -0.078125 0.640625q-0.0625 0.28125 -0.203125 0.578125q-0.140625 0.28125 -0.390625 0.609375q-0.25 0.3125 -0.546875 0.65625q-0.296875 0.328125 -1.03125 1.1093755q-1.25 1.3125 -1.828125 2.28125l2.453125 0z" fill-rule="nonzero"/><path fill="#000000" fill-opacity="0.0" d="m188.7805 88.12861l33.196854 0l0 27.716537l-33.196854 0z" fill-rule="evenodd"/><path fill="#000000" d="m205.74925 109.79861l-0.8125 -5.046875l-3.09375 5.046875l3.90625 0zm-1.390625 5.25l0.140625 -0.59375q0.28125 -0.03125 0.65625 -0.078125q0.375 -0.0625 0.59375 -0.125q0.28125 -0.09375 0.421875 -0.1875q0.140625 -0.09375 0.140625 -0.3125q0 -0.0625 -0.109375 -0.875q-0.109375 -0.828125 -0.3125 -2.3125l-4.53125 0q-0.3125 0.46875 -0.65625 1.09375q-0.328125 0.625 -0.515625 0.953125q-0.15625 0.28125 -0.3125 0.640625q-0.140625 0.359375 -0.140625 0.484375q0 0.296875 0.484375 0.484375q0.484375 0.1875 1.203125 0.234375l-0.140625 0.59375l-4.953125 0l0.125 -0.59375q0.25 -0.03125 0.625 -0.109375q0.375 -0.09375 0.625 -0.234375q0.328125 -0.1875 0.625 -0.453125q0.296875 -0.265625 0.625 -0.8125q1.578125 -2.484375 3.453125 -5.546875q1.890625 -3.0625 3.3125 -5.359375l0.734375 0l1.71875 11.203125q0.0625 0.328125 0.1875 0.5625q0.125 0.234375 0.375 0.4375q0.1875 0.125 0.5 0.21875q0.3125 0.078125 0.546875 0.09375l-0.140625 0.59375l-5.28125 0z" fill-rule="nonzero"/><path fill="#000000" fill-opacity="0.0" d="m302.33813 88.12861l33.19687 0l0 27.716537l-33.19687 0z" fill-rule="evenodd"/><path fill="#000000" d="m322.10376 102.62673q0.5 0.28125 0.78125 0.734375q0.28125 0.453125 0.28125 1.046875q0 0.828125 -0.328125 1.46875q-0.328125 0.625 -0.859375 1.046875q-0.53125 0.4375 -1.21875 0.734375q-0.671875 0.28125 -1.375 0.40625l0 0.09375q0.53125 0.0625 1.09375 0.25q0.5625 0.1875 1.03125 0.484375q0.484375 0.328125 0.78125 0.84375q0.3125 0.5 0.3125 1.1875q0 1.03125 -0.484375 1.828125q-0.484375 0.78125 -1.203125 1.265625q-0.78125 0.53125 -1.6875 0.78125q-0.890625 0.25 -1.84375 0.25l-6.3125 0l0.140625 -0.59375q0.21875 -0.03125 0.65625 -0.078125q0.4375 -0.0625 0.640625 -0.140625q0.3125 -0.140625 0.484375 -0.359375q0.171875 -0.21875 0.234375 -0.546875l2.15625 -9.375q0.03125 -0.09375 0.03125 -0.171875q0.015625 -0.09375 0.015625 -0.1875q0 -0.1875 -0.078125 -0.328125q-0.078125 -0.140625 -0.265625 -0.25q-0.265625 -0.140625 -0.5625 -0.203125q-0.296875 -0.078125 -0.546875 -0.09375l0.140625 -0.59375l5.703125 0q0.65625 0 1.203125 0.109375q0.5625 0.109375 1.078125 0.390625zm-1.9375 4.203125q0.421875 -0.5 0.609375 -1.0625q0.1875 -0.5625 0.1875 -1.265625q0 -0.484375 -0.171875 -0.8125q-0.171875 -0.34375 -0.46875 -0.546875q-0.296875 -0.1875 -0.671875 -0.265625q-0.359375 -0.078125 -0.765625 -0.078125q-0.296875 0 -0.671875 0.015625q-0.359375 0.015625 -0.609375 0.015625l-1.171875 5.03125l1.140625 0q0.890625 0 1.546875 -0.28125q0.65625 -0.28125 1.046875 -0.75zm-0.59375 6.25q0.390625 -0.53125 0.59375 -1.171875q0.203125 -0.640625 0.203125 -1.265625q0 -0.96875 -0.65625 -1.515625q-0.65625 -0.5625 -1.84375 -0.5625q-0.578125 0 -0.984375 0.015625q-0.40625 0.015625 -0.625 0.015625l-1.015625 4.453125q-0.03125 0.125 -0.046875 0.234375q-0.015625 0.109375 -0.015625 0.21875q0 0.46875 0.484375 0.6875q0.484375 0.203125 1.234375 0.203125q0.921875 0 1.59375 -0.375q0.671875 -0.375 1.078125 -0.9375z" fill-rule="nonzero"/><path fill="#000000" fill-opacity="0.0" d="m418.00787 88.12861l33.19684 0l0 27.716537l-33.19684 0z" fill-rule="evenodd"/><path fill="#000000" d="m432.75787 115.34548q-1.0 0 -1.890625 -0.34375q-0.875 -0.34375 -1.53125 -1.015625q-0.65625 -0.671875 -1.046875 -1.625q-0.375 -0.953125 -0.375 -2.15625q0 -1.71875 0.578125 -3.21875q0.59375 -1.5 1.609375 -2.671875q0.984375 -1.125 2.359375 -1.8125q1.390625 -0.6875 2.890625 -0.6875q1.140625 0 2.0 0.265625q0.859375 0.265625 1.421875 0.65625l0.5 -0.609375l0.734375 0l-0.984375 4.609375l-0.75 0l0 -0.375q0 -0.734375 -0.125 -1.40625q-0.109375 -0.6875 -0.453125 -1.234375q-0.328125 -0.53125 -0.890625 -0.84375q-0.5625 -0.3125 -1.453125 -0.3125q-1.125 0 -2.09375 0.59375q-0.953125 0.59375 -1.65625 1.59375q-0.6875 0.953125 -1.109375 2.375q-0.421875 1.40625 -0.421875 2.875q0 1.9375 0.953125 3.15625q0.953125 1.203125 2.5625 1.203125q1.34375 0 2.46875 -0.796875q1.125 -0.796875 1.828125 -2.125l0.65625 0.34375q-1.140625 1.96875 -2.5625 2.765625q-1.40625 0.796875 -3.21875 0.796875z" fill-rule="nonzero"/></g></svg>