<svg xmlns="http://www.w3.org/2000/svg" xmlns:svg="http://www.w3.org/2000/svg" id="svg2" width="302.893" height="227.303" version="1.1" viewBox="0 0 302.893 227.303" xml:space="preserve"><metadata id="metadata8"/><g id="g10" transform="matrix(1.3333333,0,0,-1.3333333,0,227.30267)"><g id="g12" transform="translate(0.199,0.199)"><g id="g14"><g id="g16" transform="translate(0.199,0.2)"><g id="g18"><g id="g20"><g id="g22"><path style="fill:none;stroke:#000;stroke-width:.3985;stroke-linecap:butt;stroke-linejoin:miter;stroke-miterlimit:10;stroke-dasharray:none;stroke-opacity:1" id="path24" d="M 0,0 H 226.77448 M 0,28.3468 H 226.77448 M 0,56.69362 H 226.77448 M 0,85.04042 H 226.77448 M 0,113.38724 H 226.77448 M 0,141.73404 H 226.77448 M 0,170.07089 H 226.77448 M 0,0 V 170.08086 M 28.3468,0 V 170.08086 M 56.69362,0 V 170.08086 M 85.04042,0 V 170.08086 M 113.38724,0 V 170.08086 M 141.73404,0 V 170.08086 M 170.08086,0 V 170.08086 M 198.42766,0 V 170.08086 M 226.76451,0 v 170.08086"/></g><g id="g26"><g id="g28"><path style="fill:#7c7c7c;fill-opacity:1;fill-rule:nonzero;stroke:none" id="path30" d="M 1.61667,1.61667 H 26.73012 V 26.73012 H 1.61667 Z"/></g></g><g id="g38"><g id="g40"><path style="fill:#7c7c7c;fill-opacity:1;fill-rule:nonzero;stroke:none" id="path42" d="M 29.96347,1.61667 H 55.07692 V 26.73012 H 29.96347 Z"/></g></g><g id="g50"><g id="g52"><path style="fill:#7c7c7c;fill-opacity:1;fill-rule:nonzero;stroke:none" id="path54" d="M 58.31029,1.61667 H 83.42374 V 26.73012 H 58.31029 Z"/></g></g><g id="g62"><g id="g64"><path style="fill:#7c7c7c;fill-opacity:1;fill-rule:nonzero;stroke:none" id="path66" d="m 86.65709,1.61667 h 25.11345 V 26.73012 H 86.65709 Z"/></g></g><g id="g74"><g id="g76"><path style="fill:#7c7c7c;fill-opacity:1;fill-rule:nonzero;stroke:none" id="path78" d="m 115.0039,1.61667 h 25.11345 V 26.73012 H 115.0039 Z"/></g></g><g id="g86"><g id="g88"><path style="fill:#7c7c7c;fill-opacity:1;fill-rule:nonzero;stroke:none" id="path90" d="m 143.35071,1.61667 h 25.11345 v 25.11345 h -25.11345 z"/></g></g><g id="g98"><g id="g100"><path style="fill:#7c7c7c;fill-opacity:1;fill-rule:nonzero;stroke:none" id="path102" d="m 171.69753,1.61667 h 25.11345 v 25.11345 h -25.11345 z"/></g></g><g id="g110"><g id="g112"><path style="fill:#7c7c7c;fill-opacity:1;fill-rule:nonzero;stroke:none" id="path114" d="m 200.04433,1.61667 h 25.11345 v 25.11345 h -25.11345 z"/></g></g><g id="g122"><g id="g124"><path style="fill:#7c7c7c;fill-opacity:1;fill-rule:nonzero;stroke:none" id="path126" d="M 1.61667,29.96347 H 26.73012 V 55.07692 H 1.61667 Z"/></g></g><g id="g134"><g id="g136"><path style="fill:#7c7c7c;fill-opacity:1;fill-rule:nonzero;stroke:none" id="path138" d="M 1.61667,58.31029 H 26.73012 V 83.42374 H 1.61667 Z"/></g></g><g id="g146"><g id="g148"><path style="fill:#7c7c7c;fill-opacity:1;fill-rule:nonzero;stroke:none" id="path150" d="M 29.96347,29.96347 H 55.07692 V 55.07692 H 29.96347 Z"/></g></g><g id="g158"><g id="g160"><path style="fill:#7c7c7c;fill-opacity:1;fill-rule:nonzero;stroke:none" id="path162" d="M 29.96347,58.31029 H 55.07692 V 83.42374 H 29.96347 Z"/></g></g><g id="g170"><g id="g172"><path style="fill:#7c7c7c;fill-opacity:1;fill-rule:nonzero;stroke:none" id="path174" d="M 58.31029,29.96347 H 83.42374 V 55.07692 H 58.31029 Z"/></g></g><g id="g182"><g id="g184"><path style="fill:#7c7c7c;fill-opacity:1;fill-rule:nonzero;stroke:none" id="path186" d="M 58.31029,58.31029 H 83.42374 V 83.42374 H 58.31029 Z"/></g></g><g id="g194"><g id="g196"><path style="fill:#7c7c7c;fill-opacity:1;fill-rule:nonzero;stroke:none" id="path198" d="m 86.65709,29.96347 h 25.11345 V 55.07692 H 86.65709 Z"/></g></g><g id="g206"><g id="g208"><path style="fill:#7c7c7c;fill-opacity:1;fill-rule:nonzero;stroke:none" id="path210" d="m 86.65709,58.31029 h 25.11345 V 83.42374 H 86.65709 Z"/></g></g><g id="g218"><g id="g220"><path style="fill:#7c7c7c;fill-opacity:1;fill-rule:nonzero;stroke:none" id="path222" d="m 115.0039,29.96347 h 25.11345 V 55.07692 H 115.0039 Z"/></g></g><g id="g230"><g id="g232"><path style="fill:#7c7c7c;fill-opacity:1;fill-rule:nonzero;stroke:none" id="path234" d="m 115.0039,58.31029 h 25.11345 V 83.42374 H 115.0039 Z"/></g></g><g id="g242"><g id="g244"><path style="fill:#7c7c7c;fill-opacity:1;fill-rule:nonzero;stroke:none" id="path246" d="m 143.35071,29.96347 h 25.11345 v 25.11345 h -25.11345 z"/></g></g><g id="g254"><g id="g256"><path style="fill:#7c7c7c;fill-opacity:1;fill-rule:nonzero;stroke:none" id="path258" d="m 143.35071,58.31029 h 25.11345 v 25.11345 h -25.11345 z"/></g></g><g id="g266"><g id="g268"><path style="fill:#7c7c7c;fill-opacity:1;fill-rule:nonzero;stroke:none" id="path270" d="m 1.61667,86.65709 h 25.11345 v 25.11345 H 1.61667 Z"/></g></g><g id="g278"><g id="g280"><path style="fill:#7c7c7c;fill-opacity:1;fill-rule:nonzero;stroke:none" id="path282" d="m 29.96347,86.65709 h 25.11345 v 25.11345 H 29.96347 Z"/></g></g><g id="g290"><g id="g292"><path style="fill:#7c7c7c;fill-opacity:1;fill-rule:nonzero;stroke:none" id="path294" d="m 58.31029,86.65709 h 25.11345 v 25.11345 H 58.31029 Z"/></g></g><g id="g302"><g id="g304"><path style="fill:#7c7c7c;fill-opacity:1;fill-rule:nonzero;stroke:none" id="path306" d="m 86.65709,86.65709 h 25.11345 v 25.11345 H 86.65709 Z"/></g></g><g id="g314"><g id="g316"><path style="fill:#7c7c7c;fill-opacity:1;fill-rule:nonzero;stroke:none" id="path318" d="m 115.0039,86.65709 h 25.11345 v 25.11345 H 115.0039 Z"/></g></g><g id="g326"><g id="g328"><path style="fill:#7c7c7c;fill-opacity:1;fill-rule:nonzero;stroke:none" id="path330" d="m 1.61667,115.0039 h 25.11345 v 25.11345 H 1.61667 Z"/></g></g><g id="g338"><g id="g340"><path style="fill:#7c7c7c;fill-opacity:1;fill-rule:nonzero;stroke:none" id="path342" d="m 29.96347,115.0039 h 25.11345 v 25.11345 H 29.96347 Z"/></g></g><g id="g350"><g id="g352"><path style="fill:#7c7c7c;fill-opacity:1;fill-rule:nonzero;stroke:none" id="path354" d="m 58.31029,115.0039 h 25.11345 v 25.11345 H 58.31029 Z"/></g></g><g id="g362"><g id="g364"><path style="fill:#7c7c7c;fill-opacity:1;fill-rule:nonzero;stroke:none" id="path366" d="m 86.65709,115.0039 h 25.11345 v 25.11345 H 86.65709 Z"/></g></g><g id="g374"><g id="g376"><path style="fill:#7c7c7c;fill-opacity:1;fill-rule:nonzero;stroke:none" id="path378" d="m 1.61667,143.35071 h 25.11345 v 25.11345 H 1.61667 Z"/></g></g><g id="g386"><g id="g388"><path style="fill:#7c7c7c;fill-opacity:1;fill-rule:nonzero;stroke:none" id="path390" d="m 29.96347,143.35071 h 25.11345 v 25.11345 H 29.96347 Z"/></g></g><g id="g398"><g id="g400" transform="matrix(0.7,0,0,0.7,150.528,98.389)"><g id="g402"><g id="g404" transform="translate(-150.926,-98.788)"><text style="font-variant:normal;font-weight:400;font-size:9.96259975px;font-family:CMMI10;-inkscape-font-specification:CMMI10;writing-mode:lr-tb;fill:#000;fill-opacity:1;fill-rule:nonzero;stroke:none" id="text408" transform="matrix(1,0,0,-1,150.926,98.788)"><tspan id="tspan406" x="0 5.694 10.125" y="0">x,y</tspan></text></g></g></g></g><g id="g414"><g id="g416" transform="matrix(0.7,0,0,0.7,116.177,97.643)"><g id="g418"><g id="g420" transform="translate(-116.575,-98.042)"><text style="font-variant:normal;font-weight:400;font-size:9.96259975px;font-family:CMMI10;-inkscape-font-specification:CMMI10;writing-mode:lr-tb;fill:#000;fill-opacity:1;fill-rule:nonzero;stroke:none" id="text424" transform="matrix(1,0,0,-1,116.575,98.042)"><tspan id="tspan422" x="0" y="0">x</tspan></text><text style="font-variant:normal;font-weight:400;font-size:9.96259975px;font-family:CMSY10;-inkscape-font-specification:CMSY10;writing-mode:lr-tb;fill:#000;fill-opacity:1;fill-rule:nonzero;stroke:none" id="text428" transform="matrix(1,0,0,-1,124.483,98.042)"><tspan id="tspan426" x="0" y="0">−</tspan></text><text style="font-variant:normal;font-weight:400;font-size:9.96259975px;font-family:CMR10;-inkscape-font-specification:CMR10;writing-mode:lr-tb;fill:#000;fill-opacity:1;fill-rule:nonzero;stroke:none" id="text432" transform="matrix(1,0,0,-1,134.445,98.042)"><tspan id="tspan430" x="0" y="0">1</tspan></text><text style="font-variant:normal;font-weight:400;font-size:9.96259975px;font-family:CMMI10;-inkscape-font-specification:CMMI10;writing-mode:lr-tb;fill:#000;fill-opacity:1;fill-rule:nonzero;stroke:none" id="text436" transform="matrix(1,0,0,-1,139.427,98.042)"><tspan id="tspan434" x="0 4.431" y="0">,y</tspan></text></g></g></g></g><g id="g442"><g id="g444" transform="matrix(0.7,0,0,0.7,172.87,97.643)"><g id="g446"><g id="g448" transform="translate(-173.268,-98.042)"><text style="font-variant:normal;font-weight:400;font-size:9.96259975px;font-family:CMMI10;-inkscape-font-specification:CMMI10;writing-mode:lr-tb;fill:#000;fill-opacity:1;fill-rule:nonzero;stroke:none" id="text452" transform="matrix(1,0,0,-1,173.268,98.042)"><tspan id="tspan450" x="0" y="0">x</tspan></text><text style="font-variant:normal;font-weight:400;font-size:9.96259975px;font-family:CMR10;-inkscape-font-specification:CMR10;writing-mode:lr-tb;fill:#000;fill-opacity:1;fill-rule:nonzero;stroke:none" id="text456" transform="matrix(1,0,0,-1,181.175,98.042)"><tspan id="tspan454" x="0 9.961" y="0">+1</tspan></text><text style="font-variant:normal;font-weight:400;font-size:9.96259975px;font-family:CMMI10;-inkscape-font-specification:CMMI10;writing-mode:lr-tb;fill:#000;fill-opacity:1;fill-rule:nonzero;stroke:none" id="text460" transform="matrix(1,0,0,-1,196.119,98.042)"><tspan id="tspan458" x="0 4.431" y="0">,y</tspan></text></g></g></g></g><g id="g466"><g id="g468" transform="matrix(0.7,0,0,0.7,144.523,69.297)"><g id="g470"><g id="g472" transform="translate(-144.921,-69.696)"><text style="font-variant:normal;font-weight:400;font-size:9.96259975px;font-family:CMMI10;-inkscape-font-specification:CMMI10;writing-mode:lr-tb;fill:#000;fill-opacity:1;fill-rule:nonzero;stroke:none" id="text476" transform="matrix(1,0,0,-1,144.921,69.696)"><tspan id="tspan474" x="0 5.694 10.125" y="0">x,y</tspan></text><text style="font-variant:normal;font-weight:400;font-size:9.96259975px;font-family:CMSY10;-inkscape-font-specification:CMSY10;writing-mode:lr-tb;fill:#000;fill-opacity:1;fill-rule:nonzero;stroke:none" id="text480" transform="matrix(1,0,0,-1,162.499,69.696)"><tspan id="tspan478" x="0" y="0">−</tspan></text><text style="font-variant:normal;font-weight:400;font-size:9.96259975px;font-family:CMR10;-inkscape-font-specification:CMR10;writing-mode:lr-tb;fill:#000;fill-opacity:1;fill-rule:nonzero;stroke:none" id="text484" transform="matrix(1,0,0,-1,172.461,69.696)"><tspan id="tspan482" x="0" y="0">1</tspan></text></g></g></g></g><g id="g490"><g id="g492" transform="matrix(0.7,0,0,0.7,144.523,125.99)"><g id="g494"><g id="g496" transform="translate(-144.921,-126.389)"><text style="font-variant:normal;font-weight:400;font-size:9.96259975px;font-family:CMMI10;-inkscape-font-specification:CMMI10;writing-mode:lr-tb;fill:#000;fill-opacity:1;fill-rule:nonzero;stroke:none" id="text500" transform="matrix(1,0,0,-1,144.921,126.389)"><tspan id="tspan498" x="0 5.694 10.125" y="0">x,y</tspan></text><text style="font-variant:normal;font-weight:400;font-size:9.96259975px;font-family:CMR10;-inkscape-font-specification:CMR10;writing-mode:lr-tb;fill:#000;fill-opacity:1;fill-rule:nonzero;stroke:none" id="text504" transform="matrix(1,0,0,-1,162.499,126.389)"><tspan id="tspan502" x="0 9.961" y="0">+1</tspan></text></g></g></g></g></g></g></g></g></g></g></svg>