<svg xmlns="http://www.w3.org/2000/svg" xmlns:svg="http://www.w3.org/2000/svg" id="svg3781" width="640" height="280" version="1.1"><metadata id="metadata3787"/><g id="g3779" transform="matrix(1.9795604,0,0,1.8880254,-35.496813,3.1518008)"><g style="stroke:#000" id="g3767"><path style="fill:#ff7f00" id="path2467" d="m 61.4747,145.6696 c -0.91951,-0.5701 -0.905212,-1.0155 0.112507,-3.50464 1.03121,-2.52212 0.858871,-3.25902 -0.825169,-3.5283 -0.58036,-0.0928 -1.0552,-0.22951 -1.0552,-0.30379 0,-0.0743 0.953327,-1.76201 2.11851,-3.75052 3.26672,-5.57507 5.19821,-10.9923 5.29685,-14.8561 l 0.0489,-1.9158 -1.2078,-1.1417 c -1.45333,-1.37379 -2.28881,-1.62013 -6.2565,-1.84467 -6.4669,-0.36598 -10.0888,1.2409 -13.1614,5.8391 -2.3217,3.47454 -3.97368,7.3824 -4.92367,11.6473 -0.28738,1.29018 -0.70269,2.69418 -0.922901,3.12004 -0.49448,0.95621 -1.40056,1.36325 -1.92324,0.864 -0.483932,-0.46225 -0.192341,-1.79039 1.71353,-7.8047 2.45168,-7.73668 3.01592,-10.9072 1.9411,-10.9072 -0.94342,0 -2.89238,2.42757 -7.48471,9.32271 -2.50361,3.75904 -4.73829,6.98922 -4.96597,7.17817 -0.731831,0.60738 -1.04799,-0.0999 -1.03091,-2.30633 0.01366,-1.76379 0.15028,-2.32726 1.09212,-4.50408 1.28739,-2.97549 1.51936,-3.96518 1.10907,-4.73183 -0.27677,-0.51711 -0.448229,-0.55692 -1.78529,-0.41434 l -1.4791,0.1577 0.9167,-0.4852 c 2.0865,-1.10449 15.408,-6.30356 23.5714,-9.19935 6.72533,-2.38568 8.73856,-3.57027 10.1481,-5.97123 1.68107,-2.86346 0.574631,-6.38268 -3.19009,-10.146596 -2.9663,-2.9657 -4.11463,-3.58696 -6.90039,-3.73317 -2.68013,-0.140671 -4.54981,0.232391 -6.99809,1.39636 -3.54155,1.68374 -6.42244,4.22445 -11.4298,10.080096 -3.65417,4.27323 -5.28707,5.82742 -5.4165,5.15537 -0.113119,-0.58744 0.63628,-1.84858 2.40877,-4.05354 2.73381,-3.40082 6.64965,-9.994546 6.28546,-10.583796 -0.297428,-0.481239 -3.6432,0.0064 -8.58291,1.2511 -2.58071,0.650253 -4.7827,1.08875 -4.89332,0.974449 -0.33007,-0.341057 -2.30846,-6.29017 -3.00301,-9.03015 -0.35519,-1.40125 -0.774879,-3.76089 -0.932621,-5.24364 -0.496948,-4.67129 0.175871,-16.0251 1.22226,-20.6257 0.40239,-1.76916 0.429359,-1.80907 1.03564,-1.53283 0.342371,0.155998 0.708561,0.473907 0.813761,0.706478 0.10519,0.232582 0.27677,4.0175 0.381279,8.41094 0.205101,8.62214 0.476501,10.6612 1.93466,14.5351 0.940981,2.49998 1.72323,3.76221 3.14198,5.06998 1.96444,1.81076 3.1392,2.19635 7.11166,2.33422 4.79373,0.166382 10.9147,-0.837807 12.0545,-1.97764 0.398418,-0.398422 0.35326,-0.49736 -0.619213,-1.35646 -0.576927,-0.509682 -2.45334,-1.67277 -4.16978,-2.58464 -1.71645,-0.911858 -3.41183,-1.88156 -3.76752,-2.15488 l -0.6467,-0.497 0.9665,-0.0058 c 1.15508,-0.007 3.81164,0.920967 7.25289,2.5334 6.07016,2.84426 7.34424,2.84763 7.76227,0.02054 0.17028,-1.1516 0.22084,-1.21761 0.725693,-0.947418 0.298458,0.159744 1.43461,0.999825 2.52476,1.86687 2.4352,1.93684 3.46288,2.41544 4.27974,1.99316 1.54876,-0.800613 2.9145,-3.31467 3.35152,-6.16945 0.672745,-4.39463 -1.07259,-11.6725 -4.36893,-18.2182 -2.12666,-4.22297 -6.23637,-10.2035 -9.05896,-13.1827 -2.07417,-2.18926 -3.69521,-3.13058 -5.83095,-3.38597 -4.20245,-0.502533 -8.60005,-2.64051 -11.9324,-5.80123 -1.97268,-1.87105 -4.03816,-3.06078 -7.03128,-4.05007 -3.13237,-1.03531 -5.36642,-2.13616 -5.91539,-2.91489 -0.39171,-0.55566 -0.386761,-0.600258 0.0748,-0.673847 0.27186,-0.04335 1.87913,0.280758 3.57172,0.72023 3.33346,0.86552 4.16745,0.94762 5.29017,0.52076 0.89068,-0.338642 1.12624,-0.678181 1.13147,-1.63095 0.0067,-1.22714 -0.85145,-2.52874 -5.15545,-7.81928 -5.16611,-6.35024 -7.79822,-9.87885 -7.54936,-10.1207 0.362139,-0.35188 7.02917,7.24366 10.6574,12.1417 1.07465,1.45075 2.7572,4.0436 3.739,5.76189 2.26797,3.96928 3.91736,6.20803 6.02926,8.18362 2.39109,2.23674 3.88245,2.78064 7.6508,2.79023 3.28378,0.0084 4.18243,-0.352932 4.58562,-1.84361 0.535343,-1.97925 -0.829109,-4.39132 -8.64384,-15.2807 -6.37478,-8.88288 -9.27942,-13.21 -10.2904,-15.3299 -1.36917,-2.87095 -0.374529,-2.13334 2.62612,1.94752 1.11305,1.51374 2.53851,3.51543 3.1677,4.4482 l 1.144,1.6959 0.6305,-1.434 c 1.0631,-2.4179 1.35555,-4.46486 1.36046,-9.52216 0.004,-4.15635 0.06117,-4.77526 0.507679,-5.49999 0.433319,-0.70331 1.00464,-2.03405 1.68709,-3.92965 0.16534,-0.45927 0.211109,-0.46387 0.651329,-0.06548 0.260418,0.23568 0.78833,0.42851 1.17311,0.42851 0.888039,0 0.893349,0.31437 0.06108,3.6192 -1.5685,6.22822 -2.22819,12.9984 -1.78378,18.3062 0.159389,1.90363 0.446369,3.78934 0.637753,4.19047 0.36414,0.763241 1.27546,1.04484 2.43753,0.75317 1.63895,-0.41135 4.38101,-4.66419 5.23058,-8.11246 0.283627,-1.15123 0.559196,-4.08595 0.762379,-8.11904 0.311481,-6.18291 0.325409,-6.28298 0.660629,-4.74469 0.188332,0.86428 0.583069,2.13707 0.877182,2.82841 0.665958,1.56543 0.56691,3.27773 -0.585243,10.1164 -1.81961,10.8005 -1.51419,15.5622 1.45886,22.7443 1.73166,4.18323 3.25843,5.90584 4.53673,5.11867 1.34466,-0.828041 1.94158,-6.06572 1.69738,-14.8936 -0.209457,-7.57201 -0.242378,-7.45002 2.01032,-7.45002 1.50239,0 1.61753,-0.04843 2.70806,-1.13897 0.626434,-0.626431 2.00526,-2.46497 3.06403,-4.08565 1.89817,-2.90552 1.92796,-2.93551 2.1324,-2.14657 0.23732,0.91585 1.08503,1.60929 1.9673,1.60929 1.48639,0 1.03812,0.95875 -2.68926,5.75172 -3.39863,4.37024 -4.65886,6.56719 -4.78753,8.34604 -0.09176,1.26858 -0.02495,1.56158 0.45517,1.99609 1.40027,1.26721 3.77571,0.134148 6.58882,-3.14278 1.04485,-1.21714 2.00652,-2.21299 2.13701,-2.21299 0.130508,0 0.02119,0.279579 -0.242897,0.6213 -8.86032,11.4642 -9.91264,13.6854 -9.88045,20.8549 0.01496,3.33274 0.102341,4.07826 0.713753,6.09023 0.861298,2.8343 2.34951,5.88401 4.12354,8.45025 2.88707,4.1763 9.41708,9.49396 13.028,10.6093 2.06246,0.637016 2.76219,0.640045 4.13227,0.01783 3.2847,-1.49173 3.84412,-6.79512 1.50477,-14.2656 -0.366554,-1.17053 -1.61453,-4.19073 -2.77328,-6.71156 -2.53247,-5.50933 -3.43161,-7.90366 -4.27448,-11.3827 -0.676186,-2.79099 -0.800056,-4.65608 -0.382248,-5.75502 0.396133,-1.04187 1.02102,-0.81971 1.60956,0.572231 0.882614,2.08744 1.11888,2.47797 1.7489,2.89078 0.554062,0.363029 0.667259,0.352127 1.30757,-0.125931 1.16701,-0.871311 1.42221,-2.28287 1.26923,-7.02079 -0.07443,-2.30476 -0.377792,-5.88989 -0.674187,-7.96697 -0.296387,-2.07708 -0.478798,-3.83659 -0.405357,-3.91003 0.185867,-0.185869 1.85142,0.636379 2.88328,1.42342 0.472672,0.360519 0.929283,0.933929 1.01469,1.27424 0.08541,0.340309 -0.13884,1.75082 -0.498344,3.13447 -0.817245,3.14538 -0.817017,3.29488 0.005,3.29488 0.461975,0 0.813545,-0.25412 1.17759,-0.851191 0.285431,-0.468161 0.519417,-0.99379 0.519958,-1.16808 5.34e-4,-0.17428 0.586517,-0.86458 1.30218,-1.534 1.50926,-1.41174 2.2551,-3.10722 2.52478,-5.73942 l 0.1766,-1.7241 0.5,0.8221 c 0.395638,0.65056 0.635216,0.79627 1.14806,0.69824 0.560745,-0.107201 0.624802,-0.0492 0.47525,0.430309 -0.09507,0.304821 -1.90973,4.031 -4.03258,8.28039 -4.17799,8.36325 -5.82717,12.012 -6.96337,15.4065 -0.675262,2.0174 -0.706825,2.28998 -0.422195,3.64696 0.169205,0.806629 0.675621,2.0738 1.1254,2.81592 0.734047,1.21119 4.99756,6.1817 5.45127,6.35525 0.171104,0.06545 4.35628,-12.5256 5.50772,-16.5699 1.80681,-6.34616 3.323293,-14.7592 3.705943,-20.5595 0.50525,-7.65873 0.42096,-7.20793 1.60332,-8.57406 1.20951,-1.39747 1.68345,-2.40818 2.81868,-6.01095 0.88587,-2.81141 1.52844,-4.3621 1.55318,-3.74829 0.0319,0.79251 -1.04666,6.79113 -2.48949,13.845 -1.2557,6.13907 -1.48236,7.67578 -1.49252,10.1192 -0.014,3.36806 0.3976,4.58333 1.55241,4.58333 1.17964,0 2.19553,-0.85191 4.06007,-3.40476 4.76971,-6.53044 5.56777,-7.5824 5.67274,-7.47742 0.0621,0.06208 -0.66581,1.58071 -1.61754,3.37474 -2.35761,4.44416 -2.29154,4.96929 0.55335,4.39795 0.80861,-0.16239 1.51721,-0.24826 1.57466,-0.190811 0.0574,0.05744 -0.22739,0.424622 -0.63294,0.81595 -0.76316,0.736361 -8.03102,6.21558 -11.7747,8.87686 -2.34536,1.66728 -2.514193,1.93179 -3.609533,5.65508 -2.33529,7.93816 -4.63783,18.4875 -4.62773,21.2025 0.01203,3.23469 1.14423,6.13345 3.53387,9.0478 3.038463,3.70562 12.104703,6.66928 17.813803,8.85057 4.64323,1.77405 2.46409,4.31476 2.46409,5.72738 0,1.97674 1.03578,2.08162 -4.79792,4.99825 -6.23679,3.11818 -14.068103,4.41994 -15.301003,6.888727 -0.479836,0.96077 -0.581604,1.5112 -0.488045,2.63944 0.23317,2.81167 2.47231,4.85749 9.136408,8.34761 3.8685,2.026 4.82929,2.75 3.64947,2.75 -0.67978,0 -1.84386,1.10992 -1.84164,1.75595 8.9e-4,0.25863 0.17712,0.80674 0.39162,1.21801 0.5163,0.98996 0.59481,1.0275 -5.05022,-2.41522 -7.084721,-4.32073 -9.720431,-5.53492 -12.014901,-5.53492 -2.26902,0 -2.78444,1.81306 -1.54845,5.44699 1.87822,5.52221 3.95485,7.78753 13.973701,15.2435 l 6.8627,5.1071 -2.9796,0.1524 c -2.40218,0.12285 -3.16594,0.26232 -3.94112,0.71968 -1.21679,0.71794 -1.47238,0.59603 -4.861971,-2.31897 -2.55492,-2.19719 -4.03797,-3.13643 -4.95242,-3.13643 -1.09802,0 -1.95104,-1.7195 -4.47523,-9.021 -2.0332,-5.88123 -2.97692,-7.48096 -5.0755,-8.60355 -0.986885,-0.52793 -1.44196,-0.57712 -5.27062,-0.56981 -4.64896,0.009 -5.72335,0.26885 -6.5927,1.59535 -0.559181,0.85321 -0.627762,3.86256 -0.254402,11.1645 0.124481,2.43442 0.124481,4.38616 0,4.38525 -0.123367,-9.2e-4 -0.419273,-0.34438 -0.657562,-0.76325 -0.238297,-0.41888 -0.743568,-0.96492 -1.12284,-1.21343 -0.667938,-0.43766 -0.71064,-0.4322 -1.3613,0.17397 -1.6705,1.55626 -4.10797,8.02026 -5.08761,13.492 -0.805023,4.49648 -1.25671,5.12706 -2.9295,4.08992 z"/><path style="fill:#5b9974;stroke-linejoin:round" id="path2448" d="m 87.585,102.372 c -0.875359,-0.18159 -2.00009,-0.74034 -4.43589,-2.20369 -2.8113,-1.68895 -3.90532,-2.46925 -5.62523,-4.01217 -1.2932,-1.16012 -1.94507,-1.85652 -2.72247,-2.90841 -1.42618,-1.92974 -2.05307,-3.75903 -1.75348,-5.11668 0.138374,-0.627045 0.594803,-1.27727 1.12897,-1.60832 1.31013,-0.811951 3.36268,-0.813202 6.11558,-0.0038 1.19855,0.352417 2.65039,0.922943 3.27535,1.28711 1.31368,0.76548 2.76106,2.18265 3.93386,3.85173 1.67612,2.38538 2.67005,4.983 2.67351,6.98724 0.0013,0.764694 -0.0532,1.05769 -0.342598,1.84094 -0.371529,1.00554 -0.810951,1.64267 -1.26636,1.83614 -0.237801,0.10102 -0.636902,0.1213 -0.981255,0.0498 z"/><g style="fill:#ff7f00" id="g3758"><path id="path2469" d="m 335.578,76.178 c -1.53952,-1.21693 -4.38361,-4.6214 -4.87787,-5.83905 -0.19199,-0.472923 -0.42935,-1.68486 -0.52756,-2.69319 -0.22247,-2.2847 -0.65609,-3.01224 -1.79449,-3.01092 -1.31345,0.0015 -2.36142,0.822815 -3.8924,3.05043 -1.44162,2.09765 -2.45282,2.87044 -3.3736,2.5782 -1.00574,-0.319206 -0.54559,-1.11607 1.77206,-3.0688 3.37256,-2.84155 4.59952,-5.11523 4.6326,-8.5846 0.0233,-2.44236 -0.88549,-4.15681 -3.66849,-6.92108 -3.52737,-3.50363 -9.05572,-6.9171 -13.8629,-8.55962 -1.55084,-0.529903 -2.33957,-0.626423 -5.11881,-0.626423 -5.30252,0 -5.79041,0.738041 -3.11627,4.71428 2.17633,3.23611 2.47818,3.86906 3.39386,7.11706 0.84668,3.00335 0.84674,4.01387 1.9e-4,4.01387 -0.77991,0 -1.02493,-0.760429 -0.97675,-3.03117 0.0355,-1.67446 -0.064,-2.27857 -0.51465,-3.12358 -0.58252,-1.09227 -4.26514,-5.4659 -4.44818,-5.28286 -0.0577,0.0577 0.0388,2.74697 0.21448,5.97615 0.32193,5.91821 0.19385,8.04816 -0.49774,8.27713 -0.56323,0.186481 -0.83423,-1.12636 -1.00009,-4.84493 -0.2453,-5.50014 -0.82019,-7.30046 -3.10132,-9.71196 -1.35086,-1.42804 -2.20373,-1.8778 -3.56088,-1.8778 -1.39603,0 -4.79483,-0.492771 -4.37506,2.3796 0.46591,3.18799 0.69235,8.21918 -0.89908,8.67963 -0.98181,0.284073 -2.25299,-1.90303 -3.98544,-3.02468 -1.35113,-0.87476 -3.00858,-0.695351 -3.94028,-1.93135 -0.93173,-1.23599 4.69351,-4.25526 6.14075,-8.21013 4.34128,-11.8634 5.37195,-16.0404 5.16708,-20.9407 -0.0961,-2.29821 -0.23111,-2.99359 -0.82187,-4.23273 -1.31302,-2.75398 -3.49661,-4.09275 -5.92526,-3.63275 -1.35516,0.25667 -2.09891,-0.02504 -2.09891,-0.794991 0,-0.76176 -0.7218,-2.36729 -1.38751,-3.08625 -0.31723,-0.34261 -1.46069,-1.21641 -2.54105,-1.94177 -1.08035,-0.72535 -2.01385,-1.3605 -2.07446,-1.41143 -0.3905,-0.32824 3.16428,-2.97148 3.99619,-2.97148 0.34622,0 0.43543,0.26074 0.43543,1.27265 0,1.11399 0.13195,1.42257 1.05859,2.47528 2.21939,2.52138 6.77634,4.93676 9.42258,4.99439 1.67389,0.03645 2.28848,-0.34085 3.94592,-2.42253 1.72168,-2.16234 2.68539,-4.55167 2.73514,-6.78127 0.0233,-1.04608 0.12524,-1.98477 0.22647,-2.08597 0.41351,-0.41353 1.10736,0.46055 1.62286,2.04438 0.66827,2.05317 0.96396,2.22913 4.1337,2.46001 4.8331,0.35204 5.3523,1.26802 0.97543,1.72084 -3.08377,0.31905 -3.58908,0.44133 -4.89267,1.18394 -3.6875,2.10069 -5.87921,7.75193 -5.86691,15.1274 0.005,3.17568 0.09,3.28462 1.85877,2.39038 2.43506,-1.23108 9.66452,-5.33998 12.7694,-7.25754 7.36249,-4.54703 13.4359,-10.0378 14.8521,-13.4271 0.20508,-0.49079 0.37286,-1.70059 0.37286,-2.68844 0,-1.52835 0.0878,-1.87641 0.58927,-2.33491 0.72211,-0.66026 1.98077,-1.31132 2.68454,-1.38861 1.63831,-0.17992 1.82675,0.28788 0.79254,1.96708 -0.73395,1.19159 -0.81897,2.12709 -0.26041,2.86553 0.78486,1.03772 0.48951,1.60402 -1.86032,3.5667 -2.40442,2.00827 -3.10782,2.98567 -2.45453,3.41072 0.54731,0.3561 2.10403,0.05981 5.1694,-0.9839 2.51303,-0.85564 3.71893,-0.980391 3.32562,-0.34403 -0.32733,0.52969 -2.77063,1.57615 -7.32773,3.13847 -5.48801,1.88146 -6.73407,2.48181 -11.3965,5.49073 -1.94464,1.25499 -5.86603,3.67978 -8.71414,5.38843 -7.49719,4.49766 -8.62616,5.64812 -11.5873,11.8077 -1.46155,3.0402 -1.8653,4.39988 -1.5766,5.3095 0.4144,1.30564 5.45206,1.44171 7.53906,0.203632 0.61207,-0.363102 2.58609,-2.11662 4.38666,-3.89671 3.7113,-3.66903 5.56213,-5.14691 8.38095,-6.6922 2.23505,-1.22525 3.46314,-2.38352 4.43478,-4.18263 1.00189,-1.85506 1.45807,-1.67216 1.45807,0.584641 0,1.82414 0.004,1.83376 0.75187,1.91925 1.34787,0.154032 1.96936,-0.196119 4.34622,-2.44868 1.28873,-1.22131 2.51715,-2.22057 2.72986,-2.22057 0.58416,0 0.75891,0.929079 0.33011,1.75477 -0.71048,1.36812 -3.13348,2.75045 -6.76013,3.85664 -3.1806,0.970139 -3.62412,1.37054 -3.62412,3.27175 0,1.79295 -0.26789,2.10721 -2.35712,2.76488 -2.35376,0.740917 -4.95343,2.01041 -5.10684,2.49378 -0.46207,1.4559 1.32336,2.27008 6.07257,2.76915 4.59357,0.482719 4.8862,0.561131 14.6176,3.91617 11.1722,3.85184 14.1591,5.30738 11.4421,5.57602 -1.07523,0.106308 -3.47397,-0.591911 -8.16827,-2.37755 -6.2995,-2.39624 -8.38095,-2.84224 -8.38095,-1.79581 0,0.74234 0.67596,1.16711 1.57208,0.987888 0.73376,-0.146751 0.78506,-0.105209 0.78506,0.635159 0,0.976521 0.46869,1.9009 2.26071,4.45892 2.34375,3.34559 3.11227,5.2979 4.13425,10.5025 1.38046,7.03004 2.0752,8.9479 3.8089,10.5142 0.95087,0.859077 1.81213,1.22112 5.05206,2.12374 0.82828,0.230751 1.50595,0.521141 1.50595,0.645302 0,0.3592 -2.27545,1.33105 -3.11649,1.33105 -0.49451,0 -1.22455,-0.363228 -2.06464,-1.02727 z" style="fill:#f9d566;fill-opacity:1"/><path id="path2471" d="m 258.424,83.3618 c -1.349,-1.2927 2.82999,-6.406 3.27298,-6.88751 0.44302,-0.481499 1.47501,2.42091 1.93002,3.3002 0.45499,0.879303 2.43298,2.0651 1.90698,2.3453 -0.52701,0.280304 -0.95999,7.1358 -3.75699,4.45551 l -3.353,-3.2135 z"/><path id="path2473" d="m 190.2921,105.9464 c -0.18802,-2.21328 -1.9646,-4.39817 1.68582,-3.51562 3.65041,0.88256 3.97136,0.66308 3.01761,3.54771 -0.42073,1.27247 -1.12421,1.87262 -2.56116,1.73762 -1.43694,-0.135 -1.95425,0.44357 -2.14227,-1.76971 z"/><path id="path2475" d="m 151.2684,96.0401 c 0.12018,-1.29053 0.39928,-1.263 3.27359,-0.867043 2.87431,0.39595 3.0421,0.796501 1.68129,3.45689 -1.36081,2.660403 -0.74055,2.532233 -5.04803,0.949577 -4.30748,-1.58264 -0.0271,-2.2489 0.0932,-3.53943 z"/><path id="path2477" d="m 229.6354,104.1775 c -0.63962,-0.10883 -0.74597,-2.30172 -1.02013,-2.54819 -0.27414,-0.24648 -1.35608,-1.79156 -1.02776,-2.28452 0.32832,-0.49295 1.45116,-1.21041 1.65469,-1.36409 0.20355,-0.153679 2.02267,-1.11596 2.3318,-1.20739 0.30913,-0.09143 2.56868,-0.837387 2.59906,-0.68676 0.0304,0.150642 -0.22594,2.60548 -0.19241,3.41574 0.0335,0.81026 0.37214,2.48348 0.48181,2.82596 0.10968,0.34248 -0.75484,1.05364 -1.12683,1.23724 -0.37198,0.18358 -0.92586,0.58509 -1.79503,0.65813 -0.86916,0.0731 -1.26561,0.0627 -1.90521,-0.0461 z"/></g><g style="fill:#f9d566" id="g3765"><path id="path2481" d="m 137.3436,100.0312 c -7.96493,-1.23281 -17.1953,-5.10701 -19.1025,-8.01781 -0.55131,-0.841415 -0.5472,-1.17815 0.0519,-4.26275 0,0 0.28548,-2.24255 0.92996,-2.88346 0.32219,-0.320404 1.44407,-0.456894 1.44407,-0.456894 3.43832,0.0176 10.3603,0.695984 13.2732,1.30081 8.64357,1.79475 18.0784,6.13517 18.0662,8.31121 -0.006,1.08367 -2.15755,4.43317 -3.4292,5.33865 -1.07242,0.763644 -1.69603,0.877674 -5.13457,0.938844 -2.15265,0.0383 -4.89725,-0.0826 -6.09914,-0.2686 z"/><path id="path2483" d="m 174.5274,109.3321 c -1.85696,-0.16597 -4.58411,-0.5536 -6.06027,-0.8614 -3.66663,-0.76451 -9.3425,-3.31525 -11.2068,-5.03632 -1.32494,-1.22319 -1.52467,-1.61517 -1.52467,-2.99235 0,-1.305537 0.22321,-1.807977 1.26674,-2.851517 0.89328,-0.89328 1.63472,-1.28195 2.51486,-1.31833 6.86018,-0.283531 22.6236,2.0377 26.3966,3.887017 2.10272,1.03065 3.6815,3.31639 3.96846,5.74551 0.28894,2.44607 -0.32611,2.93358 -4.33533,3.43629 -3.50807,0.43988 -6.02133,0.43785 -11.0196,-0.009 z"/><path id="path2485" d="m 205.6602,112.4794 c -4.57288,-0.66767 -6.33986,-1.34129 -8.84857,-3.3733 -1.29556,-1.04939 -1.58342,-1.51068 -1.58342,-2.53735 0,-2.97823 1.34929,-4.20298 5.73277,-5.20362 4.31133,-0.98416 14.6338,-2.43377 19.0432,-2.6743 6.44341,-0.351463 8.13962,0.428909 9.26404,4.26207 0.95534,3.25678 0.23451,4.20583 -4.85327,6.38974 -6.05829,2.60051 -13.6879,3.87656 -18.7548,3.13676 z"/><path id="path2487" d="m 233.9291,99.0631 c 0,0 -0.10271,-2.85415 0.79172,-4.4326 0.89442,-1.57845 6.61314,-3.96162 6.61314,-3.96162 9.98256,-5.98006 12.9889,-7.38518 15.8011,-7.38518 1.75793,0 3.0127,0.762177 4.06928,2.47179 0.91827,1.48579 0.75903,2.67825 -0.59543,4.4584 -1.08295,1.42336 -8.31593,6.92621 -12.1196,9.22063 -3.59103,2.16613 -8.21016,3.50356 -10.1443,3.82834 -1.93411,0.32478 -2.95351,0.83586 -3.62419,0.13971 -0.67069,-0.69615 -0.79172,-4.339471 -0.79172,-4.339471 z"/><path id="path2489" d="m 265.0429,81.2984 c -1.33435,-1.1228 -2.96729,-4.02478 -3.31235,-5.88657 -0.17667,-0.953331 -0.0602,-1.72222 0.39502,-2.60799 2.08341,-4.05386 10.9423,-16.963 13.7098,-19.9778 1.71719,-1.87067 2.57825,-1.98 5.2706,-0.66922 2.9736,1.44773 4.65713,3.28652 4.65713,5.08669 0,1.67415 -2.76227,6.57111 -7.16403,12.7003 -8.12784,11.3177 -10.8702,13.6147 -13.5562,11.3546 z"/></g></g><g style="stroke:#c8743b" id="g3777"><g style="fill:#e68b60" id="g3771"><path id="path2491" d="m 251.0543,91.8262 a 5.9160364,2.3479397 0 1 1 -8.07852,3.43099"/><path id="path2535" d="m 216.5742,104.5926 a 5.1353187,2.1710034 0 1 1 -8.41681,2.4883"/></g><g style="fill:#ff7f00" id="g3775"><path id="path2557" d="m 176.1438,103.564 a 4.3889796,2.1082365 0 1 1 -8.7766,0.0742"/><path id="path2579" d="m 138.4269,94.4129 a 4.6128152,2.4109359 0 1 1 -8.6022,-1.74246"/></g></g></g></svg>